SplineFontDB: 3.0
FontName: NeutonCursive-Regular
FullName: Neuton Cursive
FamilyName: Neuton Cursive
Weight: Regular
Copyright: Copyright (c) 2010, Brian M Zick (http://21326.info/),\nwith Reserved Font Name "Neuton".\nThis Font Software is licensed under the SIL Open Font License, Version 1.1.\nThis license is available with a FAQ at: http://scripts.sil.org/OFL
Version: 1.101
ItalicAngle: 0
UnderlinePosition: -440
UnderlineWidth: 220
Ascent: 1638
Descent: 410
LayerCount: 2
Layer: 0 1 "Back"  1
Layer: 1 1 "Fore"  0
NeedsXUIDChange: 1
FSType: 0
OS2Version: 0
OS2_WeightWidthSlopeOnly: 0
OS2_UseTypoMetrics: 0
CreationTime: 1300472668
ModificationTime: 1314359767
PfmFamily: 17
TTFWeight: 400
TTFWidth: 5
LineGap: 0
VLineGap: 0
OS2TypoAscent: 2106
OS2TypoAOffset: 0
OS2TypoDescent: -485
OS2TypoDOffset: 0
OS2TypoLinegap: 0
OS2WinAscent: 2106
OS2WinAOffset: 0
OS2WinDescent: 486
OS2WinDOffset: 0
HheadAscent: 2106
HheadAOffset: 0
HheadDescent: -485
HheadDOffset: 0
OS2Vendor: 'PfEd'
MarkAttachClasses: 1
DEI: 91125
LangName: 1033 "" "" "" "" "" "" "" "" "" "Brian M Zick" "" "" "http://21326.info/" "Copyright (c) 2011, Brian Zick (http://21326.info/),+AAoA-with Reserved Font Name +ACIA-Neuton+ACIA.+AAoACgAA-This Font Software is licensed under the SIL Open Font License, Version 1.1.+AAoA-This license is available with a FAQ at: http://scripts.sil.org/OFL" "http://scripts.sil.org/OFL" 
Encoding: UnicodeBmp
Compacted: 1
UnicodeInterp: none
NameList: Adobe Glyph List
DisplaySize: -24
AntiAlias: 1
FitToEm: 1
WinInfo: 0 50 16
BeginPrivate: 12
BlueValues 37 [-44 0 1090 1110 1432 1460 1540 1576]
OtherBlues 11 [-472 -448]
BlueFuzz 1 1
BlueScale 6 0.0225
BlueShift 1 7
ExpansionFactor 4 0.06
ForceBold 5 false
LanguageGroup 1 0
StdVW 5 [204]
StdHW 5 [128]
StemSnapH 48 [94 102 112 118 122 128 132 138 182 188 192 216]
StemSnapV 33 [174 178 192 196 204 208 250 256]
EndPrivate
BeginChars: 65538 367

StartChar: .notdef
Encoding: 65536 -1 0
Width: 1496
VWidth: 0
Flags: HW
HStem: 0 136<272 1088> 1864 136<272 1088>
VStem: 136 136<136 1864> 1088 136<136 1864>
LayerCount: 2
Fore
SplineSet
272 136 m 1,0,-1
 1088 136 l 1,1,-1
 1088 1864 l 1,2,-1
 272 1864 l 1,3,-1
 272 136 l 1,0,-1
136 0 m 1,4,-1
 136 2000 l 1,5,-1
 1224 2000 l 1,6,-1
 1224 0 l 1,7,-1
 136 0 l 1,4,-1
EndSplineSet
EndChar

StartChar: A
Encoding: 65 65 1
Width: 1504
VWidth: 0
Flags: HW
HStem: -34 21G<132 181> 0 88<784 860.043 1454.5 1468> 1552 20G<901.158 1021.66>
DStem2: 634 972 716 896 0.283284 0.959036<-287.397 383.296>
LayerCount: 2
Fore
SplineSet
950 624 m 1,0,-1
 840 1312 l 1,1,-1
 836 1312 l 1,2,-1
 716 896 l 1,3,4
 662 716 662 716 644 662 c 1,5,-1
 950 624 l 1,0,-1
1018 1572 m 1,6,-1
 1276 164 l 1,7,-1
 1496 100 l 1,8,-1
 1468 0 l 1,9,-1
 756 0 l 1,10,-1
 784 88 l 1,11,-1
 1028 134 l 1,12,-1
 964 534 l 1,13,-1
 604 550 l 1,14,15
 526 327 526 327 446 180 c 1,16,17
 392 86 392 86 339.5 36 c 128,-1,18
 287 -14 287 -14 214 -30 c 1,19,20
 182 -34 182 -34 176 -34 c 0,21,22
 108 -34 108 -34 46.5 10 c 128,-1,23
 -15 54 -15 54 -38 124 c 1,24,25
 54 158 54 158 128 208 c 1,26,27
 257 292 257 292 364 432 c 0,28,29
 508 621 508 621 634 972 c 1,30,31
 735.662921348 1268.51685393 735.662921348 1268.51685393 796 1534 c 1,32,-1
 1018 1572 l 1,6,-1
EndSplineSet
EndChar

StartChar: A.alt
Encoding: 65537 -1 2
Width: 1680
VWidth: 0
Flags: HW
HStem: -24 21G<179 312> 0 88<960 1036.04 1630.5 1644> 550 114<800 916.838> 1552 20G<1077.16 1197.66>
LayerCount: 2
Fore
SplineSet
800 664 m 1,0,-1
 1126 624 l 1,1,-1
 1016 1312 l 1,2,-1
 1012 1312 l 1,3,4
 946 1076 946 1076 880 884 c 1,5,-1
 800 664 l 1,0,-1
1194 1572 m 1,6,-1
 1452 164 l 1,7,-1
 1672 100 l 1,8,-1
 1644 0 l 1,9,-1
 932 0 l 1,10,-1
 960 88 l 1,11,-1
 1204 134 l 1,12,-1
 1140 534 l 1,13,-1
 756 550 l 1,14,-1
 726 476 l 1,15,16
 635 256 635 256 526 128 c 1,17,18
 392.24882893 -22.2128536631 392.24882893 -22.2128536631 260 -24 c 1,19,-1
 254 -24 l 2,20,21
 148 -24 148 -24 82.5 41 c 128,-1,22
 17 106 17 106 10 190 c 1,23,24
 105 208 105 208 180 236 c 1,25,26
 498 346 498 346 668 666 c 0,27,28
 780 878 780 878 918 1318 c 1,29,30
 948 1426 948 1426 972 1534 c 1,31,-1
 1194 1572 l 1,6,-1
EndSplineSet
EndChar

StartChar: AE
Encoding: 198 198 3
Width: 1898
VWidth: 0
Flags: HW
HStem: -34 21G<155 205> -4 102<634 690.922> 534 92<794.394 888> 688 174<1287.45 1511.95>
VStem: 864 214<1072.33 1314> 892 864<232 436> 892 216<626 714 842 978.256> 1580 108<1074 1138.72>
LayerCount: 2
Fore
SplineSet
888 626 m 1,0,-1
 864 1314 l 1,1,-1
 856 1314 l 1,2,-1
 740 898 l 1,3,4
 710 795 710 795 666 660 c 1,5,-1
 888 626 l 1,0,-1
1748 532 m 1,6,7
 1756 500 1756 500 1756 392 c 0,8,9
 1756 151 1756 151 1682 0 c 1,10,-1
 1648 0 l 2,11,12
 1592 0 1592 0 1554 2 c 1,13,-1
 1276 2 l 2,14,15
 1178 2 1178 2 1132 4 c 1,16,-1
 920 4 l 1,17,-1
 606 -4 l 1,18,-1
 634 98 l 1,19,-1
 904 166 l 1,20,-1
 892 534 l 1,21,-1
 628 548 l 1,22,23
 534 294 534 294 470 180 c 1,24,25
 409 79 409 79 359.5 31 c 128,-1,26
 310 -17 310 -17 258 -25.5 c 128,-1,27
 206 -34 206 -34 200 -34 c 0,28,29
 132 -34 132 -34 71 10 c 128,-1,30
 10 54 10 54 -14 124 c 1,31,32
 78 158 78 158 152 208 c 1,33,34
 273 286 273 286 388 432 c 1,35,36
 591 702 591 702 766 1318 c 1,37,38
 796 1417 796 1417 818 1534 c 1,39,-1
 1736 1582 l 1,40,-1
 1688 1066 l 1,41,-1
 1580 1074 l 1,42,-1
 1510 1390 l 1,43,-1
 1474 1394 l 1,44,45
 1339 1406 1339 1406 1118 1412 c 1,46,-1
 1078 1414 l 1,47,-1
 1102 842 l 1,48,-1
 1556 862 l 1,49,-1
 1508 688 l 1,50,-1
 1108 714 l 1,51,-1
 1142 124 l 1,52,-1
 1248 134 l 2,53,54
 1460 155 1460 155 1498 164 c 1,55,56
 1535 211 1535 211 1581.5 334 c 128,-1,57
 1628 457 1628 457 1640 536 c 1,58,-1
 1748 532 l 1,6,7
EndSplineSet
EndChar

StartChar: Aacute
Encoding: 193 193 4
Width: 1504
VWidth: 0
Flags: HW
HStem: -34 21G<131 181> 0 88<784 860.043 1454.5 1468> 1552 20G<900.211 1019.69>
LayerCount: 2
Fore
SplineSet
950 624 m 1,0,-1
 840 1312 l 1,1,-1
 836 1312 l 1,2,-1
 716 896 l 1,3,4
 662 716 662 716 644 662 c 1,5,-1
 950 624 l 1,0,-1
1016 1572 m 1,6,-1
 1276 164 l 1,7,-1
 1496 100 l 1,8,-1
 1468 0 l 1,9,-1
 756 0 l 1,10,-1
 784 88 l 1,11,-1
 1028 134 l 1,12,-1
 966 532 l 1,13,-1
 604 550 l 1,14,15
 513 299 513 299 452.5 192.5 c 128,-1,16
 392 86 392 86 339.5 36 c 128,-1,17
 287 -14 287 -14 214 -30 c 1,18,19
 182 -34 182 -34 176 -34 c 0,20,21
 107 -34 107 -34 46.5 9.5 c 128,-1,22
 -14 53 -14 53 -38 124 c 1,23,24
 54 158 54 158 128 208 c 1,25,26
 257 292 257 292 364 432 c 0,27,28
 508 621 508 621 634 972 c 1,29,30
 735.662921348 1268.51685393 735.662921348 1268.51685393 796 1534 c 1,31,-1
 1016 1572 l 1,6,-1
1192 2054 m 1,32,-1
 970 1670 l 1,33,-1
 908 1708 l 1,34,-1
 1056 2102 l 1,35,-1
 1192 2054 l 1,32,-1
EndSplineSet
EndChar

StartChar: Abreve
Encoding: 258 258 5
Width: 1504
VWidth: 0
Flags: HW
HStem: -34 21G<131 181> 0 88<784 860.043 1454.5 1468> 1552 20G<900.211 1019.69> 1700 132<799.131 1040.74>
VStem: 688 66<1887.71 1925.73>
DStem2: 634 972 716 896 0.283284 0.959036<-287.397 383.296>
LayerCount: 2
Fore
SplineSet
950 624 m 1,0,-1
 840 1312 l 1,1,-1
 836 1312 l 1,2,-1
 716 896 l 1,3,4
 662 716 662 716 644 662 c 1,5,-1
 950 624 l 1,0,-1
1016 1572 m 1,6,-1
 1276 164 l 1,7,-1
 1496 100 l 1,8,-1
 1468 0 l 1,9,-1
 756 0 l 1,10,-1
 784 88 l 1,11,-1
 1028 134 l 1,12,-1
 966 532 l 1,13,-1
 604 550 l 1,14,15
 513 299 513 299 452.5 192.5 c 128,-1,16
 392 86 392 86 339.5 36 c 128,-1,17
 287 -14 287 -14 214 -30 c 1,18,19
 182 -34 182 -34 176 -34 c 0,20,21
 107 -34 107 -34 46.5 9.5 c 128,-1,22
 -14 53 -14 53 -38 124 c 1,23,24
 54 158 54 158 128 208 c 1,25,26
 257 292 257 292 364 432 c 0,27,28
 508 621 508 621 634 972 c 1,29,30
 735.662921348 1268.51685393 735.662921348 1268.51685393 796 1534 c 1,31,-1
 1016 1572 l 1,6,-1
688 1916 m 1,32,-1
 744 1954 l 1,33,-1
 754 1934 l 1,34,35
 774 1890 774 1890 819 1861 c 128,-1,36
 864 1832 864 1832 918 1832 c 0,37,38
 1028 1832 1028 1832 1090 1936 c 2,39,-1
 1102 1956 l 1,40,-1
 1152 1922 l 1,41,-1
 1144 1898 l 2,42,43
 1114 1809 1114 1809 1056 1754.5 c 128,-1,44
 998 1700 998 1700 915.5 1700 c 128,-1,45
 833 1700 833 1700 774 1754 c 128,-1,46
 715 1808 715 1808 694 1892 c 2,47,-1
 688 1916 l 1,32,-1
EndSplineSet
EndChar

StartChar: Acaron
Encoding: 461 461 6
Width: 1504
VWidth: 0
Flags: HW
HStem: -34 21G<131 181> 0 88<784 860.043 1454.5 1468> 1552 20G<900.211 1019.69>
DStem2: 634 972 716 896 0.283284 0.959036<-287.397 383.296> 772 1954 674 1880 0.736873 -0.676031<0 250.267> 964 1780 958 1696 0.690318 0.723506<0 226.544>
LayerCount: 2
Fore
SplineSet
950 624 m 1,0,-1
 840 1312 l 1,1,-1
 836 1312 l 1,2,-1
 716 896 l 1,3,4
 662 716 662 716 644 662 c 1,5,-1
 950 624 l 1,0,-1
1016 1572 m 1,6,-1
 1276 164 l 1,7,-1
 1496 100 l 1,8,-1
 1468 0 l 1,9,-1
 756 0 l 1,10,-1
 784 88 l 1,11,-1
 1028 134 l 1,12,-1
 966 532 l 1,13,-1
 604 550 l 1,14,15
 513 299 513 299 452.5 192.5 c 128,-1,16
 392 86 392 86 339.5 36 c 128,-1,17
 287 -14 287 -14 214 -30 c 1,18,19
 182 -34 182 -34 176 -34 c 0,20,21
 107 -34 107 -34 46.5 9.5 c 128,-1,22
 -14 53 -14 53 -38 124 c 1,23,24
 54 158 54 158 128 208 c 1,25,26
 257 292 257 292 364 432 c 0,27,28
 508 621 508 621 634 972 c 1,29,30
 735.662921348 1268.51685393 735.662921348 1268.51685393 796 1534 c 1,31,-1
 1016 1572 l 1,6,-1
892 1680 m 1,32,-1
 674 1880 l 1,33,-1
 772 1954 l 1,34,-1
 952 1780 l 1,35,-1
 964 1780 l 1,36,-1
 1114 1950 l 1,37,-1
 1166 1914 l 1,38,-1
 958 1696 l 1,39,-1
 892 1680 l 1,32,-1
EndSplineSet
EndChar

StartChar: Acircumflex
Encoding: 194 194 7
Width: 1504
VWidth: 0
Flags: HW
HStem: -34 21G<131 181> 0 88<784 860.043 1454.5 1468> 1552 20G<900.211 1019.69>
DStem2: 634 972 716 896 0.283284 0.959036<-287.397 383.296>
LayerCount: 2
Fore
SplineSet
950 624 m 1,0,-1
 840 1312 l 1,1,-1
 836 1312 l 1,2,-1
 716 896 l 1,3,4
 662 716 662 716 644 662 c 1,5,-1
 950 624 l 1,0,-1
1016 1572 m 1,6,-1
 1276 164 l 1,7,-1
 1496 100 l 1,8,-1
 1468 0 l 1,9,-1
 756 0 l 1,10,-1
 784 88 l 1,11,-1
 1028 134 l 1,12,-1
 966 532 l 1,13,-1
 604 550 l 1,14,15
 513 299 513 299 452.5 192.5 c 128,-1,16
 392 86 392 86 339.5 36 c 128,-1,17
 287 -14 287 -14 214 -30 c 1,18,19
 182 -34 182 -34 176 -34 c 0,20,21
 107 -34 107 -34 46.5 9.5 c 128,-1,22
 -14 53 -14 53 -38 124 c 1,23,24
 54 158 54 158 128 208 c 1,25,26
 257 292 257 292 364 432 c 0,27,28
 508 621 508 621 634 972 c 1,29,30
 735.662921348 1268.51685393 735.662921348 1268.51685393 796 1534 c 1,31,-1
 1016 1572 l 1,6,-1
946 1950 m 1,32,-1
 1162 1726 l 1,33,-1
 1102 1682 l 1,34,-1
 904 1814 l 1,35,-1
 892 1814 l 1,36,-1
 722 1680 l 1,37,-1
 676 1716 l 1,38,-1
 880 1934 l 1,39,-1
 946 1950 l 1,32,-1
EndSplineSet
EndChar

StartChar: Adieresis
Encoding: 196 196 8
Width: 1504
VWidth: 0
Flags: HW
HStem: -34 21G<131 181> 0 88<784 860.043 1454.5 1468> 1552 20G<900.211 1019.69> 1712 192<670.648 843.259 994.648 1168.67>
VStem: 654 206<1729 1886.53> 978 208<1730.33 1885.94>
DStem2: 634 972 716 896 0.283284 0.959036<-287.397 383.296>
LayerCount: 2
Fore
SplineSet
950 624 m 1,0,-1
 840 1312 l 1,1,-1
 836 1312 l 1,2,-1
 716 896 l 1,3,4
 662 716 662 716 644 662 c 1,5,-1
 950 624 l 1,0,-1
1016 1572 m 1,6,-1
 1276 164 l 1,7,-1
 1496 100 l 1,8,-1
 1468 0 l 1,9,-1
 756 0 l 1,10,-1
 784 88 l 1,11,-1
 1028 134 l 1,12,-1
 966 532 l 1,13,-1
 604 550 l 1,14,15
 513 299 513 299 452.5 192.5 c 128,-1,16
 392 86 392 86 339.5 36 c 128,-1,17
 287 -14 287 -14 214 -30 c 1,18,19
 182 -34 182 -34 176 -34 c 0,20,21
 107 -34 107 -34 46.5 9.5 c 128,-1,22
 -14 53 -14 53 -38 124 c 1,23,24
 54 158 54 158 128 208 c 1,25,26
 257 292 257 292 364 432 c 0,27,28
 508 621 508 621 634 972 c 1,29,30
 735.662921348 1268.51685393 735.662921348 1268.51685393 796 1534 c 1,31,-1
 1016 1572 l 1,6,-1
1154.5 1877 m 128,-1,33
 1186 1850 1186 1850 1186 1809 c 128,-1,34
 1186 1768 1186 1768 1154.5 1740 c 128,-1,35
 1123 1712 1123 1712 1080.5 1712 c 128,-1,36
 1038 1712 1038 1712 1008 1740 c 128,-1,37
 978 1768 978 1768 978 1809.5 c 128,-1,38
 978 1851 978 1851 1008 1877.5 c 128,-1,39
 1038 1904 1038 1904 1080.5 1904 c 128,-1,32
 1123 1904 1123 1904 1154.5 1877 c 128,-1,33
829.5 1877 m 128,-1,41
 860 1850 860 1850 860 1808.5 c 128,-1,42
 860 1767 860 1767 829.5 1739.5 c 128,-1,43
 799 1712 799 1712 756.5 1712 c 128,-1,44
 714 1712 714 1712 684 1740 c 128,-1,45
 654 1768 654 1768 654 1809.5 c 128,-1,46
 654 1851 654 1851 684 1877.5 c 128,-1,47
 714 1904 714 1904 756.5 1904 c 128,-1,40
 799 1904 799 1904 829.5 1877 c 128,-1,41
EndSplineSet
EndChar

StartChar: Agrave
Encoding: 192 192 9
Width: 1504
VWidth: 0
Flags: HW
HStem: -34 21G<131 181> 0 88<784 860.043 1454.5 1468> 1552 20G<900.211 1019.69>
DStem2: 634 972 716 896 0.283284 0.959036<-287.397 383.296>
LayerCount: 2
Fore
SplineSet
950 624 m 1,0,-1
 840 1312 l 1,1,-1
 836 1312 l 1,2,-1
 716 896 l 1,3,4
 662 716 662 716 644 662 c 1,5,-1
 950 624 l 1,0,-1
1016 1572 m 1,6,-1
 1276 164 l 1,7,-1
 1496 100 l 1,8,-1
 1468 0 l 1,9,-1
 756 0 l 1,10,-1
 784 88 l 1,11,-1
 1028 134 l 1,12,-1
 966 532 l 1,13,-1
 604 550 l 1,14,15
 513 299 513 299 452.5 192.5 c 128,-1,16
 392 86 392 86 339.5 36 c 128,-1,17
 287 -14 287 -14 214 -30 c 1,18,19
 182 -34 182 -34 176 -34 c 0,20,21
 107 -34 107 -34 46.5 9.5 c 128,-1,22
 -14 53 -14 53 -38 124 c 1,23,24
 54 158 54 158 128 208 c 1,25,26
 257 292 257 292 364 432 c 0,27,28
 508 621 508 621 634 972 c 1,29,30
 735.662921348 1268.51685393 735.662921348 1268.51685393 796 1534 c 1,31,-1
 1016 1572 l 1,6,-1
672 2046 m 1,32,-1
 812 2092 l 1,33,-1
 972 1688 l 1,34,-1
 902 1646 l 1,35,-1
 672 2046 l 1,32,-1
EndSplineSet
EndChar

StartChar: Amacron
Encoding: 256 256 10
Width: 1504
VWidth: 0
Flags: HW
HStem: -34 21G<131 181> 0 88<784 860.043 1454.5 1468> 1552 20G<900.211 1019.69> 1706 122<670 1188>
DStem2: 634 972 716 896 0.283284 0.959036<-287.397 383.296>
LayerCount: 2
Fore
SplineSet
950 624 m 1,0,-1
 840 1312 l 1,1,-1
 836 1312 l 1,2,-1
 716 896 l 1,3,4
 662 716 662 716 644 662 c 1,5,-1
 950 624 l 1,0,-1
1016 1572 m 1,6,-1
 1276 164 l 1,7,-1
 1496 100 l 1,8,-1
 1468 0 l 1,9,-1
 756 0 l 1,10,-1
 784 88 l 1,11,-1
 1028 134 l 1,12,-1
 966 532 l 1,13,-1
 604 550 l 1,14,15
 513 299 513 299 452.5 192.5 c 128,-1,16
 392 86 392 86 339.5 36 c 128,-1,17
 287 -14 287 -14 214 -30 c 1,18,19
 182 -34 182 -34 176 -34 c 0,20,21
 107 -34 107 -34 46.5 9.5 c 128,-1,22
 -14 53 -14 53 -38 124 c 1,23,24
 54 158 54 158 128 208 c 1,25,26
 257 292 257 292 364 432 c 0,27,28
 508 621 508 621 634 972 c 1,29,30
 735.662921348 1268.51685393 735.662921348 1268.51685393 796 1534 c 1,31,-1
 1016 1572 l 1,6,-1
670 1828 m 1,32,-1
 1204 1828 l 1,33,-1
 1188 1706 l 1,34,-1
 654 1706 l 1,35,-1
 670 1828 l 1,32,-1
EndSplineSet
EndChar

StartChar: Aogonek
Encoding: 260 260 11
Width: 1504
VWidth: 0
Flags: HW
HStem: -452 62<1434.79 1445.71> -34 21G<131 181> 0 88<784 860.043 1454.5 1468> 1552 20G<900.211 1019.69>
VStem: 1148 180<-299.306 -112.838>
DStem2: 634 972 716 896 0.283284 0.959036<-287.397 383.296>
LayerCount: 2
Fore
SplineSet
950 624 m 1,0,-1
 840 1312 l 1,1,-1
 836 1312 l 1,2,-1
 716 896 l 1,3,4
 662 716 662 716 644 662 c 1,5,-1
 950 624 l 1,0,-1
1478 -390 m 1,6,-1
 1436 -452 l 1,7,8
 1309 -439 1309 -439 1228.5 -377.5 c 128,-1,9
 1148 -316 1148 -316 1148 -236 c 0,10,11
 1148 -131 1148 -131 1294 0 c 1,12,-1
 756 0 l 1,13,-1
 784 88 l 1,14,-1
 1028 134 l 1,15,-1
 966 532 l 1,16,-1
 604 550 l 1,17,18
 513 299 513 299 452.5 192.5 c 128,-1,19
 392 86 392 86 339.5 36 c 128,-1,20
 287 -14 287 -14 214 -30 c 1,21,22
 182 -34 182 -34 176 -34 c 0,23,24
 107 -34 107 -34 46.5 9.5 c 128,-1,25
 -14 53 -14 53 -38 124 c 1,26,27
 54 158 54 158 128 208 c 1,28,29
 257 292 257 292 364 432 c 0,30,31
 508 621 508 621 634 972 c 1,32,33
 735.662921348 1268.51685393 735.662921348 1268.51685393 796 1534 c 1,34,-1
 1016 1572 l 1,35,-1
 1276 164 l 1,36,-1
 1496 100 l 1,37,-1
 1468 0 l 1,38,-1
 1390 0 l 1,39,40
 1328 -106 1328 -106 1328 -164 c 0,41,42
 1328 -303 1328 -303 1478 -390 c 1,6,-1
EndSplineSet
EndChar

StartChar: Aring
Encoding: 197 197 12
Width: 1504
VWidth: 0
Flags: HW
HStem: -34 21G<131 181> 0 88<784 860.043 1454.5 1468> 1552 20G<900.211 1019.69> 1686 58<857.65 999.136> 2036 58<848.486 982.704>
VStem: 724 86<1777.86 2009.91> 1030 86<1767.6 2002.2>
DStem2: 634 972 716 896 0.283284 0.959036<-287.397 383.296>
LayerCount: 2
Fore
SplineSet
950 624 m 1,0,-1
 840 1312 l 1,1,-1
 836 1312 l 1,2,-1
 716 896 l 1,3,4
 662 716 662 716 644 662 c 1,5,-1
 950 624 l 1,0,-1
1016 1572 m 1,6,-1
 1276 164 l 1,7,-1
 1496 100 l 1,8,-1
 1468 0 l 1,9,-1
 756 0 l 1,10,-1
 784 88 l 1,11,-1
 1028 134 l 1,12,-1
 966 532 l 1,13,-1
 604 550 l 1,14,15
 513 299 513 299 452.5 192.5 c 128,-1,16
 392 86 392 86 339.5 36 c 128,-1,17
 287 -14 287 -14 214 -30 c 1,18,19
 182 -34 182 -34 176 -34 c 0,20,21
 107 -34 107 -34 46.5 9.5 c 128,-1,22
 -14 53 -14 53 -38 124 c 1,23,24
 54 158 54 158 128 208 c 1,25,26
 257 292 257 292 364 432 c 0,27,28
 508 621 508 621 634 972 c 1,29,30
 735.662921348 1268.51685393 735.662921348 1268.51685393 796 1534 c 1,31,-1
 1016 1572 l 1,6,-1
838 1997 m 128,-1,33
 810 1958 810 1958 810 1897 c 128,-1,34
 810 1836 810 1836 842 1790 c 128,-1,35
 874 1744 874 1744 926 1744 c 0,36,37
 1030 1744 1030 1744 1030 1882 c 0,38,39
 1030 1946 1030 1946 998 1991 c 128,-1,40
 966 2036 966 2036 916 2036 c 128,-1,32
 866 2036 866 2036 838 1997 c 128,-1,33
1064.5 2039 m 128,-1,42
 1116 1984 1116 1984 1116 1897.5 c 128,-1,43
 1116 1811 1116 1811 1058 1748.5 c 128,-1,44
 1000 1686 1000 1686 914 1686 c 128,-1,45
 828 1686 828 1686 776 1740.5 c 128,-1,46
 724 1795 724 1795 724 1882.5 c 128,-1,47
 724 1970 724 1970 784 2032 c 128,-1,48
 844 2094 844 2094 928.5 2094 c 128,-1,41
 1013 2094 1013 2094 1064.5 2039 c 128,-1,42
EndSplineSet
EndChar

StartChar: Atilde
Encoding: 195 195 13
Width: 1504
VWidth: 0
Flags: HW
HStem: -34 21G<131 181> 0 88<784 860.043 1454.5 1468> 1552 20G<900.211 1019.69> 1716 126<964.48 1134.9> 1754 126<699.826 818.598>
DStem2: 634 972 716 896 0.283284 0.959036<-287.397 383.296>
LayerCount: 2
Fore
SplineSet
950 624 m 1,0,-1
 840 1312 l 1,1,-1
 836 1312 l 1,2,-1
 716 896 l 1,3,4
 662 716 662 716 644 662 c 1,5,-1
 950 624 l 1,0,-1
1016 1572 m 1,6,-1
 1276 164 l 1,7,-1
 1496 100 l 1,8,-1
 1468 0 l 1,9,-1
 756 0 l 1,10,-1
 784 88 l 1,11,-1
 1028 134 l 1,12,-1
 966 532 l 1,13,-1
 604 550 l 1,14,15
 513 299 513 299 452.5 192.5 c 128,-1,16
 392 86 392 86 339.5 36 c 128,-1,17
 287 -14 287 -14 214 -30 c 1,18,19
 182 -34 182 -34 176 -34 c 0,20,21
 107 -34 107 -34 46.5 9.5 c 128,-1,22
 -14 53 -14 53 -38 124 c 1,23,24
 54 158 54 158 128 208 c 1,25,26
 257 292 257 292 364 432 c 0,27,28
 508 621 508 621 634 972 c 1,29,30
 735.662921348 1268.51685393 735.662921348 1268.51685393 796 1534 c 1,31,-1
 1016 1572 l 1,6,-1
756 1754 m 2,32,33
 725.428571429 1754 725.428571429 1754 684 1696 c 1,34,-1
 638 1706 l 1,35,36
 642 1718 642 1718 649 1743.5 c 128,-1,37
 656 1769 656 1769 680 1807 c 0,38,39
 726.105263158 1880 726.105263158 1880 786 1880 c 2,40,-1
 794 1880 l 1,41,42
 798 1878 798 1878 802 1878 c 2,43,-1
 1072 1842 l 1,44,-1
 1076 1842 l 2,45,46
 1102.33333333 1842 1102.33333333 1842 1144 1892 c 1,47,-1
 1202 1890 l 1,48,49
 1144 1716 1144 1716 1044 1716 c 2,50,-1
 1030 1716 l 1,51,-1
 760 1754 l 1,52,-1
 756 1754 l 2,32,33
EndSplineSet
EndChar

StartChar: B
Encoding: 66 66 14
Width: 1412
VWidth: 0
Flags: HW
HStem: 0 112<529.095 995.664> 0 92<36 90.8141> 736 102<616 924.648> 1332 96<204 367.25> 1456 102<695.304 982.818>
VStem: 1152 228<1058.46 1295.74> 1162 240<272.701 542.727>
DStem2: 276.354 0 510.775 0 0.121869 0.992546<161.202 774.97 873.146 936.214>
LayerCount: 2
Fore
SplineSet
616 838 m 1,0,1
 736 832 l 1,2,3
 867 832 867 832 942 855.5 c 128,-1,4
 1017 879 1017 879 1079 947 c 128,-1,5
 1141 1015 1141 1015 1150 1108 c 0,6,7
 1150 1116 1150 1116 1152 1122 c 1,8,-1
 1152 1136 l 2,9,10
 1152 1274 1152 1274 1057 1359.5 c 128,-1,11
 962 1445 962 1445 818 1454 c 1,12,13
 808 1456 808 1456 782 1456 c 128,-1,14
 756 1456 756 1456 692 1452 c 1,15,-1
 616 838 l 1,0,1
526 124 m 1,16,17
 625 112 625 112 728 112 c 2,18,-1
 768 112 l 1,19,20
 942 115 942 115 1038 178 c 1,21,22
 1162 265 1162 265 1162 394 c 0,23,24
 1162 420 1162 420 1160 428 c 1,25,26
 1148 525 1148 525 1070.5 601.5 c 128,-1,27
 993 678 993 678 877.5 707 c 128,-1,28
 762 736 762 736 602 736 c 1,29,-1
 526 124 l 1,16,17
10 0 m 1,30,-1
 36 92 l 1,31,-1
 296 160 l 1,32,-1
 456 1312 l 1,33,-1
 180 1332 l 1,34,-1
 204 1428 l 1,35,36
 681 1558 681 1558 899.5 1558 c 128,-1,37
 1118 1558 1118 1558 1248 1464 c 1,38,39
 1380 1364 1380 1364 1380 1218 c 0,40,41
 1380 1139 1380 1139 1328 1044 c 1,42,43
 1219 870 1219 870 1026 824 c 1,44,-1
 1026 816 l 1,45,46
 1069 809 1069 809 1139.5 784 c 128,-1,47
 1210 759 1210 759 1256 722 c 1,48,49
 1327 669 1327 669 1364.5 595.5 c 128,-1,50
 1402 522 1402 522 1402 468 c 128,-1,51
 1402 414 1402 414 1400 406 c 1,52,53
 1388 289 1388 289 1303 199.5 c 128,-1,54
 1218 110 1218 110 1099.5 66.5 c 128,-1,55
 981 23 981 23 893 11.5 c 128,-1,56
 805 0 805 0 656 0 c 2,57,-1
 10 0 l 1,30,-1
EndSplineSet
EndChar

StartChar: C
Encoding: 67 67 15
Width: 1178
VWidth: 0
Flags: HW
HStem: -36 190<503.894 790.345> 1404 148<534.851 809.509>
VStem: 12 270<422.166 899.918> 896 272<1075.25 1317.73>
LayerCount: 2
Fore
SplineSet
896 1146 m 2,0,1
 896 1207 896 1207 884.5 1253 c 128,-1,2
 873 1299 873 1299 836 1336 c 1,3,4
 778.967741935 1404 778.967741935 1404 670 1404 c 1,5,6
 480 1395 480 1395 378 1200 c 1,7,8
 282 1026.2278481 282 1026.2278481 282 706 c 0,9,10
 282 528.315789474 282 528.315789474 327.5 418.157894737 c 128,-1,11
 373 308 373 308 445 241.5 c 0,12,13
 539.736842105 154 539.736842105 154 674 154 c 0,14,15
 838 154 838 154 972 298 c 1,16,17
 1011 337 1011 337 1040 384 c 1,18,-1
 1092 306 l 1,19,20
 1067 241 1067 241 1014 176 c 0,21,22
 901 40 901 40 734 -12 c 0,23,24
 656 -36 656 -36 579 -36 c 128,-1,25
 502 -36 502 -36 420 -14 c 1,26,27
 248 39 248 39 135 186.5 c 128,-1,28
 22 334 22 334 12 562 c 1,29,-1
 12 600 l 2,30,31
 12 1012.40425532 12 1012.40425532 274.5 1314 c 0,32,33
 481.648148148 1552 481.648148148 1552 752 1552 c 0,34,35
 939.146067416 1552 939.146067416 1552 1056.5 1446.5 c 0,36,37
 1106 1402 1106 1402 1137 1344 c 128,-1,38
 1168 1286 1168 1286 1168 1214 c 2,39,-1
 1168 1200 l 1,40,41
 1163 1126 1163 1126 1119.5 1068 c 128,-1,42
 1076 1010 1076 1010 1024 996 c 128,-1,43
 972 982 972 982 944 982 c 1,44,-1
 880 992 l 1,45,46
 892 1047 892 1047 896 1118 c 1,47,-1
 896 1146 l 2,0,1
EndSplineSet
EndChar

StartChar: Cacute
Encoding: 262 262 16
Width: 1178
VWidth: 0
Flags: HW
HStem: -36 190<503.275 789.263> 1404 146<531.23 809.296>
VStem: 12 268<435.319 915.375> 897 273<1074.1 1315.61>
LayerCount: 2
Fore
SplineSet
880 992 m 1,0,1
 897 1069.91666667 897 1069.91666667 897 1172.45833333 c 128,-1,2
 897 1275 897 1275 836 1336 c 1,3,4
 778.967741935 1404 778.967741935 1404 670 1404 c 1,5,6
 582 1400 582 1400 504 1344 c 128,-1,7
 426 1288 426 1288 378 1200 c 0,8,9
 299 1057 299 1057 284 792 c 0,10,11
 280 724 280 724 280 714 c 0,12,13
 280 394.096551724 280 394.096551724 443.5 243 c 0,14,15
 539.805970149 154 539.805970149 154 670 154 c 0,16,17
 748 154 748 154 818.5 184.5 c 128,-1,18
 889 215 889 215 950 276 c 128,-1,19
 1011 337 1011 337 1040 384 c 1,20,-1
 1092 306 l 1,21,22
 1067 241 1067 241 1014 176 c 0,23,24
 901 40 901 40 734 -12 c 0,25,26
 656 -36 656 -36 579 -36 c 128,-1,27
 502 -36 502 -36 420 -14 c 1,28,29
 248 39 248 39 135 186.5 c 128,-1,30
 22 334 22 334 12 562 c 1,31,-1
 12 582 l 1,32,33
 10 592 10 592 10 602 c 0,34,35
 10 1007.73049645 10 1007.73049645 274.5 1313.5 c 0,36,37
 479.079754601 1550 479.079754601 1550 756 1550 c 0,38,39
 1031.33333333 1550 1031.33333333 1550 1138 1340 c 1,40,41
 1170 1285 1170 1285 1170 1214 c 2,42,-1
 1170 1200 l 1,43,44
 1169 1129 1169 1129 1123 1069.5 c 128,-1,45
 1077 1010 1077 1010 1024.5 996 c 128,-1,46
 972 982 972 982 941 982 c 128,-1,47
 910 982 910 982 880 992 c 1,0,1
1020 2070 m 1,48,-1
 798 1686 l 1,49,-1
 736 1724 l 1,50,-1
 884 2118 l 1,51,-1
 1020 2070 l 1,48,-1
EndSplineSet
EndChar

StartChar: Ccaron
Encoding: 268 268 17
Width: 1178
VWidth: 0
Flags: HW
HStem: -36 190<503.275 789.263> 1404 146<531.23 809.296>
VStem: 12 268<435.319 915.375> 897 273<1074.1 1315.61>
DStem2: 600 1970 502 1896 0.736873 -0.676031<0 250.267> 792 1796 786 1712 0.690318 0.723506<0 226.544>
LayerCount: 2
Fore
SplineSet
880 992 m 1,0,1
 897 1069.91666667 897 1069.91666667 897 1172.45833333 c 128,-1,2
 897 1275 897 1275 836 1336 c 1,3,4
 778.967741935 1404 778.967741935 1404 670 1404 c 1,5,6
 582 1400 582 1400 504 1344 c 128,-1,7
 426 1288 426 1288 378 1200 c 0,8,9
 299 1057 299 1057 284 792 c 0,10,11
 280 724 280 724 280 714 c 0,12,13
 280 394.096551724 280 394.096551724 443.5 243 c 0,14,15
 539.805970149 154 539.805970149 154 670 154 c 0,16,17
 748 154 748 154 818.5 184.5 c 128,-1,18
 889 215 889 215 950 276 c 128,-1,19
 1011 337 1011 337 1040 384 c 1,20,-1
 1092 306 l 1,21,22
 1067 241 1067 241 1014 176 c 0,23,24
 901 40 901 40 734 -12 c 0,25,26
 656 -36 656 -36 579 -36 c 128,-1,27
 502 -36 502 -36 420 -14 c 1,28,29
 248 39 248 39 135 186.5 c 128,-1,30
 22 334 22 334 12 562 c 1,31,-1
 12 582 l 1,32,33
 10 592 10 592 10 602 c 0,34,35
 10 1007.73049645 10 1007.73049645 274.5 1313.5 c 0,36,37
 479.079754601 1550 479.079754601 1550 756 1550 c 0,38,39
 1031.33333333 1550 1031.33333333 1550 1138 1340 c 1,40,41
 1170 1285 1170 1285 1170 1214 c 2,42,-1
 1170 1200 l 1,43,44
 1169 1129 1169 1129 1123 1069.5 c 128,-1,45
 1077 1010 1077 1010 1024.5 996 c 128,-1,46
 972 982 972 982 941 982 c 128,-1,47
 910 982 910 982 880 992 c 1,0,1
720 1696 m 1,48,-1
 502 1896 l 1,49,-1
 600 1970 l 1,50,-1
 780 1796 l 1,51,-1
 792 1796 l 1,52,-1
 942 1966 l 1,53,-1
 994 1930 l 1,54,-1
 786 1712 l 1,55,-1
 720 1696 l 1,48,-1
EndSplineSet
EndChar

StartChar: Ccedilla
Encoding: 199 199 18
Width: 1178
VWidth: 0
Flags: HW
HStem: -472 21G<513.333 601> 1404 146<531.23 809.717>
VStem: 12 268<435.319 915.375> 600 162<-371.244 -212.843> 897 273<1072.49 1318.2>
LayerCount: 2
Fore
SplineSet
654 -92 m 1,0,1
 762 -185 762 -185 762 -274 c 0,2,3
 762 -400 762 -400 520 -472 c 1,4,-1
 496 -400 l 1,5,6
 600 -364 600 -364 600 -300 c 0,7,8
 600 -251 600 -251 512 -166 c 1,9,-1
 602 -36 l 1,10,-1
 574 -36 l 2,11,12
 502 -36 502 -36 420 -14 c 1,13,14
 248 39 248 39 135 186.5 c 128,-1,15
 22 334 22 334 12 562 c 1,16,-1
 12 582 l 1,17,18
 10 592 10 592 10 602 c 0,19,20
 10 1007.73049645 10 1007.73049645 274.5 1313.5 c 0,21,22
 479.079754601 1550 479.079754601 1550 756 1550 c 0,23,24
 1031.33333333 1550 1031.33333333 1550 1138 1340 c 1,25,26
 1170 1285 1170 1285 1170 1214 c 2,27,-1
 1170 1200 l 1,28,29
 1169 1129 1169 1129 1123 1069.5 c 128,-1,30
 1077 1010 1077 1010 1024.5 996 c 128,-1,31
 972 982 972 982 941 982 c 128,-1,32
 910 982 910 982 880 992 c 1,33,34
 897 1074 897 1074 897 1133 c 128,-1,35
 897 1192 897 1192 887 1242.5 c 0,36,37
 867.859839934 1339.15780833 867.859839934 1339.15780833 760 1388 c 1,38,39
 718 1404 718 1404 650 1402 c 128,-1,40
 582 1400 582 1400 504 1344 c 128,-1,41
 426 1288 426 1288 378 1200 c 0,42,43
 299 1057 299 1057 284 792 c 0,44,45
 280 724 280 724 280 714 c 0,46,47
 280 394.096551724 280 394.096551724 443.5 243 c 0,48,49
 539.805970149 154 539.805970149 154 670 154 c 0,50,51
 748 154 748 154 818.5 184.5 c 128,-1,52
 889 215 889 215 950 276 c 128,-1,53
 1011 337 1011 337 1040 384 c 1,54,-1
 1092 306 l 1,55,56
 1067 241 1067 241 1014 176 c 0,57,58
 901 40 901 40 734 -12 c 0,59,60
 714 -18 714 -18 704 -20 c 1,61,-1
 654 -92 l 1,0,1
EndSplineSet
EndChar

StartChar: Cdotaccent
Encoding: 266 266 19
Width: 1178
VWidth: 0
Flags: HW
HStem: -36 190<503.275 789.263> 1404 146<531.23 809.296> 1694 286<644.75 850>
VStem: 12 268<435.319 915.375> 602 292<1738.25 1938.95> 897 273<1074.1 1315.61>
LayerCount: 2
Fore
SplineSet
880 992 m 1,0,1
 897 1069.91666667 897 1069.91666667 897 1172.45833333 c 128,-1,2
 897 1275 897 1275 836 1336 c 1,3,4
 778.967741935 1404 778.967741935 1404 670 1404 c 1,5,6
 582 1400 582 1400 504 1344 c 128,-1,7
 426 1288 426 1288 378 1200 c 0,8,9
 299 1057 299 1057 284 792 c 0,10,11
 280 724 280 724 280 714 c 0,12,13
 280 394.096551724 280 394.096551724 443.5 243 c 0,14,15
 539.805970149 154 539.805970149 154 670 154 c 0,16,17
 748 154 748 154 818.5 184.5 c 128,-1,18
 889 215 889 215 950 276 c 128,-1,19
 1011 337 1011 337 1040 384 c 1,20,-1
 1092 306 l 1,21,22
 1067 241 1067 241 1014 176 c 0,23,24
 901 40 901 40 734 -12 c 0,25,26
 656 -36 656 -36 579 -36 c 128,-1,27
 502 -36 502 -36 420 -14 c 1,28,29
 248 39 248 39 135 186.5 c 128,-1,30
 22 334 22 334 12 562 c 1,31,-1
 12 582 l 1,32,33
 10 592 10 592 10 602 c 0,34,35
 10 1007.73049645 10 1007.73049645 274.5 1313.5 c 0,36,37
 479.079754601 1550 479.079754601 1550 756 1550 c 0,38,39
 1031.33333333 1550 1031.33333333 1550 1138 1340 c 1,40,41
 1170 1285 1170 1285 1170 1214 c 2,42,-1
 1170 1200 l 1,43,44
 1169 1129 1169 1129 1123 1069.5 c 128,-1,45
 1077 1010 1077 1010 1024.5 996 c 128,-1,46
 972 982 972 982 941 982 c 128,-1,47
 910 982 910 982 880 992 c 1,0,1
850.5 1940 m 128,-1,49
 894 1900 894 1900 894 1840.5 c 128,-1,50
 894 1781 894 1781 850 1737.5 c 128,-1,51
 806 1694 806 1694 746 1694 c 128,-1,52
 686 1694 686 1694 644 1738 c 128,-1,53
 602 1782 602 1782 602 1842 c 128,-1,54
 602 1902 602 1902 644.5 1941 c 128,-1,55
 687 1980 687 1980 747 1980 c 128,-1,48
 807 1980 807 1980 850.5 1940 c 128,-1,49
EndSplineSet
EndChar

StartChar: D
Encoding: 68 68 20
Width: 1718
VWidth: 0
Flags: HW
HStem: 0 132<536 887.379> 0 94<34 90.0407> 1454 92<696.9 1019.81>
VStem: 1460 250<667.478 1061.41>
DStem2: 272.354 0 519.792 0 0.121869 0.992546<163.146 1331.81>
LayerCount: 2
Fore
SplineSet
536 132 m 1,0,1
 1246.75555556 132 1246.75555556 132 1414 556 c 1,2,3
 1460 676 1460 676 1460 830.5 c 128,-1,4
 1460 985 1460 985 1392 1118 c 1,5,6
 1345 1215 1345 1215 1268 1282 c 128,-1,7
 1191 1349 1191 1349 1050.5 1400 c 128,-1,8
 910 1451 910 1451 826 1452.5 c 128,-1,9
 742 1454 742 1454 694 1448 c 1,10,-1
 536 132 l 1,0,1
10 0 m 1,11,-1
 34 94 l 1,12,-1
 292 160 l 1,13,-1
 450 1320 l 1,14,-1
 182 1340 l 1,15,-1
 208 1430 l 1,16,17
 520 1546 520 1546 922 1546 c 0,18,19
 990 1546 990 1546 1010 1544 c 1,20,21
 1344.18153145 1527.89486595 1344.18153145 1527.89486595 1508 1392 c 1,22,23
 1582 1332 1582 1332 1629.5 1247 c 0,24,25
 1710 1102.94736842 1710 1102.94736842 1710 930 c 0,26,27
 1710 887 1710 887 1704 842 c 1,28,29
 1670.74227663 519.815804813 1670.74227663 519.815804813 1421.5 289 c 0,30,31
 1190.4927006 75.0710612597 1190.4927006 75.0710612597 839.5 22 c 0,32,33
 694 0 694 0 416 0 c 2,34,-1
 10 0 l 1,11,-1
EndSplineSet
EndChar

StartChar: Dcaron
Encoding: 270 270 21
Width: 1718
VWidth: 0
Flags: HW
HStem: 0 132<536 887.379> 0 94<34 90.0407> 1454 92<695.5 1019.36>
VStem: 1460 250<668.908 1061.25>
DStem2: 272.354 0 519.792 0 0.121869 0.992546<163.146 1331.81> 950 1954 852 1880 0.736873 -0.676031<0 250.267> 1142 1780 1136 1696 0.690318 0.723506<0 226.544>
LayerCount: 2
Fore
SplineSet
536 132 m 1,0,1
 548 132 l 1,2,3
 554 130 554 130 591.5 130 c 128,-1,4
 629 130 629 130 736 140 c 0,5,6
 994 164 994 164 1168.5 270 c 128,-1,7
 1343 376 1343 376 1414 556 c 1,8,9
 1460 676 1460 676 1460 830.5 c 128,-1,10
 1460 985 1460 985 1392 1118 c 1,11,12
 1345 1215 1345 1215 1268 1282 c 128,-1,13
 1191 1349 1191 1349 1050.5 1400 c 128,-1,14
 910 1451 910 1451 826 1452.5 c 128,-1,15
 742 1454 742 1454 694 1448 c 1,16,-1
 536 132 l 1,0,1
10 0 m 1,17,-1
 34 94 l 1,18,-1
 292 160 l 1,19,-1
 450 1320 l 1,20,-1
 182 1340 l 1,21,-1
 208 1432 l 1,22,23
 514.111111111 1546 514.111111111 1546 918 1546 c 2,24,-1
 1010 1546 l 1,25,26
 1340 1533 1340 1533 1508 1392 c 1,27,28
 1582 1332 1582 1332 1629.5 1247 c 0,29,30
 1710 1102.94736842 1710 1102.94736842 1710 930 c 0,31,32
 1710 884 1710 884 1704 842 c 1,33,34
 1670.74227663 519.815804813 1670.74227663 519.815804813 1421.5 289 c 0,35,36
 1190.4927006 75.0710612597 1190.4927006 75.0710612597 839.5 22 c 0,37,38
 694 0 694 0 416 0 c 2,39,-1
 10 0 l 1,17,-1
1070 1680 m 1,40,-1
 852 1880 l 1,41,-1
 950 1954 l 1,42,-1
 1130 1780 l 1,43,-1
 1142 1780 l 1,44,-1
 1292 1950 l 1,45,-1
 1344 1914 l 1,46,-1
 1136 1696 l 1,47,-1
 1070 1680 l 1,40,-1
EndSplineSet
EndChar

StartChar: Dcroat
Encoding: 272 272 22
Width: 1608
VWidth: 0
Flags: HW
HStem: 0 132<536 887.379> 0 94<34 90.0407> 662 122<190 362> 682 120<616 894> 1454 92<695.5 1019.81>
VStem: 1460 250<668.908 1061.25>
DStem2: 272.354 0 519.792 0 0.121869 0.992546<163.146 675.931 837.902 837.902>
LayerCount: 2
Fore
SplineSet
602 682 m 1,0,-1
 536 132 l 1,1,2
 548 132 l 1,3,4
 554 130 554 130 591.5 130 c 128,-1,5
 629 130 629 130 736 140 c 0,6,7
 994 164 994 164 1168.5 270 c 128,-1,8
 1343 376 1343 376 1414 556 c 1,9,10
 1460 676 1460 676 1460 830.5 c 128,-1,11
 1460 985 1460 985 1392 1118 c 1,12,13
 1345 1215 1345 1215 1268 1282 c 128,-1,14
 1191 1349 1191 1349 1050.5 1400 c 128,-1,15
 910 1451 910 1451 826 1452.5 c 128,-1,16
 742 1454 742 1454 694 1448 c 1,17,-1
 616 802 l 1,18,-1
 928 816 l 1,19,-1
 894 694 l 1,20,-1
 602 682 l 1,0,-1
10 0 m 1,21,-1
 34 94 l 1,22,-1
 292 160 l 1,23,-1
 362 670 l 1,24,-1
 158 662 l 1,25,-1
 190 784 l 1,26,-1
 378 792 l 1,27,-1
 450 1320 l 1,28,-1
 182 1340 l 1,29,-1
 208 1432 l 1,30,31
 514.111111111 1546 514.111111111 1546 916 1546 c 0,32,33
 990 1546 990 1546 1010 1544 c 1,34,35
 1344.18153145 1527.89486595 1344.18153145 1527.89486595 1508 1392 c 1,36,37
 1582 1332 1582 1332 1629.5 1247 c 0,38,39
 1710 1102.94736842 1710 1102.94736842 1710 930 c 0,40,41
 1710 884 1710 884 1704 842 c 1,42,43
 1670.74227663 519.815804813 1670.74227663 519.815804813 1421.5 289 c 0,44,45
 1190.4927006 75.0710612597 1190.4927006 75.0710612597 839.5 22 c 0,46,47
 694 0 694 0 416 0 c 2,48,-1
 10 0 l 1,21,-1
EndSplineSet
EndChar

StartChar: E
Encoding: 69 69 23
Width: 1490
VWidth: 0
Flags: HW
HStem: -4 102<38 94.9224> 4 116<544 1119.43> 704 178<1006.17 1156> 1380 94<206 325.36> 1414 134<704 1219.12>
VStem: 1274 106<1048 1104.83> 1296 108<438.116 544>
DStem2: 287.127 -4 528.775 -4 0.121869 0.992546<171.277 753.215 880.226 1367.2>
LayerCount: 2
Fore
SplineSet
1308 0 m 1,0,1
 624 4 624 4 544 4 c 1,2,-1
 10 -4 l 1,3,-1
 38 98 l 1,4,-1
 308 166 l 1,5,-1
 462 1352 l 1,6,-1
 182 1380 l 1,7,-1
 206 1474 l 1,8,9
 351 1502 351 1502 618 1525 c 128,-1,10
 885 1548 885 1548 1112 1548 c 1,11,-1
 1480 1540 l 1,12,-1
 1380 1032 l 1,13,-1
 1274 1048 l 1,14,-1
 1236 1372 l 1,15,-1
 1200 1380 l 1,16,17
 1024 1414 1024 1414 744 1414 c 2,18,-1
 704 1414 l 1,19,-1
 636 840 l 1,20,-1
 1198 882 l 1,21,-1
 1156 704 l 1,22,-1
 620 714 l 1,23,-1
 544 120 l 1,24,-1
 812 134 l 2,25,26
 1040 146 1040 146 1122 164 c 1,27,28
 1164 231 1164 231 1221 360.5 c 128,-1,29
 1278 490 1278 490 1296 558 c 1,30,-1
 1404 544 l 1,31,-1
 1404 536 l 2,32,33
 1404 371 1404 371 1378.5 224 c 128,-1,34
 1353 77 1353 77 1308 0 c 1,0,1
EndSplineSet
EndChar

StartChar: Eacute
Encoding: 201 201 24
Width: 1490
VWidth: 0
Flags: HW
HStem: -4 102<38 94.9224> 4 118<544 1119.43> 704 176<996.579 1156> 1380 96<206 325.36> 1414 132<711.944 1216.88>
VStem: 1274 106<1048 1104.83> 1296 108<438.116 544>
DStem2: 287.127 -4 528.529 -4 0.121869 0.992546<171.277 753.215 880.226 1367.2>
LayerCount: 2
Fore
SplineSet
1308 0 m 1,0,1
 624 4 624 4 544 4 c 1,2,-1
 10 -4 l 1,3,-1
 38 98 l 1,4,-1
 308 166 l 1,5,-1
 462 1352 l 1,6,-1
 182 1380 l 1,7,-1
 206 1476 l 1,8,9
 343 1503 343 1503 610 1524.5 c 128,-1,10
 877 1546 877 1546 1112 1546 c 2,11,-1
 1204 1546 l 1,12,-1
 1480 1540 l 1,13,-1
 1380 1032 l 1,14,-1
 1274 1048 l 1,15,-1
 1236 1372 l 1,16,-1
 1200 1380 l 1,17,18
 1011 1414 1011 1414 744 1414 c 2,19,-1
 704 1414 l 1,20,-1
 636 840 l 1,21,-1
 1198 880 l 1,22,-1
 1156 704 l 1,23,-1
 620 714 l 1,24,-1
 544 122 l 1,25,-1
 812 134 l 1,26,27
 1040 146 1040 146 1122 164 c 1,28,29
 1164 231 1164 231 1221 360.5 c 128,-1,30
 1278 490 1278 490 1296 558 c 1,31,-1
 1404 544 l 1,32,-1
 1404 536 l 2,33,34
 1404 371 1404 371 1378.5 224 c 128,-1,35
 1353 77 1353 77 1308 0 c 1,0,1
1260 2054 m 1,36,-1
 1038 1670 l 1,37,-1
 976 1708 l 1,38,-1
 1124 2102 l 1,39,-1
 1260 2054 l 1,36,-1
EndSplineSet
EndChar

StartChar: Ecaron
Encoding: 282 282 25
Width: 1490
VWidth: 0
Flags: HW
HStem: -4 102<38 94.9224> 4 118<544 1119.43> 704 176<996.579 1156> 1380 96<206 325.36> 1414 132<711.944 1216.88>
VStem: 1274 106<1048 1104.83> 1296 108<438.116 544>
DStem2: 287.127 -4 528.529 -4 0.121869 0.992546<171.277 753.215 880.226 1367.2> 840 1954 742 1880 0.736873 -0.676031<0 250.267> 1032 1780 1026 1696 0.690318 0.723506<0 226.544>
LayerCount: 2
Fore
SplineSet
1308 0 m 1,0,1
 624 4 624 4 544 4 c 1,2,-1
 10 -4 l 1,3,-1
 38 98 l 1,4,-1
 308 166 l 1,5,-1
 462 1352 l 1,6,-1
 182 1380 l 1,7,-1
 206 1476 l 1,8,9
 343 1503 343 1503 610 1524.5 c 128,-1,10
 877 1546 877 1546 1112 1546 c 2,11,-1
 1204 1546 l 1,12,-1
 1480 1540 l 1,13,-1
 1380 1032 l 1,14,-1
 1274 1048 l 1,15,-1
 1236 1372 l 1,16,-1
 1200 1380 l 1,17,18
 1011 1414 1011 1414 744 1414 c 2,19,-1
 704 1414 l 1,20,-1
 636 840 l 1,21,-1
 1198 880 l 1,22,-1
 1156 704 l 1,23,-1
 620 714 l 1,24,-1
 544 122 l 1,25,-1
 812 134 l 1,26,27
 1040 146 1040 146 1122 164 c 1,28,29
 1164 231 1164 231 1221 360.5 c 128,-1,30
 1278 490 1278 490 1296 558 c 1,31,-1
 1404 544 l 1,32,-1
 1404 536 l 2,33,34
 1404 371 1404 371 1378.5 224 c 128,-1,35
 1353 77 1353 77 1308 0 c 1,0,1
960 1680 m 1,36,-1
 742 1880 l 1,37,-1
 840 1954 l 1,38,-1
 1020 1780 l 1,39,-1
 1032 1780 l 1,40,-1
 1182 1950 l 1,41,-1
 1234 1914 l 1,42,-1
 1026 1696 l 1,43,-1
 960 1680 l 1,36,-1
EndSplineSet
EndChar

StartChar: Ecircumflex
Encoding: 202 202 26
Width: 1490
VWidth: 0
Flags: HW
HStem: -4 102<38 94.9224> 4 118<544 1119.43> 704 176<996.579 1156> 1380 96<206 325.36> 1414 132<711.944 1216.88>
VStem: 1274 106<1048 1104.83> 1296 108<438.116 544>
DStem2: 287.127 -4 528.529 -4 0.121869 0.992546<171.277 753.215 880.226 1367.2>
LayerCount: 2
Fore
SplineSet
1308 0 m 1,0,1
 624 4 624 4 544 4 c 1,2,-1
 10 -4 l 1,3,-1
 38 98 l 1,4,-1
 308 166 l 1,5,-1
 462 1352 l 1,6,-1
 182 1380 l 1,7,-1
 206 1476 l 1,8,9
 343 1503 343 1503 610 1524.5 c 128,-1,10
 877 1546 877 1546 1112 1546 c 2,11,-1
 1204 1546 l 1,12,-1
 1480 1540 l 1,13,-1
 1380 1032 l 1,14,-1
 1274 1048 l 1,15,-1
 1236 1372 l 1,16,-1
 1200 1380 l 1,17,18
 1011 1414 1011 1414 744 1414 c 2,19,-1
 704 1414 l 1,20,-1
 636 840 l 1,21,-1
 1198 880 l 1,22,-1
 1156 704 l 1,23,-1
 620 714 l 1,24,-1
 544 122 l 1,25,-1
 812 134 l 1,26,27
 1040 146 1040 146 1122 164 c 1,28,29
 1164 231 1164 231 1221 360.5 c 128,-1,30
 1278 490 1278 490 1296 558 c 1,31,-1
 1404 544 l 1,32,-1
 1404 536 l 2,33,34
 1404 371 1404 371 1378.5 224 c 128,-1,35
 1353 77 1353 77 1308 0 c 1,0,1
1014 1950 m 1,36,-1
 1230 1726 l 1,37,-1
 1170 1682 l 1,38,-1
 972 1814 l 1,39,-1
 960 1814 l 1,40,-1
 790 1680 l 1,41,-1
 744 1716 l 1,42,-1
 948 1934 l 1,43,-1
 1014 1950 l 1,36,-1
EndSplineSet
EndChar

StartChar: Edieresis
Encoding: 203 203 27
Width: 1490
VWidth: 0
Flags: HW
HStem: -4 102<38 94.9224> 4 118<544 1119.43> 704 176<996.579 1156> 1380 96<206 325.36> 1414 132<711.944 1216.88> 1712 192<738.648 911.259 1062.65 1236.67>
VStem: 722 206<1729 1886.53> 1046 208<1730.33 1885.94> 1274 106<1048 1104.83> 1296 108<438.116 544>
DStem2: 287.127 -4 528.529 -4 0.121869 0.992546<171.277 753.215 880.226 1367.2>
LayerCount: 2
Fore
SplineSet
1308 0 m 1,0,1
 624 4 624 4 544 4 c 1,2,-1
 10 -4 l 1,3,-1
 38 98 l 1,4,-1
 308 166 l 1,5,-1
 462 1352 l 1,6,-1
 182 1380 l 1,7,-1
 206 1476 l 1,8,9
 343 1503 343 1503 610 1524.5 c 128,-1,10
 877 1546 877 1546 1112 1546 c 2,11,-1
 1204 1546 l 1,12,-1
 1480 1540 l 1,13,-1
 1380 1032 l 1,14,-1
 1274 1048 l 1,15,-1
 1236 1372 l 1,16,-1
 1200 1380 l 1,17,18
 1011 1414 1011 1414 744 1414 c 2,19,-1
 704 1414 l 1,20,-1
 636 840 l 1,21,-1
 1198 880 l 1,22,-1
 1156 704 l 1,23,-1
 620 714 l 1,24,-1
 544 122 l 1,25,-1
 812 134 l 1,26,27
 1040 146 1040 146 1122 164 c 1,28,29
 1164 231 1164 231 1221 360.5 c 128,-1,30
 1278 490 1278 490 1296 558 c 1,31,-1
 1404 544 l 1,32,-1
 1404 536 l 2,33,34
 1404 371 1404 371 1378.5 224 c 128,-1,35
 1353 77 1353 77 1308 0 c 1,0,1
1222.5 1877 m 128,-1,37
 1254 1850 1254 1850 1254 1809 c 128,-1,38
 1254 1768 1254 1768 1222.5 1740 c 128,-1,39
 1191 1712 1191 1712 1148.5 1712 c 128,-1,40
 1106 1712 1106 1712 1076 1740 c 128,-1,41
 1046 1768 1046 1768 1046 1809.5 c 128,-1,42
 1046 1851 1046 1851 1076 1877.5 c 128,-1,43
 1106 1904 1106 1904 1148.5 1904 c 128,-1,36
 1191 1904 1191 1904 1222.5 1877 c 128,-1,37
897.5 1877 m 128,-1,45
 928 1850 928 1850 928 1808.5 c 128,-1,46
 928 1767 928 1767 897.5 1739.5 c 128,-1,47
 867 1712 867 1712 824.5 1712 c 128,-1,48
 782 1712 782 1712 752 1740 c 128,-1,49
 722 1768 722 1768 722 1809.5 c 128,-1,50
 722 1851 722 1851 752 1877.5 c 128,-1,51
 782 1904 782 1904 824.5 1904 c 128,-1,44
 867 1904 867 1904 897.5 1877 c 128,-1,45
EndSplineSet
EndChar

StartChar: Edotaccent
Encoding: 278 278 28
Width: 1490
VWidth: 0
Flags: HW
HStem: -4 102<38 94.9224> 4 118<544 1119.43> 704 176<996.579 1156> 1380 96<206 325.36> 1414 132<711.944 1216.88> 1678 286<884.75 1090>
VStem: 842 292<1722.25 1922.95> 1274 106<1048 1104.83> 1296 108<438.116 544>
DStem2: 287.127 -4 528.529 -4 0.121869 0.992546<171.277 753.215 880.226 1367.2>
LayerCount: 2
Fore
SplineSet
1308 0 m 1,0,1
 624 4 624 4 544 4 c 1,2,-1
 10 -4 l 1,3,-1
 38 98 l 1,4,-1
 308 166 l 1,5,-1
 462 1352 l 1,6,-1
 182 1380 l 1,7,-1
 206 1476 l 1,8,9
 343 1503 343 1503 610 1524.5 c 128,-1,10
 877 1546 877 1546 1112 1546 c 2,11,-1
 1204 1546 l 1,12,-1
 1480 1540 l 1,13,-1
 1380 1032 l 1,14,-1
 1274 1048 l 1,15,-1
 1236 1372 l 1,16,-1
 1200 1380 l 1,17,18
 1011 1414 1011 1414 744 1414 c 2,19,-1
 704 1414 l 1,20,-1
 636 840 l 1,21,-1
 1198 880 l 1,22,-1
 1156 704 l 1,23,-1
 620 714 l 1,24,-1
 544 122 l 1,25,-1
 812 134 l 1,26,27
 1040 146 1040 146 1122 164 c 1,28,29
 1164 231 1164 231 1221 360.5 c 128,-1,30
 1278 490 1278 490 1296 558 c 1,31,-1
 1404 544 l 1,32,-1
 1404 536 l 2,33,34
 1404 371 1404 371 1378.5 224 c 128,-1,35
 1353 77 1353 77 1308 0 c 1,0,1
1090.5 1924 m 128,-1,37
 1134 1884 1134 1884 1134 1824.5 c 128,-1,38
 1134 1765 1134 1765 1090 1721.5 c 128,-1,39
 1046 1678 1046 1678 986 1678 c 128,-1,40
 926 1678 926 1678 884 1722 c 128,-1,41
 842 1766 842 1766 842 1826 c 128,-1,42
 842 1886 842 1886 884.5 1925 c 128,-1,43
 927 1964 927 1964 987 1964 c 128,-1,36
 1047 1964 1047 1964 1090.5 1924 c 128,-1,37
EndSplineSet
EndChar

StartChar: Egrave
Encoding: 200 200 29
Width: 1490
VWidth: 0
Flags: HW
HStem: -4 102<38 94.9224> 4 118<544 1119.43> 704 176<996.579 1156> 1380 96<206 325.36> 1414 132<711.944 1216.88>
VStem: 1274 106<1048 1104.83> 1296 108<438.116 544>
DStem2: 287.127 -4 528.529 -4 0.121869 0.992546<171.277 753.215 880.226 1367.2>
LayerCount: 2
Fore
SplineSet
1308 0 m 1,0,1
 624 4 624 4 544 4 c 1,2,-1
 10 -4 l 1,3,-1
 38 98 l 1,4,-1
 308 166 l 1,5,-1
 462 1352 l 1,6,-1
 182 1380 l 1,7,-1
 206 1476 l 1,8,9
 343 1503 343 1503 610 1524.5 c 128,-1,10
 877 1546 877 1546 1112 1546 c 2,11,-1
 1204 1546 l 1,12,-1
 1480 1540 l 1,13,-1
 1380 1032 l 1,14,-1
 1274 1048 l 1,15,-1
 1236 1372 l 1,16,-1
 1200 1380 l 1,17,18
 1011 1414 1011 1414 744 1414 c 2,19,-1
 704 1414 l 1,20,-1
 636 840 l 1,21,-1
 1198 880 l 1,22,-1
 1156 704 l 1,23,-1
 620 714 l 1,24,-1
 544 122 l 1,25,-1
 812 134 l 1,26,27
 1040 146 1040 146 1122 164 c 1,28,29
 1164 231 1164 231 1221 360.5 c 128,-1,30
 1278 490 1278 490 1296 558 c 1,31,-1
 1404 544 l 1,32,-1
 1404 536 l 2,33,34
 1404 371 1404 371 1378.5 224 c 128,-1,35
 1353 77 1353 77 1308 0 c 1,0,1
740 2046 m 1,36,-1
 880 2092 l 1,37,-1
 1040 1688 l 1,38,-1
 970 1646 l 1,39,-1
 740 2046 l 1,36,-1
EndSplineSet
EndChar

StartChar: Emacron
Encoding: 274 274 30
Width: 1490
VWidth: 0
Flags: HW
HStem: -4 102<38 94.9224> 4 118<544 1119.43> 704 176<996.579 1156> 1380 96<206 325.36> 1414 132<711.944 1216.88> 1706 122<738 1256>
VStem: 1274 106<1048 1104.83> 1296 108<438.116 544>
DStem2: 287.127 -4 528.529 -4 0.121869 0.992546<171.277 753.215 880.226 1367.2>
LayerCount: 2
Fore
SplineSet
1308 0 m 1,0,1
 624 4 624 4 544 4 c 1,2,-1
 10 -4 l 1,3,-1
 38 98 l 1,4,-1
 308 166 l 1,5,-1
 462 1352 l 1,6,-1
 182 1380 l 1,7,-1
 206 1476 l 1,8,9
 343 1503 343 1503 610 1524.5 c 128,-1,10
 877 1546 877 1546 1112 1546 c 2,11,-1
 1204 1546 l 1,12,-1
 1480 1540 l 1,13,-1
 1380 1032 l 1,14,-1
 1274 1048 l 1,15,-1
 1236 1372 l 1,16,-1
 1200 1380 l 1,17,18
 1011 1414 1011 1414 744 1414 c 2,19,-1
 704 1414 l 1,20,-1
 636 840 l 1,21,-1
 1198 880 l 1,22,-1
 1156 704 l 1,23,-1
 620 714 l 1,24,-1
 544 122 l 1,25,-1
 812 134 l 1,26,27
 1040 146 1040 146 1122 164 c 1,28,29
 1164 231 1164 231 1221 360.5 c 128,-1,30
 1278 490 1278 490 1296 558 c 1,31,-1
 1404 544 l 1,32,-1
 1404 536 l 2,33,34
 1404 371 1404 371 1378.5 224 c 128,-1,35
 1353 77 1353 77 1308 0 c 1,0,1
738 1828 m 1,36,-1
 1272 1828 l 1,37,-1
 1256 1706 l 1,38,-1
 722 1706 l 1,39,-1
 738 1828 l 1,36,-1
EndSplineSet
EndChar

StartChar: Eng
Encoding: 330 330 31
Width: 1806
VWidth: 0
Flags: HW
HStem: -468 190<963.113 1163.22> -36 21G<155 237> 1386 100<186 198.623 1178 1261.54> 1442 94<1784.45 1838> 1524 20G<651 702.385 1667 1705>
VStem: 434 128<858.096 1238>
DStem2: 800 1334 568 1238 0.471452 -0.881892<-24.7152 1132.01> 1338 338 1466 202 0.0852912 0.996356<0 1031.76>
LayerCount: 2
Fore
SplineSet
868 -160 m 1,0,1
 989.765957447 -278 989.765957447 -278 1114 -278 c 0,2,3
 1155 -278 1155 -278 1176 -266 c 1,4,5
 1222.01652893 -245.867768595 1222.01652893 -245.867768595 1230 -182 c 1,6,7
 1239 -146 1239 -146 1248 -34 c 1,8,-1
 568 1238 l 1,9,-1
 562 1238 l 1,10,-1
 538 602 l 2,11,12
 530 406 530 406 504 295 c 128,-1,13
 478 184 478 184 394 74 c 128,-1,14
 310 -36 310 -36 198 -36 c 2,15,-1
 190 -36 l 1,16,17
 83 -27 83 -27 34 64 c 1,18,19
 17 102 17 102 12 128 c 1,20,21
 82 158 82 158 136 196 c 128,-1,22
 190 234 190 234 259.5 321 c 128,-1,23
 329 408 329 408 380 590 c 1,24,25
 425 773 425 773 431.5 1034.5 c 128,-1,26
 438 1296 438 1296 438 1326 c 1,27,-1
 160 1392 l 1,28,-1
 186 1486 l 1,29,30
 359 1520 359 1520 470 1529.5 c 128,-1,31
 581 1539 581 1539 692 1542 c 1,32,-1
 800 1334 l 1,33,-1
 1338 338 l 1,34,-1
 1426 1366 l 1,35,-1
 1144 1386 l 1,36,-1
 1178 1486 l 1,37,38
 1444.48648649 1544 1444.48648649 1544 1686 1544 c 0,39,40
 1757 1544 1757 1544 1864 1536 c 1,41,-1
 1838 1442 l 1,42,-1
 1584 1374 l 1,43,44
 1476 294 1476 294 1457.5 127.5 c 128,-1,45
 1439 -39 1439 -39 1414 -127.5 c 0,46,47
 1371.45205115 -278.119738945 1371.45205115 -278.119738945 1232 -384 c 1,48,49
 1106 -468 1106 -468 988 -468 c 2,50,-1
 974 -468 l 1,51,52
 842.395604396 -457.032967033 842.395604396 -457.032967033 806 -362 c 1,53,54
 796 -332 796 -332 796 -308 c 2,55,-1
 796 -296 l 1,56,57
 798 -266 798 -266 817.5 -227.5 c 128,-1,58
 837 -189 837 -189 868 -160 c 1,0,1
EndSplineSet
EndChar

StartChar: Eogonek
Encoding: 280 280 32
Width: 1490
VWidth: 0
Flags: HW
HStem: -452 62<1344.79 1355.71> -4 102<38 94.9224> 4 118<544 1119.43> 704 176<996.579 1156> 1380 96<206 325.36> 1414 132<711.944 1216.88>
VStem: 1058 180<-299.306 -108.69> 1274 106<1048 1104.83> 1296 108<438.116 544>
DStem2: 232.119 -452 473.522 -452 0.121869 0.992546<622.641 1204.58 1331.59 1818.57>
LayerCount: 2
Fore
SplineSet
1204 0 m 1,0,-1
 544 4 l 1,1,-1
 10 -4 l 1,2,-1
 38 98 l 1,3,-1
 308 166 l 1,4,-1
 462 1352 l 1,5,-1
 182 1380 l 1,6,-1
 206 1476 l 1,7,8
 343 1503 343 1503 610 1524.5 c 128,-1,9
 877 1546 877 1546 1112 1546 c 2,10,-1
 1204 1546 l 1,11,-1
 1480 1540 l 1,12,-1
 1380 1032 l 1,13,-1
 1274 1048 l 1,14,-1
 1236 1372 l 1,15,-1
 1200 1380 l 1,16,17
 1011 1414 1011 1414 744 1414 c 2,18,-1
 704 1414 l 1,19,-1
 636 840 l 1,20,-1
 1198 880 l 1,21,-1
 1156 704 l 1,22,-1
 620 714 l 1,23,-1
 544 122 l 1,24,-1
 812 134 l 1,25,26
 1040 146 1040 146 1122 164 c 1,27,28
 1164 231 1164 231 1221 360.5 c 128,-1,29
 1278 490 1278 490 1296 558 c 1,30,-1
 1404 544 l 1,31,-1
 1404 536 l 2,32,33
 1404 371 1404 371 1378.5 224 c 128,-1,34
 1353 77 1353 77 1308 0 c 1,35,-1
 1300 0 l 1,36,37
 1238 -106 1238 -106 1238 -164 c 0,38,39
 1238 -303 1238 -303 1388 -390 c 1,40,-1
 1346 -452 l 1,41,42
 1219 -439 1219 -439 1138.5 -377.5 c 128,-1,43
 1058 -316 1058 -316 1058 -248 c 128,-1,44
 1058 -180 1058 -180 1088.5 -128 c 128,-1,45
 1119 -76 1119 -76 1204 0 c 1,0,-1
EndSplineSet
EndChar

StartChar: Eth
Encoding: 208 208 33
Width: 1608
VWidth: 0
Flags: HW
HStem: 0 132<536 887.379> 0 94<34 90.0407> 662 122<190 362> 682 120<616 894> 1454 92<695.5 1019.81>
VStem: 1460 250<668.908 1061.25>
DStem2: 272.354 0 519.792 0 0.121869 0.992546<163.146 675.931 837.902 837.902>
LayerCount: 2
Fore
SplineSet
602 682 m 1,0,-1
 536 132 l 1,1,2
 548 132 l 1,3,4
 554 130 554 130 591.5 130 c 128,-1,5
 629 130 629 130 736 140 c 0,6,7
 994 164 994 164 1168.5 270 c 128,-1,8
 1343 376 1343 376 1414 556 c 1,9,10
 1460 676 1460 676 1460 830.5 c 128,-1,11
 1460 985 1460 985 1392 1118 c 1,12,13
 1345 1215 1345 1215 1268 1282 c 128,-1,14
 1191 1349 1191 1349 1050.5 1400 c 128,-1,15
 910 1451 910 1451 826 1452.5 c 128,-1,16
 742 1454 742 1454 694 1448 c 1,17,-1
 616 802 l 1,18,-1
 928 816 l 1,19,-1
 894 694 l 1,20,-1
 602 682 l 1,0,-1
10 0 m 1,21,-1
 34 94 l 1,22,-1
 292 160 l 1,23,-1
 362 670 l 1,24,-1
 158 662 l 1,25,-1
 190 784 l 1,26,-1
 378 792 l 1,27,-1
 450 1320 l 1,28,-1
 182 1340 l 1,29,-1
 208 1432 l 1,30,31
 514.111111111 1546 514.111111111 1546 916 1546 c 0,32,33
 990 1546 990 1546 1010 1544 c 1,34,35
 1344.18153145 1527.89486595 1344.18153145 1527.89486595 1508 1392 c 1,36,37
 1582 1332 1582 1332 1629.5 1247 c 0,38,39
 1710 1102.94736842 1710 1102.94736842 1710 930 c 0,40,41
 1710 884 1710 884 1704 842 c 1,42,43
 1670.74227663 519.815804813 1670.74227663 519.815804813 1421.5 289 c 0,44,45
 1190.4927006 75.0710612597 1190.4927006 75.0710612597 839.5 22 c 0,46,47
 694 0 694 0 416 0 c 2,48,-1
 10 0 l 1,21,-1
EndSplineSet
EndChar

StartChar: Euro
Encoding: 8364 8364 34
Width: 1346
VWidth: 0
Flags: HW
HStem: -30 132<627.35 979.719> 588 128<58 144 414 970> 800 128<92 166 444 1052> 1422 116<730.974 1089.99>
VStem: 144 268<357.427 588 716 799.149> 200 244<928 1038.03> 1136 108<429.495 476> 1184 104<1030 1079.49>
LayerCount: 2
Fore
SplineSet
1136 476 m 1,0,-1
 1244 492 l 1,1,-1
 1238 134 l 1,2,3
 1114 44 1114 44 1001.5 7 c 128,-1,4
 889 -30 889 -30 740 -30 c 0,5,6
 473 -30 473 -30 308.5 134.5 c 128,-1,7
 144 299 144 299 144 584 c 2,8,-1
 144 588 l 1,9,-1
 20 588 l 1,10,-1
 58 716 l 1,11,-1
 152 716 l 1,12,13
 163 789 163 789 166 800 c 1,14,-1
 54 800 l 1,15,-1
 92 928 l 1,16,-1
 200 928 l 1,17,18
 282 1175 282 1175 464 1348 c 0,19,20
 560 1438 560 1438 696.5 1488 c 128,-1,21
 833 1538 833 1538 992 1538 c 0,22,23
 1230 1538 1230 1538 1376 1416 c 1,24,-1
 1288 1014 l 1,25,-1
 1184 1030 l 1,26,-1
 1166 1296 l 1,27,28
 1122 1362 1122 1362 1066 1392 c 128,-1,29
 1010 1422 1010 1422 908 1422 c 0,30,31
 741 1422 741 1422 618.5 1292 c 128,-1,32
 496 1162 496 1162 444 928 c 1,33,-1
 1104 928 l 1,34,-1
 1052 800 l 1,35,-1
 422 800 l 1,36,-1
 422 798 l 1,37,38
 414 747 414 747 414 716 c 1,39,-1
 1022 716 l 1,40,-1
 970 588 l 1,41,-1
 412 588 l 1,42,43
 419 355 419 355 526 228.5 c 128,-1,44
 633 102 633 102 816 102 c 0,45,46
 961 102 961 102 1054 210 c 1,47,-1
 1136 476 l 1,0,-1
EndSplineSet
EndChar

StartChar: F
Encoding: 70 70 35
Width: 1490
VWidth: 0
Flags: HW
HStem: -2 100<38 94.9224 743.803 836> 664 124<634 836.138> 1380 94<206 325.36> 1414 134<704 1184.05>
VStem: 1264 116<1028 1087.69>
DStem2: 287.372 -2 535.056 -2 0.121869 0.992546<169.262 701.329 826.355 1365.19>
LayerCount: 2
Fore
SplineSet
1112 1548 m 1,0,-1
 1480 1540 l 1,1,-1
 1380 1012 l 1,2,-1
 1264 1028 l 1,3,-1
 1228 1362 l 1,4,-1
 1190 1368 l 1,5,6
 1018 1398 1018 1398 780 1412 c 1,7,-1
 704 1414 l 1,8,-1
 634 788 l 1,9,-1
 1198 828 l 1,10,-1
 1156 642 l 1,11,-1
 618 664 l 1,12,-1
 552 136 l 1,13,-1
 860 98 l 1,14,-1
 836 -2 l 1,15,-1
 10 -2 l 1,16,-1
 38 98 l 1,17,-1
 308 166 l 1,18,-1
 462 1352 l 1,19,-1
 182 1380 l 1,20,-1
 206 1474 l 1,21,22
 351 1502 351 1502 618 1525 c 128,-1,23
 885 1548 885 1548 1112 1548 c 1,0,-1
EndSplineSet
EndChar

StartChar: G
Encoding: 71 71 36
Width: 1532
VWidth: 0
Flags: HW
HStem: -40 134<605.27 1025.82> 1440 124<658.614 1115.79>
VStem: 12 280<448.66 927.653> 1246 122<1060 1111.93>
DStem2: 1024.43 -40 1265.83 -40 0.121869 0.992546<162.546 584.156>
LayerCount: 2
Fore
SplineSet
1368 1042 m 1,0,-1
 1260 1060 l 1,1,-1
 1246 1298 l 1,2,3
 1206 1360 1206 1360 1105.5 1400 c 128,-1,4
 1005 1440 1005 1440 858 1440 c 0,5,6
 635 1440 635 1440 472 1286 c 0,7,8
 387 1205 387 1205 339.5 1065.5 c 128,-1,9
 292 926 292 926 292 744 c 2,10,-1
 292 668 l 1,11,12
 304 414 304 414 442.5 254 c 128,-1,13
 581 94 581 94 814 94 c 0,14,15
 978 94 978 94 1048 152 c 1,16,-1
 1094 540 l 1,17,-1
 808 586 l 1,18,-1
 834 688 l 1,19,-1
 1524 688 l 1,20,-1
 1498 596 l 1,21,-1
 1336 544 l 1,22,-1
 1284 108 l 1,23,24
 1057 -40 1057 -40 648 -40 c 0,25,26
 452 -40 452 -40 309.5 40.5 c 0,27,28
 28.6525641533 199.154165513 28.6525641533 199.154165513 12 578 c 1,29,-1
 12 608 l 1,30,31
 10 620 10 620 10 636 c 0,32,33
 10 802 10 802 62.5 953 c 128,-1,34
 115 1104 115 1104 208 1216 c 0,35,36
 394 1441 394 1441 668 1524 c 0,37,38
 803 1564 803 1564 936 1564 c 0,39,40
 1280 1564 1280 1564 1450 1442 c 1,41,-1
 1368 1042 l 1,0,-1
EndSplineSet
EndChar

StartChar: Gbreve
Encoding: 286 286 37
Width: 1532
VWidth: 0
Flags: HW
HStem: -40 134<605.273 1025.82> 1440 124<658.138 1115.79> 1700 132<927.131 1168.74>
VStem: 12 280<448.66 927.653> 816 66<1887.71 1925.73> 1246 122<1060 1111.93>
DStem2: 1024.43 -40 1265.83 -40 0.121869 0.992546<162.546 584.156>
LayerCount: 2
Fore
SplineSet
1368 1042 m 1,0,-1
 1260 1060 l 1,1,-1
 1246 1298 l 1,2,3
 1206 1360 1206 1360 1105.5 1400 c 128,-1,4
 1005 1440 1005 1440 858 1440 c 0,5,6
 633 1440 633 1440 470 1286 c 0,7,8
 385 1205 385 1205 337.5 1065.5 c 128,-1,9
 290 926 290 926 290 744 c 0,10,11
 290 724 290 724 292 708 c 1,12,-1
 292 668 l 1,13,14
 304 414 304 414 442.5 254 c 128,-1,15
 581 94 581 94 814 94 c 0,16,17
 978 94 978 94 1048 152 c 1,18,-1
 1094 540 l 1,19,-1
 808 586 l 1,20,-1
 834 688 l 1,21,-1
 1524 688 l 1,22,-1
 1498 596 l 1,23,-1
 1336 544 l 1,24,-1
 1284 108 l 1,25,26
 1057 -40 1057 -40 648 -40 c 0,27,28
 356 -40 356 -40 191 130 c 128,-1,29
 26 300 26 300 12 578 c 1,30,-1
 12 608 l 1,31,32
 10 620 10 620 10 636 c 0,33,34
 10 802 10 802 62.5 953 c 128,-1,35
 115 1104 115 1104 208 1216 c 0,36,37
 394 1441 394 1441 668 1524 c 0,38,39
 803 1564 803 1564 936 1564 c 0,40,41
 1280 1564 1280 1564 1450 1442 c 1,42,-1
 1368 1042 l 1,0,-1
816 1916 m 1,43,-1
 872 1954 l 1,44,-1
 882 1934 l 1,45,46
 902 1890 902 1890 947 1861 c 128,-1,47
 992 1832 992 1832 1046 1832 c 0,48,49
 1156 1832 1156 1832 1218 1936 c 2,50,-1
 1230 1956 l 1,51,-1
 1280 1922 l 1,52,-1
 1272 1898 l 2,53,54
 1242 1809 1242 1809 1184 1754.5 c 128,-1,55
 1126 1700 1126 1700 1043.5 1700 c 0,56,57
 961 1700 961 1700 902 1754 c 128,-1,58
 843 1808 843 1808 822 1892 c 2,59,-1
 816 1916 l 1,43,-1
EndSplineSet
EndChar

StartChar: Gcommaaccent
Encoding: 290 290 38
Width: 1532
VWidth: 0
Flags: HW
HStem: -40 134<610.858 688> 1440 124<658.138 1115.79>
VStem: 12 280<448.66 927.653> 706 128<-296.418 -147.792> 1246 122<1060 1111.93>
DStem2: 975.557 -438 1216.96 -438 0.121869 0.992546<561.747 985.145>
LayerCount: 2
Fore
SplineSet
674 -48 m 0,0,1
 675 -48 675 -48 680 -44.5 c 128,-1,2
 685 -41 685 -41 688 -40 c 1,3,-1
 648 -40 l 2,4,5
 356 -40 356 -40 191 130 c 128,-1,6
 26 300 26 300 12 578 c 1,7,-1
 12 608 l 1,8,9
 10 620 10 620 10 636 c 0,10,11
 10 802 10 802 62.5 953 c 128,-1,12
 115 1104 115 1104 208 1216 c 0,13,14
 394 1441 394 1441 668 1524 c 0,15,16
 803 1564 803 1564 936 1564 c 0,17,18
 1280 1564 1280 1564 1450 1442 c 1,19,-1
 1368 1042 l 1,20,-1
 1260 1060 l 1,21,-1
 1246 1298 l 1,22,23
 1206 1360 1206 1360 1105.5 1400 c 128,-1,24
 1005 1440 1005 1440 858 1440 c 0,25,26
 633 1440 633 1440 470 1286 c 0,27,28
 385 1205 385 1205 337.5 1065.5 c 128,-1,29
 290 926 290 926 290 744 c 0,30,31
 290 724 290 724 292 708 c 1,32,-1
 292 668 l 1,33,34
 304 414 304 414 442.5 254 c 128,-1,35
 581 94 581 94 814 94 c 0,36,37
 978 94 978 94 1048 152 c 1,38,-1
 1094 540 l 1,39,-1
 808 586 l 1,40,-1
 834 688 l 1,41,-1
 1524 688 l 1,42,-1
 1498 596 l 1,43,-1
 1336 544 l 1,44,-1
 1284 108 l 1,45,46
 1098 -15 1098 -15 756 -36 c 1,47,48
 799 -50 799 -50 822 -108 c 1,49,50
 834 -135 834 -135 834 -154.5 c 128,-1,51
 834 -174 834 -174 830 -206 c 1,52,53
 801.176095916 -337.983139753 801.176095916 -337.983139753 604 -438 c 1,54,-1
 580 -398 l 1,55,56
 653 -356 653 -356 678 -316 c 1,57,58
 706 -276.8 706 -276.8 706 -236 c 0,59,60
 706 -195.865384615 706 -195.865384615 675.5 -162.432692308 c 128,-1,61
 645 -129 645 -129 622 -116 c 1,62,63
 633 -76 633 -76 674 -48 c 0,0,1
EndSplineSet
EndChar

StartChar: Gdotaccent
Encoding: 288 288 39
Width: 1532
VWidth: 0
Flags: HW
HStem: -40 134<605.273 1025.82> 1440 124<658.138 1115.79> 1678 286<944.75 1150>
VStem: 12 280<448.66 927.653> 902 292<1722.25 1922.95> 1246 122<1060 1111.93>
DStem2: 1024.43 -40 1265.83 -40 0.121869 0.992546<162.546 584.156>
LayerCount: 2
Fore
SplineSet
1368 1042 m 1,0,-1
 1260 1060 l 1,1,-1
 1246 1298 l 1,2,3
 1206 1360 1206 1360 1105.5 1400 c 128,-1,4
 1005 1440 1005 1440 858 1440 c 0,5,6
 633 1440 633 1440 470 1286 c 0,7,8
 385 1205 385 1205 337.5 1065.5 c 128,-1,9
 290 926 290 926 290 744 c 0,10,11
 290 724 290 724 292 708 c 1,12,-1
 292 668 l 1,13,14
 304 414 304 414 442.5 254 c 128,-1,15
 581 94 581 94 814 94 c 0,16,17
 978 94 978 94 1048 152 c 1,18,-1
 1094 540 l 1,19,-1
 808 586 l 1,20,-1
 834 688 l 1,21,-1
 1524 688 l 1,22,-1
 1498 596 l 1,23,-1
 1336 544 l 1,24,-1
 1284 108 l 1,25,26
 1057 -40 1057 -40 648 -40 c 0,27,28
 356 -40 356 -40 191 130 c 128,-1,29
 26 300 26 300 12 578 c 1,30,-1
 12 608 l 1,31,32
 10 620 10 620 10 636 c 0,33,34
 10 802 10 802 62.5 953 c 128,-1,35
 115 1104 115 1104 208 1216 c 0,36,37
 394 1441 394 1441 668 1524 c 0,38,39
 803 1564 803 1564 936 1564 c 0,40,41
 1280 1564 1280 1564 1450 1442 c 1,42,-1
 1368 1042 l 1,0,-1
1150.5 1924 m 128,-1,44
 1194 1884 1194 1884 1194 1824.5 c 128,-1,45
 1194 1765 1194 1765 1150 1721.5 c 128,-1,46
 1106 1678 1106 1678 1046 1678 c 128,-1,47
 986 1678 986 1678 944 1722 c 128,-1,48
 902 1766 902 1766 902 1826 c 128,-1,49
 902 1886 902 1886 944.5 1925 c 128,-1,50
 987 1964 987 1964 1047 1964 c 128,-1,43
 1107 1964 1107 1964 1150.5 1924 c 128,-1,44
EndSplineSet
EndChar

StartChar: Germandbls
Encoding: 7838 7838 40
Width: 1686
VWidth: 0
Flags: HW
HStem: -68 126<1017 1289.61> -2 100<38 94.9224> 1464 84<895.003 1094>
VStem: 650 282<138.743 375.796> 836 230<1003.97 1261.79> 1378 238<166.112 423.968> 1424 248<1077.97 1362.6>
DStem2: 279.268 -68 507.896 -68 0.121869 0.992546<235.757 1317.8> 1180 924 964 808 0.72311 -0.690732<-181.728 513.357>
LayerCount: 2
Fore
SplineSet
968 456 m 1,0,1
 932 359.52 932 359.52 932 287.26 c 128,-1,2
 932 215 932 215 952 178 c 1,3,4
 968 138 968 138 1011 106.5 c 0,5,6
 1077.20634921 58 1077.20634921 58 1151.1031746 58 c 128,-1,7
 1225 58 1225 58 1281.5 95.5 c 0,8,9
 1378 159.548672566 1378 159.548672566 1378 272 c 0,10,11
 1378 359.957746479 1378 359.957746479 1336 421.478873239 c 128,-1,12
 1294 483 1294 483 1151 620.5 c 128,-1,13
 1008 758 1008 758 950 825.5 c 128,-1,14
 892 893 892 893 864 952.5 c 128,-1,15
 836 1012 836 1012 836 1090 c 2,16,-1
 836 1104 l 1,17,18
 839 1189 839 1189 880 1262 c 1,19,20
 949 1393 949 1393 1094 1454 c 1,21,-1
 1094 1464 l 1,22,-1
 1076 1464 l 2,23,24
 916 1464 916 1464 811 1376 c 128,-1,25
 706 1288 706 1288 668 1152 c 1,26,27
 651 1099 651 1099 646 1036 c 1,28,-1
 516 -2 l 1,29,-1
 10 -2 l 1,30,-1
 38 98 l 1,31,-1
 308 166 l 1,32,-1
 408 954 l 1,33,34
 429 1090 429 1090 445 1145 c 128,-1,35
 461 1200 461 1200 502 1264 c 0,36,37
 649 1495 649 1495 1038 1540 c 1,38,39
 1094 1548 1094 1548 1200 1548 c 128,-1,40
 1306 1548 1306 1548 1400.5 1521.5 c 128,-1,41
 1495 1495 1495 1495 1564 1438 c 1,42,43
 1628 1380 1628 1380 1650 1320 c 128,-1,44
 1672 1260 1672 1260 1672 1225.5 c 0,45,46
 1672 1098.01851852 1672 1098.01851852 1592 1039.5 c 0,47,48
 1538 1000 1538 1000 1481.5 1000 c 128,-1,49
 1425 1000 1425 1000 1376 1026 c 1,50,51
 1424 1159.71428571 1424 1159.71428571 1424 1234.85714286 c 128,-1,52
 1424 1310 1424 1310 1411.5 1342 c 128,-1,53
 1399 1374 1399 1374 1363 1405.5 c 128,-1,54
 1327 1437 1327 1437 1294 1440 c 1,55,56
 1288 1442 1288 1442 1272 1442 c 0,57,58
 1201 1442 1201 1442 1144 1380 c 1,59,60
 1087 1323 1087 1323 1072 1228 c 1,61,62
 1066 1198 1066 1198 1066 1170 c 128,-1,63
 1066 1142 1066 1142 1074 1095 c 128,-1,64
 1082 1048 1082 1048 1102 1015 c 0,65,66
 1130.93905192 967.250564334 1130.93905192 967.250564334 1262.46952596 844.125282167 c 128,-1,67
 1394 721 1394 721 1423.5 693 c 0,68,69
 1504.2925483 616.315547378 1504.2925483 616.315547378 1554.14627415 534.157773689 c 0,70,71
 1616 432.224280785 1616 432.224280785 1616 318.612140392 c 128,-1,72
 1616 205 1616 205 1530 108 c 1,73,74
 1477 45 1477 45 1395.5 3.5 c 0,75,76
 1255.08433735 -68 1255.08433735 -68 1096 -68 c 0,77,78
 1008 -68 1008 -68 908 -40 c 1,79,80
 753 11 753 11 686 124 c 1,81,82
 657 178 657 178 653.5 200 c 128,-1,83
 650 222 650 222 650 240 c 0,84,85
 650 334 650 334 712 396 c 1,86,87
 778 468 778 468 888 468 c 0,88,89
 929 468 929 468 968 456 c 1,0,1
EndSplineSet
EndChar

StartChar: H
Encoding: 72 72 41
Width: 1938
VWidth: 0
Flags: HW
HStem: 0 100<32 79.5457 720.02 774 992 1062.8 1723.21 1744> 1388 94<204 280.352 1160 1417.86> 1412 120<702 827.952> 1440 92<822.048 948 1852.39 1904>
DStem2: 288.354 0 527.792 0 0.121869 0.992546<162.171 736.454 875.619 1358.87> 1248.81 0 1488.35 0 0.121869 0.992546<190.395 747.582 872.608 1386.61>
LayerCount: 2
Fore
SplineSet
1420 1376 m 1,0,-1
 1136 1386 l 1,1,-1
 1160 1480 l 1,2,3
 1451.41463415 1538 1451.41463415 1538 1740 1538 c 0,4,5
 1835 1538 1835 1538 1928 1532 c 1,6,-1
 1904 1438 l 1,7,-1
 1652 1370 l 1,8,-1
 1508 160 l 1,9,-1
 1768 100 l 1,10,-1
 1744 0 l 1,11,-1
 968 0 l 1,12,-1
 992 96 l 1,13,-1
 1266 140 l 1,14,-1
 1340 742 l 1,15,-1
 614 702 l 1,16,-1
 544 132 l 1,17,-1
 804 100 l 1,18,-1
 774 0 l 1,19,-1
 10 0 l 1,20,-1
 32 96 l 1,21,-1
 308 160 l 1,22,-1
 460 1348 l 1,23,-1
 180 1388 l 1,24,-1
 204 1482 l 1,25,26
 406 1524 406 1524 529 1531 c 128,-1,27
 652 1538 652 1538 758 1538 c 128,-1,28
 864 1538 864 1538 972 1532 c 1,29,-1
 948 1440 l 1,30,-1
 702 1412 l 1,31,-1
 632 840 l 1,32,-1
 1356 866 l 1,33,-1
 1420 1376 l 1,0,-1
EndSplineSet
EndChar

StartChar: Hbar
Encoding: 294 294 42
Width: 1938
VWidth: 0
Flags: HW
HStem: 0 100<32 79.5457 720.02 774 992 1062.8 1723.21 1744> 1048 112<310 424> 1068 108<674 907.808> 1388 94<204 280.352 1160 1417.39> 1412 128<702 827.952> 1440 92<822.048 948 1852.39 1904>
DStem2: 288.354 0 527.792 0 0.121869 0.992546<162.171 738.682 875.619 1064.66 1214.23 1358.87> 1248.81 0 1488.35 0 0.121869 0.992546<190.395 747.582 872.608 1118.45 1257.85 1386.61>
LayerCount: 2
Fore
SplineSet
1386 1110 m 1,0,-1
 660 1068 l 1,1,-1
 632 840 l 1,2,-1
 1356 866 l 1,3,-1
 1386 1110 l 1,0,-1
1420 1376 m 1,4,-1
 1136 1386 l 1,5,-1
 1160 1480 l 1,6,7
 1451.45 1538 1451.45 1538 1742 1538 c 0,8,9
 1835 1538 1835 1538 1928 1532 c 1,10,-1
 1904 1438 l 1,11,-1
 1652 1370 l 1,12,-1
 1634 1220 l 1,13,-1
 1734 1226 l 1,14,-1
 1716 1128 l 1,15,-1
 1622 1122 l 1,16,-1
 1508 160 l 1,17,-1
 1768 100 l 1,18,-1
 1744 0 l 1,19,-1
 968 0 l 1,20,-1
 992 96 l 1,21,-1
 1266 140 l 1,22,-1
 1340 742 l 1,23,-1
 616 704 l 1,24,-1
 544 132 l 1,25,-1
 804 100 l 1,26,-1
 774 0 l 1,27,-1
 10 0 l 1,28,-1
 32 96 l 1,29,-1
 308 160 l 1,30,-1
 424 1056 l 1,31,-1
 290 1048 l 1,32,-1
 310 1160 l 1,33,-1
 438 1166 l 1,34,-1
 460 1348 l 1,35,-1
 180 1388 l 1,36,-1
 204 1482 l 1,37,38
 377 1519 377 1519 502 1529.5 c 128,-1,39
 627 1540 627 1540 742 1540 c 128,-1,40
 857 1540 857 1540 972 1532 c 1,41,-1
 948 1440 l 1,42,-1
 702 1412 l 1,43,-1
 674 1176 l 1,44,-1
 1398 1210 l 1,45,-1
 1420 1376 l 1,4,-1
EndSplineSet
EndChar

StartChar: I
Encoding: 73 73 43
Width: 980
VWidth: 0
Flags: HW
HStem: 0 100<32 79.5456 726.79 784> 1388 94<204 280.352> 1412 128<702 827.952>
DStem2: 288.354 0 527.792 0 0.121869 0.992546<162.171 1358.87>
LayerCount: 2
Fore
SplineSet
784 0 m 1,0,-1
 10 0 l 1,1,-1
 32 96 l 1,2,-1
 308 160 l 1,3,-1
 460 1348 l 1,4,-1
 180 1388 l 1,5,-1
 204 1482 l 1,6,7
 477 1540 477 1540 778 1540 c 0,8,9
 857 1540 857 1540 972 1532 c 1,10,-1
 948 1440 l 1,11,-1
 702 1412 l 1,12,-1
 544 132 l 1,13,-1
 814 100 l 1,14,-1
 784 0 l 1,0,-1
EndSplineSet
EndChar

StartChar: Iacute
Encoding: 205 205 44
Width: 980
VWidth: 0
Flags: HW
HStem: 0 100<32 79.5456 726.79 784> 1388 94<204 280.352> 1412 128<702 827.952>
DStem2: 288.354 0 527.792 0 0.121869 0.992546<162.171 1358.87>
LayerCount: 2
Fore
SplineSet
784 0 m 1,0,-1
 10 0 l 1,1,-1
 32 96 l 1,2,-1
 308 160 l 1,3,-1
 460 1348 l 1,4,-1
 180 1388 l 1,5,-1
 204 1482 l 1,6,7
 477 1540 477 1540 778 1540 c 0,8,9
 855 1540 855 1540 970 1532 c 1,10,-1
 948 1440 l 1,11,-1
 702 1412 l 1,12,-1
 544 132 l 1,13,-1
 814 100 l 1,14,-1
 784 0 l 1,0,-1
904 2048 m 1,15,-1
 682 1664 l 1,16,-1
 620 1702 l 1,17,-1
 768 2096 l 1,18,-1
 904 2048 l 1,15,-1
EndSplineSet
EndChar

StartChar: Icaron
Encoding: 463 463 45
Width: 980
VWidth: 0
Flags: HW
HStem: 0 100<32 79.5456 726.79 784> 1388 94<204 280.352> 1412 128<702 827.952>
DStem2: 288.354 0 527.792 0 0.121869 0.992546<162.171 1358.87> 484 1948 386 1874 0.736873 -0.676031<0 250.267> 676 1774 670 1690 0.690318 0.723506<0 226.544>
LayerCount: 2
Fore
SplineSet
784 0 m 1,0,-1
 10 0 l 1,1,-1
 32 96 l 1,2,-1
 308 160 l 1,3,-1
 460 1348 l 1,4,-1
 180 1388 l 1,5,-1
 204 1482 l 1,6,7
 477 1540 477 1540 778 1540 c 0,8,9
 855 1540 855 1540 970 1532 c 1,10,-1
 948 1440 l 1,11,-1
 702 1412 l 1,12,-1
 544 132 l 1,13,-1
 814 100 l 1,14,-1
 784 0 l 1,0,-1
604 1674 m 1,15,-1
 386 1874 l 1,16,-1
 484 1948 l 1,17,-1
 664 1774 l 1,18,-1
 676 1774 l 1,19,-1
 826 1944 l 1,20,-1
 878 1908 l 1,21,-1
 670 1690 l 1,22,-1
 604 1674 l 1,15,-1
EndSplineSet
EndChar

StartChar: Icircumflex
Encoding: 206 206 46
Width: 980
VWidth: 0
Flags: HW
HStem: 0 100<32 79.5456 726.79 784> 1388 94<204 280.352> 1412 128<702 827.952>
DStem2: 288.354 0 527.792 0 0.121869 0.992546<162.171 1358.87>
LayerCount: 2
Fore
SplineSet
784 0 m 1,0,-1
 10 0 l 1,1,-1
 32 96 l 1,2,-1
 308 160 l 1,3,-1
 460 1348 l 1,4,-1
 180 1388 l 1,5,-1
 204 1482 l 1,6,7
 477 1540 477 1540 778 1540 c 0,8,9
 855 1540 855 1540 970 1532 c 1,10,-1
 948 1440 l 1,11,-1
 702 1412 l 1,12,-1
 544 132 l 1,13,-1
 814 100 l 1,14,-1
 784 0 l 1,0,-1
658 1944 m 1,15,-1
 874 1720 l 1,16,-1
 814 1676 l 1,17,-1
 616 1808 l 1,18,-1
 604 1808 l 1,19,-1
 434 1674 l 1,20,-1
 388 1710 l 1,21,-1
 592 1928 l 1,22,-1
 658 1944 l 1,15,-1
EndSplineSet
EndChar

StartChar: Idieresis
Encoding: 207 207 47
Width: 980
VWidth: 0
Flags: HW
HStem: 0 100<32 79.5456 726.79 784> 1388 94<204 280.352> 1412 128<702 827.952> 1706 192<382.648 555.259 706.648 880.67>
VStem: 366 206<1723 1880.53> 690 208<1724.33 1879.94>
DStem2: 288.354 0 527.792 0 0.121869 0.992546<162.171 1358.87>
LayerCount: 2
Fore
SplineSet
784 0 m 1,0,-1
 10 0 l 1,1,-1
 32 96 l 1,2,-1
 308 160 l 1,3,-1
 460 1348 l 1,4,-1
 180 1388 l 1,5,-1
 204 1482 l 1,6,7
 477 1540 477 1540 778 1540 c 0,8,9
 857 1540 857 1540 972 1532 c 1,10,-1
 948 1440 l 1,11,-1
 702 1412 l 1,12,-1
 544 132 l 1,13,-1
 814 100 l 1,14,-1
 784 0 l 1,0,-1
866.5 1871 m 128,-1,16
 898 1844 898 1844 898 1803 c 128,-1,17
 898 1762 898 1762 866.5 1734 c 128,-1,18
 835 1706 835 1706 792.5 1706 c 128,-1,19
 750 1706 750 1706 720 1734 c 128,-1,20
 690 1762 690 1762 690 1803.5 c 128,-1,21
 690 1845 690 1845 720 1871.5 c 128,-1,22
 750 1898 750 1898 792.5 1898 c 128,-1,15
 835 1898 835 1898 866.5 1871 c 128,-1,16
541.5 1871 m 128,-1,24
 572 1844 572 1844 572 1802.5 c 128,-1,25
 572 1761 572 1761 541.5 1733.5 c 128,-1,26
 511 1706 511 1706 468.5 1706 c 128,-1,27
 426 1706 426 1706 396 1734 c 128,-1,28
 366 1762 366 1762 366 1803.5 c 128,-1,29
 366 1845 366 1845 396 1871.5 c 128,-1,30
 426 1898 426 1898 468.5 1898 c 128,-1,23
 511 1898 511 1898 541.5 1871 c 128,-1,24
EndSplineSet
EndChar

StartChar: Idotaccent
Encoding: 304 304 48
Width: 980
VWidth: 0
Flags: HW
HStem: 0 100<32 79.5456 726.79 784> 1388 94<204 280.352> 1412 128<702 827.952> 1672 286<528.75 734>
VStem: 486 292<1716.25 1916.95>
DStem2: 288.354 0 527.792 0 0.121869 0.992546<162.171 1358.87>
LayerCount: 2
Fore
SplineSet
784 0 m 1,0,-1
 10 0 l 1,1,-1
 32 96 l 1,2,-1
 308 160 l 1,3,-1
 460 1348 l 1,4,-1
 180 1388 l 1,5,-1
 204 1482 l 1,6,7
 477 1540 477 1540 778 1540 c 0,8,9
 857 1540 857 1540 972 1532 c 1,10,-1
 948 1440 l 1,11,-1
 702 1412 l 1,12,-1
 544 132 l 1,13,-1
 814 100 l 1,14,-1
 784 0 l 1,0,-1
734.5 1918 m 128,-1,16
 778 1878 778 1878 778 1818.5 c 128,-1,17
 778 1759 778 1759 734 1715.5 c 128,-1,18
 690 1672 690 1672 630 1672 c 128,-1,19
 570 1672 570 1672 528 1716 c 128,-1,20
 486 1760 486 1760 486 1820 c 128,-1,21
 486 1880 486 1880 528.5 1919 c 128,-1,22
 571 1958 571 1958 631 1958 c 128,-1,15
 691 1958 691 1958 734.5 1918 c 128,-1,16
EndSplineSet
EndChar

StartChar: Igrave
Encoding: 204 204 49
Width: 980
VWidth: 0
Flags: HW
HStem: 0 100<32 79.5456 726.79 784> 1388 94<204 280.352> 1412 128<702 827.952>
DStem2: 288.354 0 527.792 0 0.121869 0.992546<162.171 1358.87>
LayerCount: 2
Fore
SplineSet
784 0 m 1,0,-1
 10 0 l 1,1,-1
 32 96 l 1,2,-1
 308 160 l 1,3,-1
 460 1348 l 1,4,-1
 180 1388 l 1,5,-1
 204 1482 l 1,6,7
 477 1540 477 1540 778 1540 c 0,8,9
 855 1540 855 1540 970 1532 c 1,10,-1
 948 1440 l 1,11,-1
 702 1412 l 1,12,-1
 544 132 l 1,13,-1
 814 100 l 1,14,-1
 784 0 l 1,0,-1
384 2040 m 1,15,-1
 524 2086 l 1,16,-1
 684 1682 l 1,17,-1
 614 1640 l 1,18,-1
 384 2040 l 1,15,-1
EndSplineSet
EndChar

StartChar: Imacron
Encoding: 298 298 50
Width: 980
VWidth: 0
Flags: HW
HStem: 0 100<32 79.5456 726.79 784> 1388 94<204 280.352> 1412 128<702 827.952> 1700 122<382 900>
DStem2: 288.354 0 527.792 0 0.121869 0.992546<162.171 1358.87>
LayerCount: 2
Fore
SplineSet
784 0 m 1,0,-1
 10 0 l 1,1,-1
 32 96 l 1,2,-1
 308 160 l 1,3,-1
 460 1348 l 1,4,-1
 180 1388 l 1,5,-1
 204 1482 l 1,6,7
 477 1540 477 1540 778 1540 c 0,8,9
 855 1540 855 1540 970 1532 c 1,10,-1
 948 1440 l 1,11,-1
 702 1412 l 1,12,-1
 544 132 l 1,13,-1
 814 100 l 1,14,-1
 784 0 l 1,0,-1
382 1822 m 1,15,-1
 916 1822 l 1,16,-1
 900 1700 l 1,17,-1
 366 1700 l 1,18,-1
 382 1822 l 1,15,-1
EndSplineSet
EndChar

StartChar: Iogonek
Encoding: 302 302 51
Width: 980
VWidth: 0
Flags: HW
HStem: -452 62<768.787 779.711> 0 96<32 93.824 706.48 784> 1388 94<204 280.352> 1412 128<702 827.952>
VStem: 482 180<-299.306 -112.838>
DStem2: 232.856 -452 472.294 -452 0.121869 0.992546<617.566 1814.26>
LayerCount: 2
Fore
SplineSet
812 -390 m 1,0,-1
 770 -452 l 1,1,2
 643 -439 643 -439 562.5 -377.5 c 128,-1,3
 482 -316 482 -316 482 -236 c 0,4,5
 482 -131 482 -131 628 0 c 1,6,-1
 10 0 l 1,7,-1
 32 96 l 1,8,-1
 308 160 l 1,9,-1
 460 1348 l 1,10,-1
 180 1388 l 1,11,-1
 204 1482 l 1,12,13
 477 1540 477 1540 778 1540 c 0,14,15
 857 1540 857 1540 972 1532 c 1,16,-1
 948 1440 l 1,17,-1
 702 1412 l 1,18,-1
 544 132 l 1,19,-1
 814 100 l 1,20,-1
 784 0 l 1,21,-1
 724 0 l 1,22,23
 662 -106 662 -106 662 -164 c 0,24,25
 662 -303 662 -303 812 -390 c 1,0,-1
EndSplineSet
EndChar

StartChar: J
Encoding: 74 74 52
Width: 1190
VWidth: 0
Flags: HW
HStem: -464 262<105.5 404.789> 1380 96<416 506.706> 1412 130<918 1033.64>
DStem2: 466.995 -464 684.583 -464 0.121869 0.992546<465.183 1819.75>
LayerCount: 2
Fore
SplineSet
330 -452 m 0,0,1
 291 -464 291 -464 256.5 -464 c 128,-1,2
 222 -464 222 -464 216 -462 c 1,3,4
 154 -456 154 -456 103 -419.5 c 128,-1,5
 52 -383 52 -383 28 -320 c 1,6,7
 12 -285 12 -285 12 -237 c 128,-1,8
 12 -189 12 -189 32 -140 c 1,9,10
 146 -193 146 -193 248 -202 c 1,11,-1
 262 -202 l 1,12,13
 268 -204 268 -204 276 -204 c 0,14,15
 412 -204 412 -204 468 -110 c 1,16,17
 498 -64 498 -64 511 -20 c 128,-1,18
 524 24 524 24 534 92 c 128,-1,19
 544 160 544 160 550 212.5 c 128,-1,20
 556 265 556 265 559 293.5 c 0,21,22
 565.666666667 356.833333333 565.666666667 356.833333333 569.833333333 420.916666667 c 128,-1,23
 574 485 574 485 602 728 c 2,24,-1
 674 1344 l 1,25,-1
 396 1380 l 1,26,-1
 416 1476 l 1,27,28
 617 1524 617 1524 834 1536 c 1,29,30
 921 1542 921 1542 1009 1542 c 128,-1,31
 1097 1542 1097 1542 1184 1536 c 1,32,-1
 1160 1442 l 1,33,-1
 918 1412 l 1,34,-1
 800 476 l 1,35,36
 752 131 752 131 687 -40 c 128,-1,37
 622 -211 622 -211 538 -311.5 c 128,-1,38
 454 -412 454 -412 330 -452 c 0,0,1
EndSplineSet
EndChar

StartChar: K
Encoding: 75 75 53
Width: 1638
VWidth: 0
Flags: HW
HStem: -28 21G<1232 1353> 0 92<34 80.8028 671.281 696> 1448 94<208 232.257 807.68 864 1012 1039.66 1545.63 1604>
DStem2: 232.917 -28 473.653 -28 0.121869 0.992546<212.705 1424.55> 760 912 844 812 0.675955 0.736943<-16.9141 640.338>
LayerCount: 2
Fore
SplineSet
692 632 m 1,0,1
 635 719 635 719 604 750 c 1,2,-1
 608 780 l 1,3,4
 704 850 704 850 760 912 c 2,5,-1
 1184 1392 l 1,6,-1
 990 1448 l 1,7,-1
 1012 1542 l 1,8,-1
 1628 1542 l 1,9,-1
 1604 1448 l 1,10,-1
 1376 1392 l 1,11,-1
 844 812 l 1,12,-1
 1084 476 l 2,13,14
 1227 277 1227 277 1299 206.5 c 128,-1,15
 1371 136 1371 136 1474 102 c 2,16,-1
 1516 88 l 1,17,-1
 1492 2 l 1,18,19
 1405 -28 1405 -28 1328 -28 c 0,20,21
 1191 -28 1191 -28 1085 58.5 c 128,-1,22
 979 145 979 145 872 324 c 1,23,-1
 692 632 l 1,0,1
496 154 m 1,24,-1
 724 100 l 1,25,-1
 696 0 l 1,26,-1
 10 0 l 1,27,-1
 34 92 l 1,28,-1
 256 160 l 1,29,-1
 406 1386 l 1,30,-1
 180 1448 l 1,31,-1
 208 1542 l 1,32,-1
 888 1542 l 1,33,-1
 864 1448 l 1,34,-1
 644 1392 l 1,35,-1
 496 154 l 1,24,-1
EndSplineSet
EndChar

StartChar: Kcommaaccent
Encoding: 310 310 54
Width: 1638
VWidth: 0
Flags: HW
HStem: -52 20G<847 895> -28 21G<1232 1353> 0 92<34 80.8028 671.281 696> 1448 94<208 232.257 807.68 864 1012 1039.66 1545.63 1604>
VStem: 844 128<-296.418 -147.792>
DStem2: 182.575 -438 423.312 -438 0.121869 0.992546<625.784 1837.63> 760 912 844 812 0.675955 0.736943<-16.9141 640.338>
LayerCount: 2
Fore
SplineSet
692 632 m 1,0,1
 635 719 635 719 604 750 c 1,2,-1
 608 780 l 1,3,4
 704 850 704 850 760 912 c 2,5,-1
 1184 1392 l 1,6,-1
 990 1448 l 1,7,-1
 1012 1542 l 1,8,-1
 1628 1542 l 1,9,-1
 1604 1448 l 1,10,-1
 1376 1392 l 1,11,-1
 844 812 l 1,12,-1
 1084 476 l 1,13,14
 1228 277 1228 277 1299.5 206.5 c 128,-1,15
 1371 136 1371 136 1474 102 c 2,16,-1
 1516 88 l 1,17,-1
 1492 2 l 1,18,19
 1405 -28 1405 -28 1328 -28 c 0,20,21
 1191 -28 1191 -28 1085 58.5 c 128,-1,22
 979 145 979 145 872 324 c 1,23,-1
 692 632 l 1,0,1
496 154 m 1,24,-1
 724 100 l 1,25,-1
 696 0 l 1,26,-1
 10 0 l 1,27,-1
 34 92 l 1,28,-1
 256 160 l 1,29,-1
 406 1386 l 1,30,-1
 180 1448 l 1,31,-1
 208 1542 l 1,32,-1
 888 1542 l 1,33,-1
 864 1448 l 1,34,-1
 644 1392 l 1,35,-1
 496 154 l 1,24,-1
864 -32 m 2,36,-1
 874 -32 l 1,37,38
 933 -40 933 -40 960 -108 c 1,39,40
 972 -135 972 -135 972 -154.5 c 128,-1,41
 972 -174 972 -174 968 -206 c 1,42,43
 949 -293 949 -293 858 -366 c 1,44,45
 813 -405 813 -405 744 -438 c 1,46,-1
 718 -398 l 1,47,48
 791 -356 791 -356 816 -316 c 1,49,50
 844 -276.8 844 -276.8 844 -236 c 0,51,52
 844 -195.692307692 844 -195.692307692 813.5 -162.846153846 c 128,-1,53
 783 -130 783 -130 760 -116 c 1,54,55
 771 -77 771 -77 803 -54.5 c 128,-1,56
 835 -32 835 -32 864 -32 c 2,36,-1
EndSplineSet
EndChar

StartChar: L
Encoding: 76 76 55
Width: 1414
VWidth: 0
Flags: HW
HStem: -4 102<38 94.9224> 4 128<544 1099.96> 1380 94<206 325.36> 1400 140<708.251 864.672>
VStem: 1290 114<461.452 564>
DStem2: 287.127 -4 527.301 -4 0.121869 0.992546<171.277 1367.2>
LayerCount: 2
Fore
SplineSet
1308 0 m 1,0,1
 624 4 624 4 544 4 c 1,2,-1
 10 -4 l 1,3,-1
 38 98 l 1,4,-1
 308 166 l 1,5,-1
 462 1352 l 1,6,-1
 182 1380 l 1,7,-1
 206 1474 l 1,8,9
 425 1540 425 1540 748 1540 c 0,10,11
 817 1540 817 1540 919 1534 c 128,-1,12
 1021 1528 1021 1528 1030 1528 c 1,13,-1
 1014 1428 l 1,14,-1
 708 1400 l 1,15,-1
 544 132 l 1,16,-1
 812 144 l 1,17,18
 994 154 994 154 1104 172 c 1,19,20
 1179 253 1179 253 1290 580 c 1,21,-1
 1404 564 l 1,22,23
 1404 550 1404 550 1406 536 c 1,24,-1
 1406 504 l 2,25,26
 1406 368 1406 368 1377.5 220 c 128,-1,27
 1349 72 1349 72 1308 0 c 1,0,1
EndSplineSet
EndChar

StartChar: Lacute
Encoding: 313 313 56
Width: 1414
VWidth: 0
Flags: HW
HStem: -4 102<38 94.9224> 4 128<544 1099.96> 1380 96<206 325.36> 1400 140<708 864.672>
VStem: 1290 114<461.452 564>
DStem2: 287.127 -4 527.301 -4 0.121869 0.992546<171.277 1367.2>
LayerCount: 2
Fore
SplineSet
1308 0 m 1,0,1
 624 4 624 4 544 4 c 1,2,-1
 10 -4 l 1,3,-1
 38 98 l 1,4,-1
 308 166 l 1,5,-1
 462 1352 l 1,6,-1
 182 1380 l 1,7,-1
 206 1476 l 1,8,9
 422 1540 422 1540 748 1540 c 0,10,11
 817 1540 817 1540 919 1534 c 128,-1,12
 1021 1528 1021 1528 1030 1528 c 1,13,-1
 1014 1428 l 1,14,-1
 708 1400 l 1,15,-1
 544 132 l 1,16,-1
 812 144 l 1,17,18
 994 154 994 154 1104 172 c 1,19,20
 1179 253 1179 253 1290 580 c 1,21,-1
 1404 564 l 1,22,23
 1404 550 1404 550 1406 536 c 1,24,-1
 1406 504 l 2,25,26
 1406 368 1406 368 1377.5 220 c 128,-1,27
 1349 72 1349 72 1308 0 c 1,0,1
842 2052 m 1,28,-1
 620 1668 l 1,29,-1
 558 1706 l 1,30,-1
 706 2100 l 1,31,-1
 842 2052 l 1,28,-1
EndSplineSet
EndChar

StartChar: Lcaron
Encoding: 317 317 57
Width: 1414
VWidth: 0
Flags: HW
HStem: -4 102<38 94.9224> 4 128<544 1099.96> 1380 96<206 325.36> 1400 140<708 864.672>
VStem: 1256 206<1251.48 1424.18> 1290 114<461.452 564>
DStem2: 287.127 -4 527.301 -4 0.121869 0.992546<171.277 1367.2>
LayerCount: 2
Fore
SplineSet
1308 0 m 1,0,1
 624 4 624 4 544 4 c 1,2,-1
 10 -4 l 1,3,-1
 38 98 l 1,4,-1
 308 166 l 1,5,-1
 462 1352 l 1,6,-1
 182 1380 l 1,7,-1
 206 1476 l 1,8,9
 422 1540 422 1540 748 1540 c 0,10,11
 817 1540 817 1540 919 1534 c 128,-1,12
 1021 1528 1021 1528 1030 1528 c 1,13,-1
 1014 1428 l 1,14,-1
 708 1400 l 1,15,-1
 544 132 l 1,16,-1
 812 144 l 1,17,18
 994 154 994 154 1104 172 c 1,19,20
 1179 253 1179 253 1290 580 c 1,21,-1
 1404 564 l 1,22,23
 1404 550 1404 550 1406 536 c 1,24,-1
 1406 504 l 2,25,26
 1406 368 1406 368 1377.5 220 c 128,-1,27
 1349 72 1349 72 1308 0 c 1,0,1
1288 1636 m 2,28,-1
 1306 1636 l 1,29,30
 1402 1625 1402 1625 1444 1514 c 0,31,32
 1462 1469 1462 1469 1462 1426 c 0,33,34
 1462 1238.48648649 1462 1238.48648649 1278 1098 c 1,35,36
 1197 1032 1197 1032 1094 982 c 1,37,-1
 1054 1046 l 1,38,39
 1161.69230769 1102.53846154 1161.69230769 1102.53846154 1208.84615385 1172.76923077 c 128,-1,40
 1256 1243 1256 1243 1256 1308 c 0,41,42
 1256 1310 1256 1310 1248.5 1351 c 128,-1,43
 1241 1392 1241 1392 1204.5 1433.5 c 128,-1,44
 1168 1475 1168 1475 1122 1500 c 1,45,46
 1140 1566 1140 1566 1189 1601 c 128,-1,47
 1238 1636 1238 1636 1288 1636 c 2,28,-1
EndSplineSet
EndChar

StartChar: Lcommaaccent
Encoding: 315 315 58
Width: 1414
VWidth: 0
Flags: HW
HStem: -52 20G<651 699> -4 102<38 94.9224> 4 128<544 1099.96> 1380 96<206 325.36> 1400 140<708 864.672>
VStem: 648 128<-296.418 -147.792> 1290 114<461.452 564>
DStem2: 233.838 -438 474.013 -438 0.121869 0.992546<608.536 1804.46>
LayerCount: 2
Fore
SplineSet
1308 0 m 1,0,1
 624 4 624 4 544 4 c 1,2,-1
 10 -4 l 1,3,-1
 38 98 l 1,4,-1
 308 166 l 1,5,-1
 462 1352 l 1,6,-1
 182 1380 l 1,7,-1
 206 1476 l 1,8,9
 422 1540 422 1540 748 1540 c 0,10,11
 817 1540 817 1540 919 1534 c 128,-1,12
 1021 1528 1021 1528 1030 1528 c 1,13,-1
 1014 1428 l 1,14,-1
 708 1400 l 1,15,-1
 544 132 l 1,16,-1
 812 144 l 1,17,18
 994 154 994 154 1104 172 c 1,19,20
 1179 253 1179 253 1290 580 c 1,21,-1
 1404 564 l 1,22,23
 1404 550 1404 550 1406 536 c 1,24,-1
 1406 504 l 2,25,26
 1406 368 1406 368 1377.5 220 c 128,-1,27
 1349 72 1349 72 1308 0 c 1,0,1
668 -32 m 2,28,-1
 678 -32 l 1,29,30
 737 -40 737 -40 764 -108 c 1,31,32
 776 -135 776 -135 776 -154.5 c 128,-1,33
 776 -174 776 -174 772 -206 c 1,34,35
 753 -293 753 -293 662 -366 c 1,36,37
 617 -405 617 -405 548 -438 c 1,38,-1
 522 -398 l 1,39,40
 595 -356 595 -356 620 -316 c 1,41,42
 648 -276.8 648 -276.8 648 -236 c 0,43,44
 648 -195.865384615 648 -195.865384615 617.5 -162.432692308 c 128,-1,45
 587 -129 587 -129 564 -116 c 1,46,47
 575 -77 575 -77 607 -54.5 c 128,-1,48
 639 -32 639 -32 668 -32 c 2,28,-1
EndSplineSet
EndChar

StartChar: Lslash
Encoding: 321 321 59
Width: 1414
VWidth: 0
Flags: HW
HStem: -4 102<38 94.9224> 4 128<544 1099.96> 1380 96<206 325.36> 1400 140<708 864.672>
VStem: 1290 114<461.452 564>
DStem2: 122 684 138 552 0.913153 0.407617<0 216.875 573.875 838.265> 287.127 -4 527.301 -4 0.121869 0.992546<171.277 665.424 958.863 1367.2>
LayerCount: 2
Fore
SplineSet
1308 0 m 1,0,1
 624 4 624 4 544 4 c 1,2,-1
 10 -4 l 1,3,-1
 38 98 l 1,4,-1
 308 166 l 1,5,-1
 372 656 l 1,6,-1
 138 552 l 1,7,-1
 122 684 l 1,8,-1
 390 804 l 1,9,-1
 462 1352 l 1,10,-1
 182 1380 l 1,11,-1
 206 1476 l 1,12,13
 422 1540 422 1540 748 1540 c 0,14,15
 817 1540 817 1540 919 1534 c 128,-1,16
 1021 1528 1021 1528 1030 1528 c 1,17,-1
 1014 1428 l 1,18,-1
 708 1400 l 1,19,-1
 646 918 l 1,20,-1
 924 1042 l 1,21,-1
 940 908 l 1,22,-1
 626 768 l 1,23,-1
 544 132 l 1,24,-1
 812 144 l 1,25,26
 994 154 994 154 1104 172 c 1,27,28
 1179 253 1179 253 1290 580 c 1,29,-1
 1404 564 l 1,30,31
 1404 550 1404 550 1406 536 c 1,32,-1
 1406 504 l 2,33,34
 1406 368 1406 368 1377.5 220 c 128,-1,35
 1349 72 1349 72 1308 0 c 1,0,1
EndSplineSet
EndChar

StartChar: M
Encoding: 77 77 60
Width: 2104
VWidth: 0
Flags: HW
HStem: -36 202<1578 1757> 1390 94<164 196.819> 1432 96<2014.64 2068> 1522 18G<633 713.714 1825 1919>
VStem: 412 128<856.096 1236> 1456 252<166.007 550.875>
DStem2: 776 1304 544 1236 0.241772 -0.970333<9.89155 909.017>
LayerCount: 2
Fore
SplineSet
1706 230 m 0,0,1
 1706 166 1706 166 1746 166 c 0,2,3
 1748 166 1748 166 1773 173 c 128,-1,4
 1798 180 1798 180 1834.5 219 c 128,-1,5
 1871 258 1871 258 1936 344 c 1,6,-1
 1996 302 l 1,7,8
 1948 119 1948 119 1782 16 c 1,9,10
 1699 -33 1699 -33 1612.5 -34.5 c 128,-1,11
 1526 -36 1526 -36 1490 0 c 128,-1,12
 1454 36 1454 36 1454 110 c 0,13,14
 1454 120 1454 120 1456 126 c 1,15,-1
 1456 142 l 1,16,17
 1459 224 1459 224 1484 424 c 2,18,-1
 1586 1236 l 1,19,20
 1444 894 1444 894 1306.5 609 c 128,-1,21
 1169 324 1169 324 1078 180 c 0,22,23
 1067 163 1067 163 1000 64 c 1,24,-1
 842 40 l 1,25,-1
 544 1236 l 1,26,-1
 540 1236 l 1,27,-1
 516 600 l 2,28,29
 508 393 508 393 488.5 292 c 128,-1,30
 469 191 469 191 408 96 c 0,31,32
 321 -38 321 -38 208 -38 c 0,33,34
 158 -38 158 -38 114.5 -14 c 128,-1,35
 71 10 71 10 46.5 50 c 128,-1,36
 22 90 22 90 16 116 c 1,37,38
 158 178 158 178 235.5 288 c 0,39,40
 381.767927308 495.606090373 381.767927308 495.606090373 412 1068 c 1,41,42
 416 1180 416 1180 416 1324 c 1,43,-1
 136 1390 l 1,44,-1
 164 1484 l 1,45,46
 458 1539 458 1539 708 1542 c 1,47,-1
 776 1304 l 1,48,-1
 1004 424 l 1,49,-1
 1490 1320 l 1,50,-1
 1604 1522 l 1,51,52
 1627 1527 1627 1527 1715 1533.5 c 128,-1,53
 1803 1540 1803 1540 1895.5 1540 c 128,-1,54
 1988 1540 1988 1540 2096 1528 c 1,55,-1
 2068 1432 l 1,56,-1
 1800 1360 l 1,57,-1
 1712 354 l 1,58,59
 1708 290 1708 290 1708 280 c 2,60,-1
 1708 256 l 1,61,62
 1706 246 1706 246 1706 230 c 0,0,1
EndSplineSet
EndChar

StartChar: N
Encoding: 78 78 61
Width: 1864
VWidth: 0
Flags: HW
HStem: -38 21G<155 236 1239.23 1349> 1390 94<184 218.385 1168 1311.25> 1438 94<1776.45 1830> 1520 20G<667 700.385>
VStem: 432 128<856.096 1236>
DStem2: 798 1332 564 1236 0.4741 -0.880471<-26.4141 1130.25> 1336 338 1448 2 0.0931603 0.995651<0 1031.73>
LayerCount: 2
Fore
SplineSet
1250 -38 m 1,0,-1
 564 1236 l 1,1,-1
 560 1236 l 1,2,-1
 536 600 l 2,3,4
 528 404 528 404 502.5 296 c 128,-1,5
 477 188 477 188 404 86 c 1,6,7
 307 -38 307 -38 196 -38 c 2,8,-1
 188 -38 l 1,9,10
 80 -28 80 -28 32 60 c 1,11,12
 15 97 15 97 10 126 c 1,13,14
 160 194 160 194 244 300 c 1,15,16
 418 513 418 513 432 1068 c 1,17,18
 436 1292 436 1292 436 1324 c 1,19,-1
 158 1390 l 1,20,-1
 184 1484 l 1,21,22
 356 1518 356 1518 461 1526.5 c 0,23,24
 566 1535 566 1535 690 1540 c 1,25,-1
 798 1332 l 1,26,-1
 1336 338 l 1,27,-1
 1424 1366 l 1,28,-1
 1144 1386 l 1,29,-1
 1168 1480 l 1,30,31
 1364 1523 1364 1523 1477 1530.5 c 0,32,33
 1590 1538 1590 1538 1678 1538 c 128,-1,34
 1766 1538 1766 1538 1856 1532 c 1,35,-1
 1830 1438 l 1,36,-1
 1576 1370 l 1,37,-1
 1448 2 l 1,38,-1
 1250 -38 l 1,0,-1
EndSplineSet
EndChar

StartChar: Nacute
Encoding: 323 323 62
Width: 1864
VWidth: 0
Flags: HW
HStem: -38 21G<155 236 1239.23 1349> 1390 94<184 218.385 1168 1311.25> 1438 94<1776.45 1830> 1520 20G<667 700.385>
VStem: 432 128<856.096 1236>
DStem2: 798 1332 564 1236 0.4741 -0.880471<-26.4141 1130.25> 1336 338 1448 2 0.0931603 0.995651<0 1031.73>
LayerCount: 2
Fore
SplineSet
1250 -38 m 1,0,-1
 564 1236 l 1,1,-1
 560 1236 l 1,2,-1
 536 600 l 2,3,4
 528 404 528 404 502.5 296 c 128,-1,5
 477 188 477 188 404 86 c 1,6,7
 307 -38 307 -38 196 -38 c 2,8,-1
 188 -38 l 1,9,10
 80 -28 80 -28 32 60 c 1,11,12
 15 97 15 97 10 126 c 1,13,14
 157 193 157 193 244 300 c 1,15,16
 418 518 418 518 432 1068 c 1,17,18
 436 1292 436 1292 436 1324 c 1,19,-1
 158 1390 l 1,20,-1
 184 1484 l 1,21,22
 356 1518 356 1518 461 1526.5 c 0,23,24
 566 1535 566 1535 690 1540 c 1,25,-1
 798 1332 l 1,26,-1
 1336 338 l 1,27,-1
 1424 1366 l 1,28,-1
 1144 1386 l 1,29,-1
 1168 1480 l 1,30,31
 1360 1523 1360 1523 1475 1530.5 c 0,32,33
 1590 1538 1590 1538 1678 1538 c 128,-1,34
 1766 1538 1766 1538 1856 1532 c 1,35,-1
 1830 1438 l 1,36,-1
 1576 1370 l 1,37,-1
 1448 2 l 1,38,-1
 1250 -38 l 1,0,-1
1298 2054 m 1,39,-1
 1076 1670 l 1,40,-1
 1014 1708 l 1,41,-1
 1162 2102 l 1,42,-1
 1298 2054 l 1,39,-1
EndSplineSet
EndChar

StartChar: Ncaron
Encoding: 327 327 63
Width: 1864
VWidth: 0
Flags: HW
HStem: -38 21G<155 236 1239.23 1349> 1390 94<184 218.385 1168 1311.25> 1438 94<1776.45 1830> 1520 20G<667 700.385>
VStem: 432 128<856.096 1236>
DStem2: 798 1332 564 1236 0.4741 -0.880471<-26.4141 1130.25> 878 1954 780 1880 0.736873 -0.676031<0 250.267> 1070 1780 1064 1696 0.690318 0.723506<0 226.544> 1336 338 1448 2 0.0931603 0.995651<0 1031.73>
LayerCount: 2
Fore
SplineSet
1250 -38 m 1,0,-1
 564 1236 l 1,1,-1
 560 1236 l 1,2,-1
 536 600 l 2,3,4
 528 404 528 404 502.5 296 c 128,-1,5
 477 188 477 188 404 86 c 1,6,7
 307 -38 307 -38 196 -38 c 2,8,-1
 188 -38 l 1,9,10
 80 -28 80 -28 32 60 c 1,11,12
 15 97 15 97 10 126 c 1,13,14
 157 193 157 193 244 300 c 1,15,16
 418 518 418 518 432 1068 c 1,17,18
 436 1292 436 1292 436 1324 c 1,19,-1
 158 1390 l 1,20,-1
 184 1484 l 1,21,22
 356 1518 356 1518 461 1526.5 c 0,23,24
 566 1535 566 1535 690 1540 c 1,25,-1
 798 1332 l 1,26,-1
 1336 338 l 1,27,-1
 1424 1366 l 1,28,-1
 1144 1386 l 1,29,-1
 1168 1480 l 1,30,31
 1360 1523 1360 1523 1475 1530.5 c 0,32,33
 1590 1538 1590 1538 1678 1538 c 128,-1,34
 1766 1538 1766 1538 1856 1532 c 1,35,-1
 1830 1438 l 1,36,-1
 1576 1370 l 1,37,-1
 1448 2 l 1,38,-1
 1250 -38 l 1,0,-1
998 1680 m 1,39,-1
 780 1880 l 1,40,-1
 878 1954 l 1,41,-1
 1058 1780 l 1,42,-1
 1070 1780 l 1,43,-1
 1220 1950 l 1,44,-1
 1272 1914 l 1,45,-1
 1064 1696 l 1,46,-1
 998 1680 l 1,39,-1
EndSplineSet
EndChar

StartChar: Ncommaaccent
Encoding: 325 325 64
Width: 1864
VWidth: 0
Flags: HW
HStem: -52 20G<875 923> -38 21G<155 236 1239.23 1349> 1390 94<184 218.385 1168 1311.25> 1438 94<1776.45 1830> 1520 20G<667 700.385>
VStem: 432 128<856.096 1236> 872 128<-296.418 -147.792>
DStem2: 798 1332 564 1236 0.4741 -0.880471<-26.4141 1130.25> 1336 338 1448 2 0.0931603 0.995651<0 1031.73>
LayerCount: 2
Fore
SplineSet
1250 -38 m 1,0,-1
 564 1236 l 1,1,-1
 560 1236 l 1,2,-1
 536 600 l 2,3,4
 528 404 528 404 502.5 296 c 128,-1,5
 477 188 477 188 404 86 c 1,6,7
 307 -38 307 -38 196 -38 c 2,8,-1
 188 -38 l 1,9,10
 80 -28 80 -28 32 60 c 1,11,12
 15 97 15 97 10 126 c 1,13,14
 157 193 157 193 244 300 c 1,15,16
 418 518 418 518 432 1068 c 1,17,18
 436 1292 436 1292 436 1324 c 1,19,-1
 158 1390 l 1,20,-1
 184 1484 l 1,21,22
 356 1518 356 1518 461 1526.5 c 128,-1,23
 566 1535 566 1535 690 1540 c 1,24,-1
 798 1332 l 1,25,-1
 1336 338 l 1,26,-1
 1424 1366 l 1,27,-1
 1144 1386 l 1,28,-1
 1168 1480 l 1,29,30
 1360 1523 1360 1523 1475 1530.5 c 128,-1,31
 1590 1538 1590 1538 1678 1538 c 128,-1,32
 1766 1538 1766 1538 1856 1532 c 1,33,-1
 1830 1438 l 1,34,-1
 1576 1370 l 1,35,-1
 1448 2 l 1,36,-1
 1250 -38 l 1,0,-1
892 -32 m 2,37,-1
 902 -32 l 1,38,39
 961 -40 961 -40 988 -108 c 1,40,41
 1000 -135 1000 -135 1000 -154.5 c 128,-1,42
 1000 -174 1000 -174 996 -206 c 1,43,44
 977 -293 977 -293 886 -366 c 1,45,46
 841 -405 841 -405 772 -438 c 1,47,-1
 746 -398 l 1,48,49
 819 -356 819 -356 844 -316 c 1,50,51
 872 -276.8 872 -276.8 872 -236 c 0,52,53
 872 -195.692307692 872 -195.692307692 841.5 -162.846153846 c 128,-1,54
 811 -130 811 -130 788 -116 c 1,55,56
 799 -77 799 -77 831 -54.5 c 128,-1,57
 863 -32 863 -32 892 -32 c 2,37,-1
EndSplineSet
EndChar

StartChar: Ntilde
Encoding: 209 209 65
Width: 1864
VWidth: 0
Flags: HW
HStem: -38 21G<155 236 1239.23 1349> 1390 94<184 218.385 1168 1311.25> 1438 94<1776.45 1830> 1520 20G<667 700.385> 1716 126<1070.48 1240.9> 1754 126<805.826 924.598>
VStem: 432 128<856.096 1236>
DStem2: 798 1332 564 1236 0.4741 -0.880471<-26.4141 1130.25> 1336 338 1448 2 0.0931603 0.995651<0 1031.73>
LayerCount: 2
Fore
SplineSet
1250 -38 m 1,0,-1
 564 1236 l 1,1,-1
 560 1236 l 1,2,-1
 536 600 l 2,3,4
 528 404 528 404 502.5 296 c 128,-1,5
 477 188 477 188 404 86 c 1,6,7
 307 -38 307 -38 196 -38 c 2,8,-1
 188 -38 l 1,9,10
 80 -28 80 -28 32 60 c 1,11,12
 15 97 15 97 10 126 c 1,13,14
 157 193 157 193 244 300 c 1,15,16
 418 518 418 518 432 1068 c 1,17,18
 436 1292 436 1292 436 1324 c 1,19,-1
 158 1390 l 1,20,-1
 184 1484 l 1,21,22
 356 1518 356 1518 461 1526.5 c 128,-1,23
 566 1535 566 1535 690 1540 c 1,24,-1
 798 1332 l 1,25,-1
 1336 338 l 1,26,-1
 1424 1366 l 1,27,-1
 1144 1386 l 1,28,-1
 1168 1480 l 1,29,30
 1360 1523 1360 1523 1475 1530.5 c 128,-1,31
 1590 1538 1590 1538 1678 1538 c 128,-1,32
 1766 1538 1766 1538 1856 1532 c 1,33,-1
 1830 1438 l 1,34,-1
 1576 1370 l 1,35,-1
 1448 2 l 1,36,-1
 1250 -38 l 1,0,-1
862 1754 m 2,37,38
 831.428571429 1754 831.428571429 1754 790 1696 c 1,39,-1
 744 1706 l 1,40,41
 748 1718 748 1718 755 1743.5 c 128,-1,42
 762 1769 762 1769 786 1807 c 0,43,44
 832.105263158 1880 832.105263158 1880 892 1880 c 2,45,-1
 900 1880 l 1,46,47
 902 1878 902 1878 908 1878 c 2,48,-1
 1178 1842 l 1,49,-1
 1182 1842 l 2,50,51
 1208.33333333 1842 1208.33333333 1842 1250 1892 c 1,52,-1
 1308 1890 l 1,53,54
 1250 1716 1250 1716 1150 1716 c 2,55,-1
 1136 1716 l 1,56,-1
 866 1754 l 1,57,-1
 862 1754 l 2,37,38
EndSplineSet
EndChar

StartChar: O
Encoding: 79 79 66
Width: 1336
VWidth: 0
Flags: HW
HStem: -34 182<511.726 796.359> 1396 180<536.953 812.366>
VStem: 10 258<487.318 945.28> 1072 256<623.172 1059.32>
LayerCount: 2
Fore
SplineSet
310.5 1098.5 m 128,-1,1
 268 966 268 966 268 789.5 c 128,-1,2
 268 613 268 613 317.5 464 c 128,-1,3
 367 315 367 315 458.5 231.5 c 128,-1,4
 550 148 550 148 668 148 c 0,5,6
 847 148 847 148 959.5 321.5 c 128,-1,7
 1072 495 1072 495 1072 772 c 0,8,9
 1072 949 1072 949 1021.5 1089.5 c 128,-1,10
 971 1230 971 1230 872 1313 c 128,-1,11
 773 1396 773 1396 649 1396 c 128,-1,12
 525 1396 525 1396 439 1313.5 c 128,-1,0
 353 1231 353 1231 310.5 1098.5 c 128,-1,1
1328 920 m 1,13,14
 1325 647 1325 647 1198 402 c 1,15,16
 1053.82490408 132.186606209 1053.82490408 132.186606209 834 26 c 0,17,18
 711 -34 711 -34 559 -34 c 128,-1,19
 407 -34 407 -34 277.5 56 c 128,-1,20
 148 146 148 146 79 295.5 c 128,-1,21
 10 445 10 445 10 624 c 0,22,23
 10 878 10 878 106.5 1095 c 128,-1,24
 203 1312 203 1312 380 1444 c 128,-1,25
 557 1576 557 1576 780 1576 c 0,26,27
 949 1576 949 1576 1080.5 1477.5 c 128,-1,28
 1212 1379 1212 1379 1270 1233 c 128,-1,29
 1328 1087 1328 1087 1328 926 c 2,30,-1
 1328 920 l 1,13,14
EndSplineSet
EndChar

StartChar: OE
Encoding: 338 338 67
Width: 1934
VWidth: 0
Flags: HW
HStem: -34 182<547.751 822.314> 0 148<611.28 822.217> 4 118<1058 1548.81> 1396 180<572.887 855.385> 1414 134<1218 1667.41>
VStem: 46 256<487.318 945.28> 1704 108<1050 1103.4> 1728 106<435.968 544>
DStem2: 798.706 -34 1038.85 -34 0.121869 0.992546<187.033 783.043 912.039 1344.26>
LayerCount: 2
Fore
SplineSet
960 1264 m 1,0,1
 849 1396 849 1396 676 1396 c 0,2,3
 561 1396 561 1396 474.5 1313.5 c 0,4,5
 302 1148.97687861 302 1148.97687861 302 804 c 0,6,7
 302 515 302 515 413.5 331.5 c 128,-1,8
 525 148 525 148 704 148 c 0,9,10
 767 148 767 148 824 172 c 1,11,-1
 960 1264 l 1,0,1
1738 0 m 1,12,13
 1154 4 1154 4 1098.5 4 c 128,-1,14
 1043 4 1043 4 1012 3.5 c 0,15,16
 927.857142857 2.14285714286 927.857142857 2.14285714286 810 0 c 1,17,18
 711 -34 711 -34 608 -34 c 0,19,20
 444 -34 444 -34 314.5 56 c 128,-1,21
 185 146 185 146 115.5 295.5 c 128,-1,22
 46 445 46 445 46 624 c 0,23,24
 46 878 46 878 142.5 1095 c 128,-1,25
 239 1312 239 1312 416 1444 c 128,-1,26
 593 1576 593 1576 816 1576 c 0,27,28
 943 1576 943 1576 1056 1518 c 1,29,30
 1353 1548 1353 1548 1542 1548 c 2,31,-1
 1636 1548 l 1,32,-1
 1914 1540 l 1,33,-1
 1812 1032 l 1,34,-1
 1704 1050 l 1,35,-1
 1668 1372 l 1,36,-1
 1630 1380 l 1,37,38
 1454 1414 1454 1414 1258 1414 c 2,39,-1
 1218 1414 l 1,40,-1
 1148 842 l 1,41,-1
 1628 862 l 1,42,-1
 1586 686 l 1,43,-1
 1132 714 l 1,44,-1
 1058 122 l 1,45,-1
 1324 134 l 2,46,47
 1450 140 1450 140 1552 164 c 1,48,49
 1593 229 1593 229 1651 358.5 c 128,-1,50
 1709 488 1709 488 1728 558 c 1,51,-1
 1834 544 l 1,52,-1
 1834 536 l 2,53,54
 1834 371 1834 371 1808.5 224 c 128,-1,55
 1783 77 1783 77 1738 0 c 1,12,13
EndSplineSet
EndChar

StartChar: Oacute
Encoding: 211 211 68
Width: 1336
VWidth: 0
Flags: HW
HStem: -34 182<511.587 796.359> 1396 180<536.887 812.366>
VStem: 10 256<487.318 945.28> 1072 256<623.172 1059.32>
LayerCount: 2
Fore
SplineSet
266 804 m 0,0,1
 266 515 266 515 377.5 331.5 c 128,-1,2
 489 148 489 148 668 148 c 128,-1,3
 847 148 847 148 959.5 321.5 c 128,-1,4
 1072 495 1072 495 1072 772 c 0,5,6
 1072 949 1072 949 1021.5 1089.5 c 128,-1,7
 971 1230 971 1230 872 1313 c 128,-1,8
 773 1396 773 1396 649 1396 c 128,-1,9
 525 1396 525 1396 438.5 1313.5 c 0,10,11
 266 1148.97687861 266 1148.97687861 266 804 c 0,0,1
1328 920 m 1,12,13
 1325 647 1325 647 1198 402 c 1,14,15
 1053.82490408 132.186606209 1053.82490408 132.186606209 834 26 c 0,16,17
 711 -34 711 -34 559 -34 c 128,-1,18
 407 -34 407 -34 277.5 56 c 128,-1,19
 148 146 148 146 79 295.5 c 128,-1,20
 10 445 10 445 10 624 c 0,21,22
 10 878 10 878 106.5 1095 c 128,-1,23
 203 1312 203 1312 380 1444 c 128,-1,24
 557 1576 557 1576 780 1576 c 0,25,26
 949 1576 949 1576 1080.5 1477.5 c 128,-1,27
 1212 1379 1212 1379 1270 1233 c 128,-1,28
 1328 1087 1328 1087 1328 926 c 2,29,-1
 1328 920 l 1,12,13
1032 2054 m 1,30,-1
 810 1670 l 1,31,-1
 748 1708 l 1,32,-1
 896 2102 l 1,33,-1
 1032 2054 l 1,30,-1
EndSplineSet
EndChar

StartChar: Ocaron
Encoding: 465 465 69
Width: 1336
VWidth: 0
Flags: HW
HStem: -34 182<511.587 796.359> 1396 180<536.887 812.366>
VStem: 10 256<487.318 945.28> 1072 256<623.172 1059.32>
DStem2: 612 1954 514 1880 0.736873 -0.676031<0 250.267> 804 1780 798 1696 0.690318 0.723506<0 226.544>
LayerCount: 2
Fore
SplineSet
266 804 m 0,0,1
 266 515 266 515 377.5 331.5 c 128,-1,2
 489 148 489 148 668 148 c 128,-1,3
 847 148 847 148 959.5 321.5 c 128,-1,4
 1072 495 1072 495 1072 772 c 0,5,6
 1072 949 1072 949 1021.5 1089.5 c 128,-1,7
 971 1230 971 1230 872 1313 c 128,-1,8
 773 1396 773 1396 649 1396 c 128,-1,9
 525 1396 525 1396 438.5 1313.5 c 0,10,11
 266 1148.97687861 266 1148.97687861 266 804 c 0,0,1
1328 920 m 1,12,13
 1325 647 1325 647 1198 402 c 1,14,15
 1053.82490408 132.186606209 1053.82490408 132.186606209 834 26 c 0,16,17
 711 -34 711 -34 559 -34 c 128,-1,18
 407 -34 407 -34 277.5 56 c 128,-1,19
 148 146 148 146 79 295.5 c 128,-1,20
 10 445 10 445 10 624 c 0,21,22
 10 878 10 878 106.5 1095 c 128,-1,23
 203 1312 203 1312 380 1444 c 128,-1,24
 557 1576 557 1576 780 1576 c 0,25,26
 949 1576 949 1576 1080.5 1477.5 c 128,-1,27
 1212 1379 1212 1379 1270 1233 c 128,-1,28
 1328 1087 1328 1087 1328 926 c 2,29,-1
 1328 920 l 1,12,13
732 1680 m 1,30,-1
 514 1880 l 1,31,-1
 612 1954 l 1,32,-1
 792 1780 l 1,33,-1
 804 1780 l 1,34,-1
 954 1950 l 1,35,-1
 1006 1914 l 1,36,-1
 798 1696 l 1,37,-1
 732 1680 l 1,30,-1
EndSplineSet
EndChar

StartChar: Ocircumflex
Encoding: 212 212 70
Width: 1336
VWidth: 0
Flags: HW
HStem: -34 182<511.587 796.359> 1396 180<536.887 812.366>
VStem: 10 256<487.318 945.28> 1072 256<623.172 1059.32>
LayerCount: 2
Fore
SplineSet
266 804 m 0,0,1
 266 515 266 515 377.5 331.5 c 128,-1,2
 489 148 489 148 668 148 c 128,-1,3
 847 148 847 148 959.5 321.5 c 128,-1,4
 1072 495 1072 495 1072 772 c 0,5,6
 1072 949 1072 949 1021.5 1089.5 c 128,-1,7
 971 1230 971 1230 872 1313 c 128,-1,8
 773 1396 773 1396 649 1396 c 128,-1,9
 525 1396 525 1396 438.5 1313.5 c 0,10,11
 266 1148.97687861 266 1148.97687861 266 804 c 0,0,1
1328 920 m 1,12,13
 1325 647 1325 647 1198 402 c 1,14,15
 1053.82490408 132.186606209 1053.82490408 132.186606209 834 26 c 0,16,17
 711 -34 711 -34 559 -34 c 128,-1,18
 407 -34 407 -34 277.5 56 c 128,-1,19
 148 146 148 146 79 295.5 c 128,-1,20
 10 445 10 445 10 624 c 0,21,22
 10 878 10 878 106.5 1095 c 128,-1,23
 203 1312 203 1312 380 1444 c 128,-1,24
 557 1576 557 1576 780 1576 c 0,25,26
 949 1576 949 1576 1080.5 1477.5 c 128,-1,27
 1212 1379 1212 1379 1270 1233 c 128,-1,28
 1328 1087 1328 1087 1328 926 c 2,29,-1
 1328 920 l 1,12,13
786 1950 m 1,30,-1
 1002 1726 l 1,31,-1
 942 1682 l 1,32,-1
 744 1814 l 1,33,-1
 732 1814 l 1,34,-1
 562 1680 l 1,35,-1
 516 1716 l 1,36,-1
 720 1934 l 1,37,-1
 786 1950 l 1,30,-1
EndSplineSet
EndChar

StartChar: Odieresis
Encoding: 214 214 71
Width: 1336
VWidth: 0
Flags: HW
HStem: -34 182<511.587 796.359> 1396 180<536.887 812.366> 1712 192<510.648 683.259 834.648 1008.67>
VStem: 10 256<487.318 945.28> 494 206<1729 1886.53> 818 208<1730.33 1885.94> 1072 256<623.172 1059.32>
LayerCount: 2
Fore
SplineSet
266 804 m 0,0,1
 266 515 266 515 377.5 331.5 c 128,-1,2
 489 148 489 148 668 148 c 128,-1,3
 847 148 847 148 959.5 321.5 c 128,-1,4
 1072 495 1072 495 1072 772 c 0,5,6
 1072 949 1072 949 1021.5 1089.5 c 128,-1,7
 971 1230 971 1230 872 1313 c 128,-1,8
 773 1396 773 1396 649 1396 c 128,-1,9
 525 1396 525 1396 438.5 1313.5 c 0,10,11
 266 1148.97687861 266 1148.97687861 266 804 c 0,0,1
1328 920 m 1,12,13
 1325 647 1325 647 1198 402 c 1,14,15
 1053.82490408 132.186606209 1053.82490408 132.186606209 834 26 c 0,16,17
 711 -34 711 -34 559 -34 c 128,-1,18
 407 -34 407 -34 277.5 56 c 128,-1,19
 148 146 148 146 79 295.5 c 128,-1,20
 10 445 10 445 10 624 c 0,21,22
 10 878 10 878 106.5 1095 c 128,-1,23
 203 1312 203 1312 380 1444 c 128,-1,24
 557 1576 557 1576 780 1576 c 0,25,26
 949 1576 949 1576 1080.5 1477.5 c 128,-1,27
 1212 1379 1212 1379 1270 1233 c 128,-1,28
 1328 1087 1328 1087 1328 926 c 2,29,-1
 1328 920 l 1,12,13
994.5 1877 m 128,-1,31
 1026 1850 1026 1850 1026 1809 c 128,-1,32
 1026 1768 1026 1768 994.5 1740 c 128,-1,33
 963 1712 963 1712 920.5 1712 c 128,-1,34
 878 1712 878 1712 848 1740 c 128,-1,35
 818 1768 818 1768 818 1809.5 c 128,-1,36
 818 1851 818 1851 848 1877.5 c 128,-1,37
 878 1904 878 1904 920.5 1904 c 128,-1,30
 963 1904 963 1904 994.5 1877 c 128,-1,31
669.5 1877 m 128,-1,39
 700 1850 700 1850 700 1808.5 c 128,-1,40
 700 1767 700 1767 669.5 1739.5 c 128,-1,41
 639 1712 639 1712 596.5 1712 c 128,-1,42
 554 1712 554 1712 524 1740 c 128,-1,43
 494 1768 494 1768 494 1809.5 c 128,-1,44
 494 1851 494 1851 524 1877.5 c 128,-1,45
 554 1904 554 1904 596.5 1904 c 128,-1,38
 639 1904 639 1904 669.5 1877 c 128,-1,39
EndSplineSet
EndChar

StartChar: Ograve
Encoding: 210 210 72
Width: 1336
VWidth: 0
Flags: HW
HStem: -34 182<511.587 796.359> 1396 180<536.887 812.366>
VStem: 10 256<487.318 945.28> 1072 256<623.172 1059.32>
LayerCount: 2
Fore
SplineSet
266 804 m 0,0,1
 266 515 266 515 377.5 331.5 c 128,-1,2
 489 148 489 148 668 148 c 128,-1,3
 847 148 847 148 959.5 321.5 c 128,-1,4
 1072 495 1072 495 1072 772 c 0,5,6
 1072 949 1072 949 1021.5 1089.5 c 128,-1,7
 971 1230 971 1230 872 1313 c 128,-1,8
 773 1396 773 1396 649 1396 c 128,-1,9
 525 1396 525 1396 438.5 1313.5 c 0,10,11
 266 1148.97687861 266 1148.97687861 266 804 c 0,0,1
1328 920 m 1,12,13
 1325 647 1325 647 1198 402 c 1,14,15
 1053.82490408 132.186606209 1053.82490408 132.186606209 834 26 c 0,16,17
 711 -34 711 -34 559 -34 c 128,-1,18
 407 -34 407 -34 277.5 56 c 128,-1,19
 148 146 148 146 79 295.5 c 128,-1,20
 10 445 10 445 10 624 c 0,21,22
 10 878 10 878 106.5 1095 c 128,-1,23
 203 1312 203 1312 380 1444 c 128,-1,24
 557 1576 557 1576 780 1576 c 0,25,26
 949 1576 949 1576 1080.5 1477.5 c 128,-1,27
 1212 1379 1212 1379 1270 1233 c 128,-1,28
 1328 1087 1328 1087 1328 926 c 2,29,-1
 1328 920 l 1,12,13
512 2046 m 1,30,-1
 652 2092 l 1,31,-1
 812 1688 l 1,32,-1
 742 1646 l 1,33,-1
 512 2046 l 1,30,-1
EndSplineSet
EndChar

StartChar: Ohungarumlaut
Encoding: 336 336 73
Width: 1336
VWidth: 0
Flags: HW
HStem: -34 182<511.587 796.359> 1396 180<536.887 812.366>
VStem: 10 256<487.318 945.28> 1072 256<623.172 1059.32>
LayerCount: 2
Fore
SplineSet
266 804 m 0,0,1
 266 515 266 515 377.5 331.5 c 128,-1,2
 489 148 489 148 668 148 c 128,-1,3
 847 148 847 148 959.5 321.5 c 128,-1,4
 1072 495 1072 495 1072 772 c 0,5,6
 1072 949 1072 949 1021.5 1089.5 c 128,-1,7
 971 1230 971 1230 872 1313 c 128,-1,8
 773 1396 773 1396 649 1396 c 128,-1,9
 525 1396 525 1396 438.5 1313.5 c 0,10,11
 266 1148.97687861 266 1148.97687861 266 804 c 0,0,1
1328 920 m 1,12,13
 1325 647 1325 647 1198 402 c 1,14,15
 1053.82490408 132.186606209 1053.82490408 132.186606209 834 26 c 0,16,17
 711 -34 711 -34 559 -34 c 128,-1,18
 407 -34 407 -34 277.5 56 c 128,-1,19
 148 146 148 146 79 295.5 c 128,-1,20
 10 445 10 445 10 624 c 0,21,22
 10 878 10 878 106.5 1095 c 128,-1,23
 203 1312 203 1312 380 1444 c 128,-1,24
 557 1576 557 1576 780 1576 c 0,25,26
 949 1576 949 1576 1080.5 1477.5 c 128,-1,27
 1212 1379 1212 1379 1270 1233 c 128,-1,28
 1328 1087 1328 1087 1328 926 c 2,29,-1
 1328 920 l 1,12,13
1262 1884 m 1,30,-1
 910 1682 l 1,31,-1
 876 1742 l 1,32,-1
 1174 1984 l 1,33,-1
 1262 1884 l 1,30,-1
1018 1890 m 1,34,-1
 654 1682 l 1,35,-1
 620 1742 l 1,36,-1
 928 1994 l 1,37,-1
 1018 1890 l 1,34,-1
EndSplineSet
EndChar

StartChar: Omacron
Encoding: 332 332 74
Width: 1336
VWidth: 0
Flags: HW
HStem: -34 182<511.587 796.359> 1396 180<536.887 812.366> 1706 122<510 1028>
VStem: 10 256<487.318 945.28> 1072 256<623.172 1059.32>
LayerCount: 2
Fore
SplineSet
266 804 m 0,0,1
 266 515 266 515 377.5 331.5 c 128,-1,2
 489 148 489 148 668 148 c 128,-1,3
 847 148 847 148 959.5 321.5 c 128,-1,4
 1072 495 1072 495 1072 772 c 0,5,6
 1072 949 1072 949 1021.5 1089.5 c 128,-1,7
 971 1230 971 1230 872 1313 c 128,-1,8
 773 1396 773 1396 649 1396 c 128,-1,9
 525 1396 525 1396 438.5 1313.5 c 0,10,11
 266 1148.97687861 266 1148.97687861 266 804 c 0,0,1
1328 920 m 1,12,13
 1325 647 1325 647 1198 402 c 1,14,15
 1053.82490408 132.186606209 1053.82490408 132.186606209 834 26 c 0,16,17
 711 -34 711 -34 559 -34 c 128,-1,18
 407 -34 407 -34 277.5 56 c 128,-1,19
 148 146 148 146 79 295.5 c 128,-1,20
 10 445 10 445 10 624 c 0,21,22
 10 878 10 878 106.5 1095 c 128,-1,23
 203 1312 203 1312 380 1444 c 128,-1,24
 557 1576 557 1576 780 1576 c 0,25,26
 949 1576 949 1576 1080.5 1477.5 c 128,-1,27
 1212 1379 1212 1379 1270 1233 c 128,-1,28
 1328 1087 1328 1087 1328 926 c 2,29,-1
 1328 920 l 1,12,13
510 1828 m 1,30,-1
 1044 1828 l 1,31,-1
 1028 1706 l 1,32,-1
 494 1706 l 1,33,-1
 510 1828 l 1,30,-1
EndSplineSet
EndChar

StartChar: Oslash
Encoding: 216 216 75
Width: 1602
VWidth: 0
Flags: HW
HStem: -34 182<511.091 796.359> 1396 180<536.887 815.488>
VStem: 10 256<482.372 945.28> 1072 256<623.172 1066.46>
DStem2: 104 -100 280 -90 0.471392 0.881924<91.7842 219.326 1850.18 1931.89>
LayerCount: 2
Fore
SplineSet
436 254 m 1,0,1
 536 148 536 148 668 148 c 0,2,3
 847 148 847 148 959.5 321.5 c 128,-1,4
 1072 495 1072 495 1072 771 c 128,-1,5
 1072 1047 1072 1047 954 1226 c 1,6,-1
 436 254 l 1,0,1
266 804 m 0,7,8
 266 517 266 517 376 336 c 1,9,-1
 886 1302 l 1,10,11
 780 1396 780 1396 652.5 1396 c 128,-1,12
 525 1396 525 1396 438.5 1313.5 c 0,13,14
 266 1148.97687861 266 1148.97687861 266 804 c 0,7,8
1018 1602 m 1,15,-1
 1194 1612 l 1,16,-1
 1110 1454 l 1,17,18
 1214 1365 1214 1365 1271 1222.5 c 128,-1,19
 1328 1080 1328 1080 1328 926 c 2,20,-1
 1328 920 l 1,21,22
 1325 647 1325 647 1198 402 c 1,23,24
 1053.82490408 132.186606209 1053.82490408 132.186606209 834 26 c 0,25,26
 711 -34 711 -34 580 -34 c 128,-1,27
 449 -34 449 -34 342 18 c 1,28,-1
 280 -90 l 1,29,-1
 104 -100 l 1,30,-1
 218 104 l 1,31,32
 180 139 180 139 131.281159965 149.743390311 c 128,-1,33
 82.5623199294 160.486780621 82.5623199294 160.486780621 71.3408000165 168.509576702 c 0,34,35
 43.1064956524 188.69561818 43.1064956524 188.69561818 26.5532478262 298.34780909 c 128,-1,36
 10 408 10 408 10 643 c 128,-1,37
 10 878 10 878 106.5 1095 c 128,-1,38
 203 1312 203 1312 380 1444 c 128,-1,39
 557 1576 557 1576 780 1576 c 0,40,41
 887 1576 887 1576 982 1536 c 1,42,-1
 1018 1602 l 1,15,-1
EndSplineSet
EndChar

StartChar: Otilde
Encoding: 213 213 76
Width: 1336
VWidth: 0
Flags: HW
HStem: -34 182<511.587 796.359> 1396 180<536.887 812.366> 1716 126<804.48 974.905> 1754 126<539.826 658.598>
VStem: 10 256<487.318 945.28> 1072 256<623.172 1059.32>
LayerCount: 2
Fore
SplineSet
266 804 m 0,0,1
 266 515 266 515 377.5 331.5 c 128,-1,2
 489 148 489 148 668 148 c 128,-1,3
 847 148 847 148 959.5 321.5 c 128,-1,4
 1072 495 1072 495 1072 772 c 0,5,6
 1072 949 1072 949 1021.5 1089.5 c 128,-1,7
 971 1230 971 1230 872 1313 c 128,-1,8
 773 1396 773 1396 649 1396 c 128,-1,9
 525 1396 525 1396 438.5 1313.5 c 0,10,11
 266 1148.97687861 266 1148.97687861 266 804 c 0,0,1
1328 920 m 1,12,13
 1325 647 1325 647 1198 402 c 1,14,15
 1053.82490408 132.186606209 1053.82490408 132.186606209 834 26 c 0,16,17
 711 -34 711 -34 559 -34 c 128,-1,18
 407 -34 407 -34 277.5 56 c 128,-1,19
 148 146 148 146 79 295.5 c 128,-1,20
 10 445 10 445 10 624 c 0,21,22
 10 878 10 878 106.5 1095 c 128,-1,23
 203 1312 203 1312 380 1444 c 128,-1,24
 557 1576 557 1576 780 1576 c 0,25,26
 949 1576 949 1576 1080.5 1477.5 c 128,-1,27
 1212 1379 1212 1379 1270 1233 c 128,-1,28
 1328 1087 1328 1087 1328 926 c 2,29,-1
 1328 920 l 1,12,13
596 1754 m 2,30,31
 565.428571429 1754 565.428571429 1754 524 1696 c 1,32,-1
 478 1706 l 1,33,34
 482 1718 482 1718 489 1743.5 c 128,-1,35
 496 1769 496 1769 520 1807 c 0,36,37
 566.105263158 1880 566.105263158 1880 626 1880 c 2,38,-1
 634 1880 l 1,39,40
 638 1878 638 1878 642 1878 c 2,41,-1
 912 1842 l 1,42,-1
 916 1842 l 2,43,44
 942.333333333 1842 942.333333333 1842 984 1892 c 1,45,-1
 1042 1890 l 1,46,47
 984 1716 984 1716 884 1716 c 2,48,-1
 870 1716 l 1,49,-1
 600 1754 l 1,50,-1
 596 1754 l 2,30,31
EndSplineSet
EndChar

StartChar: P
Encoding: 80 80 77
Width: 1442
VWidth: 0
Flags: HW
HStem: 0 96<32 88.5007 739.776 794> 558 102<674.876 868.69> 1472 88<710.933 980.046>
VStem: 1192 240<939.851 1268.89>
DStem2: 279.863 0 524.319 0 0.121869 0.992546<174.873 1329.15>
LayerCount: 2
Fore
SplineSet
668 660 m 1,0,1
 740 666 740 666 808 684 c 1,2,3
 992 727 992 727 1092 829 c 128,-1,4
 1192 931 1192 931 1192 1090 c 128,-1,5
 1192 1249 1192 1249 1082 1360.5 c 128,-1,6
 972 1472 972 1472 780 1472 c 0,7,8
 744 1472 744 1472 708 1466 c 1,9,-1
 542 144 l 1,10,-1
 824 104 l 1,11,-1
 794 0 l 1,12,-1
 10 0 l 1,13,-1
 32 96 l 1,14,-1
 300 164 l 1,15,-1
 452 1318 l 1,16,-1
 184 1346 l 1,17,-1
 204 1432 l 1,18,19
 570 1560 570 1560 900 1560 c 0,20,21
 1157 1560 1157 1560 1294.5 1448 c 128,-1,22
 1432 1336 1432 1336 1432 1128 c 0,23,24
 1432 914.176470588 1432 914.176470588 1237.5 754 c 0,25,26
 1144 677 1144 677 999 625 c 128,-1,27
 854 573 854 573 676 558 c 1,28,-1
 668 660 l 1,0,1
EndSplineSet
EndChar

StartChar: Q
Encoding: 81 81 78
Width: 1350
VWidth: 0
Flags: HW
HStem: -476 226<937.249 1145.67> -32 176<501.618 642> 1400 176<549.135 814.518>
VStem: 12 248<457.472 976.728> 1064 248<602.453 1066.27>
LayerCount: 2
Fore
SplineSet
774 1576 m 2,0,-1
 800 1576 l 1,1,2
 1064.91648448 1563.18146043 1064.91648448 1563.18146043 1200 1340 c 1,3,4
 1312 1153 1312 1153 1312 910 c 0,5,6
 1312 809 1312 809 1288 686 c 0,7,8
 1240 450 1240 450 1117.5 275.5 c 128,-1,9
 995 101 995 101 802 18 c 1,10,11
 817.996015936 -109.96812749 817.996015936 -109.96812749 917 -192 c 0,12,13
 987 -250 987 -250 1074 -250 c 2,14,-1
 1080 -250 l 2,15,16
 1128 -250 1128 -250 1194 -226 c 128,-1,17
 1260 -202 1260 -202 1314 -166 c 1,18,-1
 1342 -266 l 1,19,20
 1202 -453 1202 -453 990 -476 c 1,21,-1
 972 -476 l 1,22,23
 964 -478 964 -478 954 -478 c 0,24,25
 812 -478 812 -478 730 -388 c 128,-1,26
 648 -298 648 -298 638 -148 c 1,27,-1
 638 -128 l 1,28,29
 636 -120 636 -120 636 -92.5 c 128,-1,30
 636 -65 636 -65 642 -26 c 1,31,32
 606 -32 606 -32 552.5 -32 c 128,-1,33
 499 -32 499 -32 446 -18 c 1,34,35
 277 22 277 22 158 167 c 0,36,37
 12 344.899159664 12 344.899159664 12 660 c 0,38,39
 12 1100 12 1100 296 1370 c 0,40,41
 417 1485 417 1485 572 1540 c 1,42,43
 668 1576 668 1576 774 1576 c 2,0,-1
413.5 1299.5 m 0,44,45
 260 1138.27672956 260 1138.27672956 260 804 c 0,46,47
 260 520 260 520 340 362 c 1,48,49
 405 236 405 236 520 178 c 1,50,51
 585 144 585 144 634.5 144 c 128,-1,52
 684 144 684 144 692 146 c 1,53,54
 784 155 784 155 856 208 c 0,55,56
 984 301 984 301 1032 488 c 1,57,58
 1064 596 1064 596 1064 744 c 0,59,60
 1064 752 1064 752 1060 844 c 1,61,62
 1035 1194 1035 1194 848 1332 c 1,63,64
 762 1400 762 1400 648 1400 c 0,65,66
 509.185628743 1400 509.185628743 1400 413.5 1299.5 c 0,44,45
EndSplineSet
EndChar

StartChar: R
Encoding: 82 82 79
Width: 1530
VWidth: 0
Flags: HW
HStem: -22 21G<1229 1327> 0 88<32 86.0672 677.713 728> 1458 98<706.043 974.174>
VStem: 1130 252<1010 1295.58>
DStem2: 273.899 -22 505.091 -22 0.121869 0.992546<183.332 1349.73> 934 706 758 560 0.509492 -0.860475<0 637.456>
LayerCount: 2
Fore
SplineSet
524 132 m 1,0,-1
 752 88 l 1,1,-1
 728 0 l 1,2,-1
 10 0 l 1,3,-1
 32 92 l 1,4,-1
 296 158 l 1,5,-1
 452 1316 l 1,6,-1
 178 1332 l 1,7,-1
 196 1428 l 1,8,9
 319 1470 319 1470 524 1513 c 128,-1,10
 729 1556 729 1556 824.5 1556 c 128,-1,11
 920 1556 920 1556 934 1554 c 1,12,13
 1268 1531 1268 1531 1360 1296 c 1,14,15
 1382 1243 1382 1243 1382 1196 c 0,16,17
 1382 1053.93277311 1382 1053.93277311 1297.5 946 c 0,18,19
 1238 870 1238 870 1134 808 c 128,-1,20
 1030 746 1030 746 934 710 c 1,21,-1
 934 706 l 1,22,-1
 1114 402 l 1,23,24
 1172 301 1172 301 1210 255 c 128,-1,25
 1248 209 1248 209 1295.5 178 c 128,-1,26
 1343 147 1343 147 1424 132 c 1,27,-1
 1522 112 l 1,28,-1
 1512 38 l 1,29,30
 1410 -22 1410 -22 1300 -22 c 0,31,32
 1110 -22 1110 -22 994 134 c 0,33,34
 959 182 959 182 912 270 c 2,35,-1
 758 560 l 1,36,37
 729 607 729 607 720 618 c 2,38,-1
 676 676 l 1,39,-1
 654 702 l 1,40,-1
 668 738 l 1,41,-1
 764 760 l 1,42,43
 977.207890744 803.307852807 977.207890744 803.307852807 1059 913.5 c 0,44,45
 1095 962 1095 962 1112.5 1014.5 c 128,-1,46
 1130 1067 1130 1067 1130 1122 c 0,47,48
 1130 1259 1130 1259 1042 1358.5 c 128,-1,49
 954 1458 954 1458 816 1458 c 0,50,51
 752 1458 752 1458 704 1444 c 1,52,-1
 524 132 l 1,0,-1
EndSplineSet
EndChar

StartChar: Racute
Encoding: 340 340 80
Width: 1530
VWidth: 0
Flags: HW
HStem: -22 21G<1229 1327> 0 88<32 86.0672 677.713 728> 1458 98<705.594 974.174>
VStem: 1128 254<1011.67 1295.99>
DStem2: 273.899 -22 505.091 -22 0.121869 0.992546<183.332 1349.73> 934 706 758 560 0.509492 -0.860475<0 637.456>
LayerCount: 2
Fore
SplineSet
524 132 m 1,0,-1
 752 88 l 1,1,-1
 728 0 l 1,2,-1
 10 0 l 1,3,-1
 32 92 l 1,4,-1
 296 158 l 1,5,-1
 452 1316 l 1,6,-1
 178 1332 l 1,7,-1
 196 1428 l 1,8,9
 319 1470 319 1470 523.5 1513 c 128,-1,10
 728 1556 728 1556 823 1556 c 128,-1,11
 918 1556 918 1556 934 1554 c 0,12,13
 1268 1531 1268 1531 1360 1296 c 1,14,15
 1382 1233 1382 1233 1382 1189.5 c 0,16,17
 1382 1053.93277311 1382 1053.93277311 1297.5 946 c 0,18,19
 1238 870 1238 870 1134 808 c 128,-1,20
 1030 746 1030 746 934 710 c 1,21,-1
 934 706 l 1,22,-1
 1114 402 l 2,23,24
 1168 312 1168 312 1210.5 259.5 c 128,-1,25
 1253 207 1253 207 1298 177 c 128,-1,26
 1343 147 1343 147 1424 132 c 1,27,-1
 1522 112 l 1,28,-1
 1512 38 l 1,29,30
 1410 -22 1410 -22 1300 -22 c 0,31,32
 1110 -22 1110 -22 994 134 c 0,33,34
 959 182 959 182 912 270 c 2,35,-1
 758 560 l 1,36,37
 729 607 729 607 720 618 c 2,38,-1
 676 676 l 1,39,-1
 654 702 l 1,40,-1
 668 738 l 1,41,-1
 764 760 l 1,42,43
 979.342155009 805.678638941 979.342155009 805.678638941 1061 916.5 c 0,44,45
 1128 1007.42857143 1128 1007.42857143 1128 1134.71428571 c 128,-1,46
 1128 1262 1128 1262 1041 1360 c 128,-1,47
 954 1458 954 1458 816 1458 c 0,48,49
 752 1458 752 1458 704 1444 c 1,50,-1
 524 132 l 1,0,-1
1206 2054 m 1,51,-1
 984 1670 l 1,52,-1
 922 1708 l 1,53,-1
 1070 2102 l 1,54,-1
 1206 2054 l 1,51,-1
EndSplineSet
EndChar

StartChar: Rcaron
Encoding: 344 344 81
Width: 1530
VWidth: 0
Flags: HW
HStem: -22 21G<1229 1327> 0 88<32 86.0672 677.713 728> 1458 98<705.594 974.174>
VStem: 1128 254<1011.67 1295.99>
DStem2: 273.899 -22 505.091 -22 0.121869 0.992546<183.332 1349.73> 786 1954 688 1880 0.736873 -0.676031<0 250.267> 934 706 758 560 0.509492 -0.860475<0 637.456> 978 1780 972 1696 0.690318 0.723506<0 226.544>
LayerCount: 2
Fore
SplineSet
524 132 m 1,0,-1
 752 88 l 1,1,-1
 728 0 l 1,2,-1
 10 0 l 1,3,-1
 32 92 l 1,4,-1
 296 158 l 1,5,-1
 452 1316 l 1,6,-1
 178 1332 l 1,7,-1
 196 1428 l 1,8,9
 319 1470 319 1470 523.5 1513 c 128,-1,10
 728 1556 728 1556 823 1556 c 128,-1,11
 918 1556 918 1556 934 1554 c 0,12,13
 1268 1531 1268 1531 1360 1296 c 1,14,15
 1382 1233 1382 1233 1382 1189.5 c 0,16,17
 1382 1053.93277311 1382 1053.93277311 1297.5 946 c 0,18,19
 1238 870 1238 870 1134 808 c 128,-1,20
 1030 746 1030 746 934 710 c 1,21,-1
 934 706 l 1,22,-1
 1114 402 l 2,23,24
 1168 312 1168 312 1210.5 259.5 c 128,-1,25
 1253 207 1253 207 1298 177 c 128,-1,26
 1343 147 1343 147 1424 132 c 1,27,-1
 1522 112 l 1,28,-1
 1512 38 l 1,29,30
 1410 -22 1410 -22 1300 -22 c 0,31,32
 1110 -22 1110 -22 994 134 c 0,33,34
 959 182 959 182 912 270 c 2,35,-1
 758 560 l 1,36,37
 729 607 729 607 720 618 c 2,38,-1
 676 676 l 1,39,-1
 654 702 l 1,40,-1
 668 738 l 1,41,-1
 764 760 l 1,42,43
 979.342155009 805.678638941 979.342155009 805.678638941 1061 916.5 c 0,44,45
 1128 1007.42857143 1128 1007.42857143 1128 1134.71428571 c 128,-1,46
 1128 1262 1128 1262 1041 1360 c 128,-1,47
 954 1458 954 1458 816 1458 c 0,48,49
 752 1458 752 1458 704 1444 c 1,50,-1
 524 132 l 1,0,-1
906 1680 m 1,51,-1
 688 1880 l 1,52,-1
 786 1954 l 1,53,-1
 966 1780 l 1,54,-1
 978 1780 l 1,55,-1
 1128 1950 l 1,56,-1
 1180 1914 l 1,57,-1
 972 1696 l 1,58,-1
 906 1680 l 1,51,-1
EndSplineSet
EndChar

StartChar: Rcommaaccent
Encoding: 342 342 82
Width: 1530
VWidth: 0
Flags: HW
HStem: -52 20G<855 903> -22 21G<1229 1327> 0 88<32 86.0672 677.713 728> 1458 98<705.594 974.174>
VStem: 852 128<-296.418 -147.792> 1128 254<1011.67 1295.99>
DStem2: 222.82 -438 454.013 -438 0.121869 0.992546<602.456 1768.86> 934 706 758 560 0.509492 -0.860475<0 637.456>
LayerCount: 2
Fore
SplineSet
524 132 m 1,0,-1
 752 88 l 1,1,-1
 728 0 l 1,2,-1
 10 0 l 1,3,-1
 32 92 l 1,4,-1
 296 158 l 1,5,-1
 452 1316 l 1,6,-1
 178 1332 l 1,7,-1
 196 1428 l 1,8,9
 319 1470 319 1470 523.5 1513 c 128,-1,10
 728 1556 728 1556 823 1556 c 128,-1,11
 918 1556 918 1556 934 1554 c 0,12,13
 1268 1531 1268 1531 1360 1296 c 1,14,15
 1382 1233 1382 1233 1382 1189.5 c 0,16,17
 1382 1053.93277311 1382 1053.93277311 1297.5 946 c 0,18,19
 1238 870 1238 870 1134 808 c 128,-1,20
 1030 746 1030 746 934 710 c 1,21,-1
 934 706 l 1,22,-1
 1114 402 l 2,23,24
 1168 312 1168 312 1210.5 259.5 c 128,-1,25
 1253 207 1253 207 1298 177 c 128,-1,26
 1343 147 1343 147 1424 132 c 1,27,-1
 1522 112 l 1,28,-1
 1512 38 l 1,29,30
 1410 -22 1410 -22 1300 -22 c 0,31,32
 1110 -22 1110 -22 994 134 c 0,33,34
 959 182 959 182 912 270 c 2,35,-1
 758 560 l 1,36,37
 729 607 729 607 720 618 c 2,38,-1
 676 676 l 1,39,-1
 654 702 l 1,40,-1
 668 738 l 1,41,-1
 764 760 l 1,42,43
 979.342155009 805.678638941 979.342155009 805.678638941 1061 916.5 c 0,44,45
 1128 1007.42857143 1128 1007.42857143 1128 1134.71428571 c 128,-1,46
 1128 1262 1128 1262 1041 1360 c 128,-1,47
 954 1458 954 1458 816 1458 c 0,48,49
 752 1458 752 1458 704 1444 c 1,50,-1
 524 132 l 1,0,-1
872 -32 m 2,51,-1
 882 -32 l 1,52,53
 941 -40 941 -40 968 -108 c 1,54,55
 980 -135 980 -135 980 -154.5 c 128,-1,56
 980 -174 980 -174 976 -206 c 1,57,58
 957 -293 957 -293 866 -366 c 1,59,60
 821 -405 821 -405 752 -438 c 1,61,-1
 726 -398 l 1,62,63
 799 -356 799 -356 824 -316 c 1,64,65
 852 -276.8 852 -276.8 852 -236 c 0,66,67
 852 -195.692307692 852 -195.692307692 821.5 -162.846153846 c 128,-1,68
 791 -130 791 -130 768 -116 c 1,69,70
 779 -77 779 -77 811 -54.5 c 128,-1,71
 843 -32 843 -32 872 -32 c 2,51,-1
EndSplineSet
EndChar

StartChar: S
Encoding: 83 83 83
Width: 1062
VWidth: 0
Flags: HW
HStem: -30 128<368.904 652.144> 1464 116<527.537 795.979>
VStem: 10 282<174.358 419.051> 196 236<1092.4 1289.99> 756 250<251.111 477.281> 868 108<1052 1104.7>
LayerCount: 2
Fore
SplineSet
328 496 m 1,0,1
 292 392.909090909 292 392.909090909 292 316 c 0,2,3
 292 201 292 201 372 140 c 1,4,5
 414 111 414 111 457 104.5 c 128,-1,6
 500 98 500 98 508 98 c 0,7,8
 583 98 583 98 651 141 c 0,9,10
 756 207.397058824 756 207.397058824 756 323.698529412 c 128,-1,11
 756 440 756 440 676 522 c 1,12,13
 647 556 647 556 578 610 c 1,14,15
 383 767 383 767 288.5 881 c 128,-1,16
 194 995 194 995 194 1120 c 0,17,18
 194 1128 194 1128 196 1134 c 1,19,-1
 196 1148 l 1,20,21
 202 1224 202 1224 238 1290 c 0,22,23
 302 1411 302 1411 425.5 1490 c 128,-1,24
 549 1569 549 1569 688 1580 c 1,25,-1
 718 1580 l 2,26,27
 914 1580 914 1580 1056 1456 c 1,28,-1
 976 1028 l 1,29,-1
 868 1052 l 1,30,-1
 858 1360 l 1,31,32
 799 1440 799 1440 712 1458 c 1,33,34
 688 1464 688 1464 662 1464 c 0,35,36
 577 1464 577 1464 507.5 1408 c 128,-1,37
 438 1352 438 1352 432 1256 c 1,38,-1
 432 1242 l 2,39,40
 432 1152 432 1152 479 1085.5 c 128,-1,41
 526 1019 526 1019 640.5 927 c 128,-1,42
 755 835 755 835 823.5 770.5 c 128,-1,43
 892 706 892 706 942 634 c 128,-1,44
 992 562 992 562 1004 464 c 1,45,46
 1006 458 1006 458 1006 430 c 0,47,48
 1006 269 1006 269 888 148 c 1,49,50
 720 -30 720 -30 456 -30 c 0,51,52
 271.538461538 -30 271.538461538 -30 140 60 c 0,53,54
 85 98 85 98 51.5 152 c 128,-1,55
 18 206 18 206 12 256 c 1,56,57
 10 262 10 262 10 287 c 128,-1,58
 10 312 10 312 20 352 c 1,59,60
 52 449 52 449 148 488 c 1,61,62
 191 508 191 508 240 508 c 128,-1,63
 289 508 289 508 328 496 c 1,0,1
EndSplineSet
EndChar

StartChar: Sacute
Encoding: 346 346 84
Width: 1062
VWidth: 0
Flags: HW
HStem: -30 128<368.904 653.605> 1464 116<527.909 795.205>
VStem: 10 282<174.669 419.051> 196 236<1094.82 1289.99> 756 250<250.531 477.425> 868 108<1052 1104.7>
LayerCount: 2
Fore
SplineSet
328 496 m 1,0,1
 292 392.909090909 292 392.909090909 292 316 c 0,2,3
 292 201 292 201 372 140 c 1,4,5
 432.827586207 98 432.827586207 98 507.913793103 98 c 128,-1,6
 583 98 583 98 651 141 c 0,7,8
 756 207.397058824 756 207.397058824 756 323.698529412 c 128,-1,9
 756 440 756 440 676 522 c 0,10,11
 650 550 650 550 578 610 c 1,12,13
 383 767 383 767 300 868 c 1,14,15
 196 1000 196 1000 196 1120 c 2,16,-1
 196 1148 l 1,17,18
 202 1218 202 1218 238 1290 c 1,19,20
 303 1413 303 1413 425.5 1491 c 128,-1,21
 548 1569 548 1569 688 1580 c 1,22,-1
 718 1580 l 2,23,24
 914 1580 914 1580 1056 1456 c 1,25,-1
 976 1028 l 1,26,-1
 868 1052 l 1,27,-1
 858 1360 l 1,28,29
 779.662337662 1464 779.662337662 1464 660 1464 c 0,30,31
 578 1464 578 1464 508 1407.5 c 128,-1,32
 438 1351 438 1351 432 1256 c 1,33,-1
 432 1240 l 2,34,35
 432 1155 432 1155 476.5 1092 c 128,-1,36
 521 1029 521 1029 636 932 c 1,37,38
 868 744 868 744 938 640 c 1,39,40
 992 562 992 562 1004 464 c 1,41,42
 1006 456 1006 456 1006 428 c 0,43,44
 1006 269 1006 269 888 148 c 1,45,46
 800 55 800 55 685 12.5 c 128,-1,47
 570 -30 570 -30 467.5 -30 c 0,48,49
 271.538461538 -30 271.538461538 -30 140 60 c 0,50,51
 85 98 85 98 51.5 152 c 128,-1,52
 18 206 18 206 12 256 c 1,53,54
 10 262 10 262 10 287 c 128,-1,55
 10 312 10 312 20 352 c 1,56,57
 52 449 52 449 148 488 c 1,58,59
 191 508 191 508 240 508 c 128,-1,60
 289 508 289 508 328 496 c 1,0,1
984 2054 m 1,61,-1
 762 1670 l 1,62,-1
 700 1708 l 1,63,-1
 848 2102 l 1,64,-1
 984 2054 l 1,61,-1
EndSplineSet
EndChar

StartChar: Scaron
Encoding: 352 352 85
Width: 1062
VWidth: 0
Flags: HW
HStem: -30 128<368.904 653.605> 1464 116<527.909 795.205>
VStem: 10 282<174.669 419.051> 196 236<1094.82 1289.99> 756 250<250.531 477.425> 868 108<1052 1104.7>
DStem2: 564 1954 466 1880 0.736873 -0.676031<0 250.267> 756 1780 750 1696 0.690318 0.723506<0 226.544>
LayerCount: 2
Fore
SplineSet
328 496 m 1,0,1
 292 392.909090909 292 392.909090909 292 316 c 0,2,3
 292 201 292 201 372 140 c 1,4,5
 432.827586207 98 432.827586207 98 507.913793103 98 c 128,-1,6
 583 98 583 98 651 141 c 0,7,8
 756 207.397058824 756 207.397058824 756 323.698529412 c 128,-1,9
 756 440 756 440 676 522 c 0,10,11
 650 550 650 550 578 610 c 1,12,13
 383 767 383 767 300 868 c 1,14,15
 196 1000 196 1000 196 1120 c 2,16,-1
 196 1148 l 1,17,18
 202 1218 202 1218 238 1290 c 1,19,20
 303 1413 303 1413 425.5 1491 c 128,-1,21
 548 1569 548 1569 688 1580 c 1,22,-1
 718 1580 l 2,23,24
 914 1580 914 1580 1056 1456 c 1,25,-1
 976 1028 l 1,26,-1
 868 1052 l 1,27,-1
 858 1360 l 1,28,29
 779.662337662 1464 779.662337662 1464 660 1464 c 0,30,31
 578 1464 578 1464 508 1407.5 c 128,-1,32
 438 1351 438 1351 432 1256 c 1,33,-1
 432 1240 l 2,34,35
 432 1155 432 1155 476.5 1092 c 128,-1,36
 521 1029 521 1029 636 932 c 1,37,38
 868 744 868 744 938 640 c 1,39,40
 992 562 992 562 1004 464 c 1,41,42
 1006 456 1006 456 1006 428 c 0,43,44
 1006 269 1006 269 888 148 c 1,45,46
 800 55 800 55 685 12.5 c 128,-1,47
 570 -30 570 -30 467.5 -30 c 0,48,49
 271.538461538 -30 271.538461538 -30 140 60 c 0,50,51
 85 98 85 98 51.5 152 c 128,-1,52
 18 206 18 206 12 256 c 1,53,54
 10 262 10 262 10 287 c 128,-1,55
 10 312 10 312 20 352 c 1,56,57
 52 449 52 449 148 488 c 1,58,59
 191 508 191 508 240 508 c 128,-1,60
 289 508 289 508 328 496 c 1,0,1
684 1680 m 1,61,-1
 466 1880 l 1,62,-1
 564 1954 l 1,63,-1
 744 1780 l 1,64,-1
 756 1780 l 1,65,-1
 906 1950 l 1,66,-1
 958 1914 l 1,67,-1
 750 1696 l 1,68,-1
 684 1680 l 1,61,-1
EndSplineSet
EndChar

StartChar: Scedilla
Encoding: 350 350 86
Width: 1062
VWidth: 0
Flags: HW
HStem: -472 21G<375.333 463> -30 128<369.671 468> 1464 116<527.909 795.205>
VStem: 10 282<174.669 419.051> 196 236<1094.82 1289.99> 462 162<-371.244 -212.843> 756 250<250.531 477.425> 868 108<1052 1104.7>
LayerCount: 2
Fore
SplineSet
328 496 m 1,0,1
 292 392.909090909 292 392.909090909 292 316 c 0,2,3
 292 201 292 201 372 140 c 1,4,5
 432.827586207 98 432.827586207 98 507.913793103 98 c 128,-1,6
 583 98 583 98 651 141 c 0,7,8
 756 207.397058824 756 207.397058824 756 323.698529412 c 128,-1,9
 756 440 756 440 676 522 c 0,10,11
 650 550 650 550 578 610 c 1,12,13
 383 767 383 767 300 868 c 1,14,15
 196 1000 196 1000 196 1120 c 2,16,-1
 196 1148 l 1,17,18
 202 1218 202 1218 238 1290 c 1,19,20
 303 1413 303 1413 425.5 1491 c 128,-1,21
 548 1569 548 1569 688 1580 c 1,22,-1
 718 1580 l 2,23,24
 914 1580 914 1580 1056 1456 c 1,25,-1
 976 1028 l 1,26,-1
 868 1052 l 1,27,-1
 858 1360 l 1,28,29
 779.662337662 1464 779.662337662 1464 660 1464 c 0,30,31
 578 1464 578 1464 508 1407.5 c 128,-1,32
 438 1351 438 1351 432 1256 c 1,33,-1
 432 1240 l 2,34,35
 432 1155 432 1155 476.5 1092 c 128,-1,36
 521 1029 521 1029 636 932 c 1,37,38
 868 744 868 744 938 640 c 1,39,40
 992 562 992 562 1004 464 c 1,41,42
 1006 456 1006 456 1006 428 c 0,43,44
 1006 269 1006 269 888 148 c 1,45,46
 794 48 794 48 648 0 c 1,47,48
 586 -18 586 -18 566 -20 c 1,49,-1
 516 -92 l 1,50,51
 624 -185 624 -185 624 -274 c 0,52,53
 624 -400 624 -400 382 -472 c 1,54,-1
 358 -400 l 1,55,56
 462 -364 462 -364 462 -300 c 0,57,58
 462 -251 462 -251 374 -166 c 1,59,-1
 468 -30 l 1,60,-1
 456 -30 l 2,61,62
 271.538461538 -30 271.538461538 -30 140 60 c 0,63,64
 85 98 85 98 51.5 152 c 128,-1,65
 18 206 18 206 12 256 c 1,66,67
 10 262 10 262 10 287 c 128,-1,68
 10 312 10 312 20 352 c 1,69,70
 52 449 52 449 148 488 c 1,71,72
 191 508 191 508 240 508 c 128,-1,73
 289 508 289 508 328 496 c 1,0,1
EndSplineSet
EndChar

StartChar: Scommaaccent
Encoding: 536 536 87
Width: 1062
VWidth: 0
Flags: HW
HStem: -52 20G<475 523> -30 128<368.904 653.605> 1464 116<527.909 795.205>
VStem: 10 282<174.669 419.051> 196 236<1094.82 1289.99> 472 128<-296.418 -147.792> 756 250<250.531 477.425> 868 108<1052 1104.7>
LayerCount: 2
Fore
SplineSet
328 496 m 1,0,1
 292 392.909090909 292 392.909090909 292 316 c 0,2,3
 292 201 292 201 372 140 c 1,4,5
 432.827586207 98 432.827586207 98 507.913793103 98 c 128,-1,6
 583 98 583 98 651 141 c 0,7,8
 756 207.397058824 756 207.397058824 756 323.698529412 c 128,-1,9
 756 440 756 440 676 522 c 0,10,11
 650 550 650 550 578 610 c 1,12,13
 383 767 383 767 300 868 c 1,14,15
 196 1000 196 1000 196 1120 c 2,16,-1
 196 1148 l 1,17,18
 202 1218 202 1218 238 1290 c 1,19,20
 303 1413 303 1413 425.5 1491 c 128,-1,21
 548 1569 548 1569 688 1580 c 1,22,-1
 718 1580 l 2,23,24
 914 1580 914 1580 1056 1456 c 1,25,-1
 976 1028 l 1,26,-1
 868 1052 l 1,27,-1
 858 1360 l 1,28,29
 779.662337662 1464 779.662337662 1464 660 1464 c 0,30,31
 578 1464 578 1464 508 1407.5 c 128,-1,32
 438 1351 438 1351 432 1256 c 1,33,-1
 432 1240 l 2,34,35
 432 1155 432 1155 476.5 1092 c 128,-1,36
 521 1029 521 1029 636 932 c 1,37,38
 868 744 868 744 938 640 c 1,39,40
 992 562 992 562 1004 464 c 1,41,42
 1006 456 1006 456 1006 428 c 0,43,44
 1006 269 1006 269 888 148 c 1,45,46
 800 55 800 55 685 12.5 c 128,-1,47
 570 -30 570 -30 467.5 -30 c 0,48,49
 271.538461538 -30 271.538461538 -30 140 60 c 0,50,51
 85 98 85 98 51.5 152 c 128,-1,52
 18 206 18 206 12 256 c 1,53,54
 10 262 10 262 10 287 c 128,-1,55
 10 312 10 312 20 352 c 1,56,57
 52 449 52 449 148 488 c 1,58,59
 191 508 191 508 240 508 c 128,-1,60
 289 508 289 508 328 496 c 1,0,1
492 -32 m 2,61,-1
 502 -32 l 1,62,63
 561 -40 561 -40 588 -108 c 1,64,65
 600 -135 600 -135 600 -154.5 c 128,-1,66
 600 -174 600 -174 596 -206 c 1,67,68
 577 -293 577 -293 486 -366 c 1,69,70
 441 -405 441 -405 372 -438 c 1,71,-1
 346 -398 l 1,72,73
 419 -356 419 -356 444 -316 c 1,74,75
 472 -276.8 472 -276.8 472 -236 c 0,76,77
 472 -195.865384615 472 -195.865384615 441.5 -162.432692308 c 128,-1,78
 411 -129 411 -129 388 -116 c 1,79,80
 399 -77 399 -77 431 -54.5 c 128,-1,81
 463 -32 463 -32 492 -32 c 2,61,-1
EndSplineSet
EndChar

StartChar: T
Encoding: 84 84 88
Width: 1362
VWidth: 0
Flags: HW
HStem: -2 100<120 176.922 825.048 920> 1410 138<296.863 532.732 786 1095>
VStem: 10 118<1028 1060.11> 1136 118<1028 1087.69>
DStem2: 369.372 -2 615.056 -2 0.121869 0.992546<169.262 1400.79>
LayerCount: 2
Fore
SplineSet
536 1388 m 1,0,1
 378.333333333 1410 378.333333333 1410 321.166666667 1410 c 128,-1,2
 264 1410 264 1410 246 1408 c 1,3,-1
 128 1012 l 1,4,-1
 10 1028 l 1,5,-1
 10 1512 l 1,6,7
 346 1542 346 1542 766 1548 c 1,8,-1
 904 1548 l 1,9,-1
 1354 1540 l 1,10,-1
 1254 1012 l 1,11,-1
 1136 1028 l 1,12,-1
 1100 1380 l 1,13,14
 925 1410 925 1410 786 1414 c 1,15,-1
 632 136 l 1,16,-1
 942 98 l 1,17,-1
 920 -2 l 1,18,-1
 92 -2 l 1,19,-1
 120 98 l 1,20,-1
 390 166 l 1,21,-1
 536 1388 l 1,0,1
EndSplineSet
EndChar

StartChar: Tbar
Encoding: 358 358 89
Width: 1362
VWidth: 0
Flags: HW
HStem: -2 100<120 176.922 825.048 920> 1410 138<296.863 532.732 786 1095> 1706 122<432 950>
VStem: 10 120<1028 1060.94> 1136 116<1028 1086.21>
DStem2: 369.372 -2 615.056 -2 0.121869 0.992546<169.262 1400.79>
LayerCount: 2
Fore
SplineSet
884 1548 m 2,0,1
 1170 1548 1170 1548 1354 1540 c 1,2,-1
 1252 1012 l 1,3,-1
 1136 1028 l 1,4,-1
 1100 1380 l 1,5,6
 925 1410 925 1410 786 1414 c 1,7,-1
 632 136 l 1,8,-1
 942 98 l 1,9,-1
 920 -2 l 1,10,-1
 92 -2 l 1,11,-1
 120 98 l 1,12,-1
 390 166 l 1,13,-1
 536 1388 l 1,14,15
 407 1406 407 1406 383.5 1408 c 0,16,17
 360 1410 360 1410 292 1410 c 2,18,19
 270 1410 l 1,20,21
 260 1408 260 1408 246 1408 c 1,22,-1
 130 1012 l 1,23,-1
 10 1028 l 1,24,-1
 10 1512 l 1,25,26
 346 1542 346 1542 766 1548 c 1,27,-1
 884 1548 l 2,0,1
432 1828 m 1,28,-1
 966 1828 l 1,29,-1
 950 1706 l 1,30,-1
 416 1706 l 1,31,-1
 432 1828 l 1,28,-1
EndSplineSet
EndChar

StartChar: Tcaron
Encoding: 356 356 90
Width: 1362
VWidth: 0
Flags: HW
HStem: -2 100<120 176.922 825.048 920> 1410 138<296.863 532.732 786 1095>
VStem: 10 120<1028 1060.94> 1136 116<1028 1086.21>
DStem2: 369.372 -2 615.056 -2 0.121869 0.992546<169.262 1400.79> 534 1954 436 1880 0.736873 -0.676031<0 250.267> 726 1780 720 1696 0.690318 0.723506<0 226.544>
LayerCount: 2
Fore
SplineSet
884 1548 m 2,0,1
 1170 1548 1170 1548 1354 1540 c 1,2,-1
 1252 1012 l 1,3,-1
 1136 1028 l 1,4,-1
 1100 1380 l 1,5,6
 925 1410 925 1410 786 1414 c 1,7,-1
 632 136 l 1,8,-1
 942 98 l 1,9,-1
 920 -2 l 1,10,-1
 92 -2 l 1,11,-1
 120 98 l 1,12,-1
 390 166 l 1,13,-1
 536 1388 l 1,14,15
 407 1406 407 1406 383.5 1408 c 0,16,17
 360 1410 360 1410 292 1410 c 2,18,19
 270 1410 l 1,20,21
 260 1408 260 1408 246 1408 c 1,22,-1
 130 1012 l 1,23,-1
 10 1028 l 1,24,-1
 10 1512 l 1,25,26
 346 1542 346 1542 766 1548 c 1,27,-1
 884 1548 l 2,0,1
654 1680 m 1,28,-1
 436 1880 l 1,29,-1
 534 1954 l 1,30,-1
 714 1780 l 1,31,-1
 726 1780 l 1,32,-1
 876 1950 l 1,33,-1
 928 1914 l 1,34,-1
 720 1696 l 1,35,-1
 654 1680 l 1,28,-1
EndSplineSet
EndChar

StartChar: Tcedilla
Encoding: 354 354 91
Width: 1362
VWidth: 0
Flags: HW
HStem: -472 21G<393.333 481> -2 100<120 176.922 825.048 920> 1410 138<296.863 532.732 786 1095>
VStem: 10 120<1028 1060.94> 480 162<-371.244 -212.843> 1136 116<1028 1086.21>
DStem2: 311.663 -472 557.347 -472 0.121869 0.992546<642.791 1874.32>
LayerCount: 2
Fore
SplineSet
534 -92 m 1,0,1
 642 -185 642 -185 642 -274 c 0,2,3
 642 -400 642 -400 400 -472 c 1,4,-1
 376 -400 l 1,5,6
 480 -364 480 -364 480 -300 c 0,7,8
 480 -251 480 -251 392 -166 c 1,9,-1
 506 -2 l 1,10,-1
 92 -2 l 1,11,-1
 120 98 l 1,12,-1
 390 166 l 1,13,-1
 536 1388 l 1,14,15
 407 1406 407 1406 383.5 1408 c 0,16,17
 360 1410 360 1410 292 1410 c 2,18,19
 270 1410 l 1,20,21
 260 1408 260 1408 246 1408 c 1,22,-1
 130 1012 l 1,23,-1
 10 1028 l 1,24,-1
 10 1512 l 1,25,26
 346 1542 346 1542 766 1548 c 1,27,-1
 884 1548 l 2,28,29
 1170 1548 1170 1548 1354 1540 c 1,30,-1
 1252 1012 l 1,31,-1
 1136 1028 l 1,32,-1
 1100 1380 l 1,33,34
 925 1410 925 1410 786 1414 c 1,35,-1
 632 136 l 1,36,-1
 942 98 l 1,37,-1
 920 -2 l 1,38,-1
 596 -2 l 1,39,-1
 534 -92 l 1,0,1
EndSplineSet
EndChar

StartChar: Tcommaaccent
Encoding: 538 538 92
Width: 1362
VWidth: 0
Flags: HW
HStem: -52 20G<493 541> -2 100<120 176.922 825.048 920> 1410 138<296.863 532.732 786 1095>
VStem: 10 120<1028 1060.94> 490 128<-296.418 -147.792> 1136 116<1028 1086.21>
DStem2: 390 166 632 136 0.105579 0.994411<0 1232.83>
LayerCount: 2
Fore
SplineSet
884 1548 m 2,0,1
 1170 1548 1170 1548 1354 1540 c 1,2,-1
 1252 1012 l 1,3,-1
 1136 1028 l 1,4,-1
 1100 1380 l 1,5,6
 925 1410 925 1410 786 1414 c 1,7,-1
 632 136 l 1,8,-1
 942 98 l 1,9,-1
 920 -2 l 1,10,-1
 92 -2 l 1,11,-1
 120 98 l 1,12,-1
 390 166 l 1,13,-1
 536 1388 l 1,14,15
 407 1406 407 1406 383.5 1408 c 128,-1,16
 360 1410 360 1410 292 1410 c 2,17,-1
 270 1410 l 1,18,19
 260 1408 260 1408 246 1408 c 1,20,-1
 130 1012 l 1,21,-1
 10 1028 l 1,22,-1
 10 1512 l 1,23,24
 346 1542 346 1542 766 1548 c 1,25,-1
 884 1548 l 2,0,1
510 -32 m 2,26,-1
 520 -32 l 1,27,28
 579 -40 579 -40 606 -108 c 1,29,30
 618 -135 618 -135 618 -154.5 c 128,-1,31
 618 -174 618 -174 614 -206 c 1,32,33
 585.176095916 -337.983139753 585.176095916 -337.983139753 388 -438 c 1,34,-1
 364 -398 l 1,35,36
 437 -356 437 -356 462 -316 c 1,37,38
 490 -276.8 490 -276.8 490 -236 c 0,39,40
 490 -195.865384615 490 -195.865384615 459.5 -162.432692308 c 128,-1,41
 429 -129 429 -129 406 -116 c 1,42,43
 417 -77 417 -77 449 -54.5 c 128,-1,44
 481 -32 481 -32 510 -32 c 2,26,-1
EndSplineSet
EndChar

StartChar: Thorn
Encoding: 222 222 93
Width: 1390
VWidth: 0
Flags: HW
HStem: 0 96<30 89.5161 716.139 788> 286 104<638.622 834.882> 1208 344<698.844 913> 1208 86<686 944.827> 1398 92<202 280.352> 1448 96<815.051 954>
VStem: 1160 242<670.895 996.785>
DStem2: 284.109 0 531.547 0 0.121869 0.992546<165.161 1252.03 1323.41 1369.31>
LayerCount: 2
Fore
SplineSet
788 0 m 1,0,-1
 8 0 l 1,1,-1
 30 96 l 1,2,-1
 304 162 l 1,3,-1
 460 1358 l 1,4,-1
 180 1398 l 1,5,-1
 202 1490 l 1,6,7
 544 1552 544 1552 776 1552 c 0,8,9
 859 1552 859 1552 976 1544 c 1,10,-1
 954 1448 l 1,11,-1
 702 1422 l 1,12,-1
 686 1284 l 1,13,14
 803 1294 803 1294 864 1294 c 0,15,16
 1124 1294 1124 1294 1263 1182 c 128,-1,17
 1402 1070 1402 1070 1402 860 c 0,18,19
 1402 646.271276596 1402 646.271276596 1207 485.5 c 0,20,21
 1006.8127841 320.452029446 1006.8127841 320.452029446 640 286 c 1,22,-1
 630 390 l 1,23,24
 924.471623588 423.128057654 924.471623588 423.128057654 1059.5 559.5 c 0,25,26
 1160 661 1160 661 1160 821.5 c 128,-1,27
 1160 982 1160 982 1048 1095 c 128,-1,28
 936 1208 936 1208 746 1208 c 0,29,30
 711 1208 711 1208 676 1200 c 1,31,-1
 548 134 l 1,32,-1
 818 98 l 1,33,-1
 788 0 l 1,0,-1
EndSplineSet
EndChar

StartChar: U
Encoding: 85 85 94
Width: 1764
VWidth: 0
Flags: HW
HStem: -42 194<636.094 961.841> 1388 96<36 99.2742 1064 1291.09> 1408 124<530 633.725> 1442 94<672.275 776 1690.3 1732>
VStem: 196 250<350.303 972.125>
DStem2: 116.266 -42 354.967 -42 0.121869 0.992546<673.298 1396.11> 1141.81 -42 1286.26 -42 0.121869 0.992546<389.669 1425.18>
LayerCount: 2
Fore
SplineSet
284 1344 m 1,0,-1
 10 1388 l 1,1,-1
 36 1484 l 1,2,3
 333 1538 333 1538 646 1538 c 1,4,-1
 798 1536 l 1,5,-1
 776 1442 l 1,6,-1
 530 1408 l 1,7,-1
 472 922 l 2,8,9
 472 919 472 919 469 892 c 128,-1,10
 466 865 466 865 458 800 c 128,-1,11
 450 735 450 735 448 699.5 c 128,-1,12
 446 664 446 664 446 602 c 128,-1,13
 446 540 446 540 450 498.5 c 128,-1,14
 454 457 454 457 467 407 c 0,15,16
 493.722222222 304.222222222 493.722222222 304.222222222 584 232 c 1,17,18
 676 152 676 152 805 152 c 128,-1,19
 934 152 934 152 1020.5 209 c 128,-1,20
 1107 266 1107 266 1153 358.5 c 128,-1,21
 1199 451 1199 451 1228 660 c 1,22,-1
 1320 1372 l 1,23,-1
 1042 1384 l 1,24,-1
 1064 1480 l 1,25,26
 1325 1536 1325 1536 1618 1536 c 0,27,28
 1632 1536 1632 1536 1756 1532 c 1,29,-1
 1732 1438 l 1,30,-1
 1476 1354 l 1,31,-1
 1370 640 l 2,32,33
 1326.28336471 351.867631031 1326.28336471 351.867631031 1241.5 220.5 c 0,34,35
 1196 150 1196 150 1143 105.5 c 128,-1,36
 1090 61 1090 61 1014 24 c 0,37,38
 876 -42 876 -42 728 -42 c 2,39,-1
 716 -42 l 1,40,41
 479.339622642 -31.3396226415 479.339622642 -31.3396226415 346 102 c 0,42,43
 196 252 196 252 196 526 c 0,44,45
 196 621 196 621 228 868 c 1,46,-1
 284 1344 l 1,0,-1
EndSplineSet
EndChar

StartChar: Uacute
Encoding: 218 218 95
Width: 1764
VWidth: 0
Flags: HW
HStem: -42 194<636.094 963.096> 1388 94<36 99.2742 1064 1291.09> 1408 130<530 633.725> 1442 94<672.275 776 1690.3 1732>
VStem: 196 250<350.303 972.125>
DStem2: 116.266 -42 354.967 -42 0.121869 0.992546<675.191 1396.11> 1141.81 -42 1286.26 -42 0.121869 0.992546<393.467 1425.18>
LayerCount: 2
Fore
SplineSet
284 1344 m 1,0,-1
 10 1388 l 1,1,-1
 36 1482 l 1,2,3
 240 1519 240 1519 391.5 1528.5 c 128,-1,4
 543 1538 543 1538 654.5 1538 c 128,-1,5
 766 1538 766 1538 798 1536 c 1,6,-1
 776 1442 l 1,7,-1
 530 1408 l 1,8,-1
 472 922 l 2,9,10
 472 919 472 919 469 892 c 128,-1,11
 466 865 466 865 458 800 c 128,-1,12
 450 735 450 735 448 699.5 c 128,-1,13
 446 664 446 664 446 603 c 128,-1,14
 446 542 446 542 450 500.5 c 128,-1,15
 454 459 454 459 467 408.5 c 0,16,17
 493.875311721 304.099750623 493.875311721 304.099750623 584 232 c 1,18,19
 676 152 676 152 803 152 c 0,20,21
 1043.57894737 152 1043.57894737 152 1152 358 c 1,22,23
 1202 457 1202 457 1228 660 c 2,24,-1
 1320 1372 l 1,25,-1
 1042 1384 l 1,26,-1
 1064 1480 l 1,27,28
 1325 1536 1325 1536 1608 1536 c 0,29,30
 1628 1536 1628 1536 1756 1532 c 1,31,-1
 1732 1438 l 1,32,-1
 1476 1354 l 1,33,-1
 1370 640 l 2,34,35
 1316.93417231 283.700871249 1316.93417231 283.700871249 1180 141.5 c 0,36,37
 1115 74 1115 74 998.5 16 c 128,-1,38
 882 -42 882 -42 726 -42 c 2,39,-1
 716 -42 l 1,40,41
 479.339622642 -31.3396226415 479.339622642 -31.3396226415 346 102 c 0,42,43
 196 252 196 252 196 526 c 0,44,45
 196 590 196 590 228 868 c 2,46,-1
 284 1344 l 1,0,-1
1202 2054 m 1,47,-1
 980 1670 l 1,48,-1
 918 1708 l 1,49,-1
 1066 2102 l 1,50,-1
 1202 2054 l 1,47,-1
EndSplineSet
EndChar

StartChar: Ucaron
Encoding: 467 467 96
Width: 1764
VWidth: 0
Flags: HW
HStem: -42 194<636.094 963.096> 1388 94<36 99.2742 1064 1291.09> 1408 130<530 633.725> 1442 94<672.275 776 1690.3 1732>
VStem: 196 250<350.303 972.125>
DStem2: 116.266 -42 354.967 -42 0.121869 0.992546<675.191 1396.11> 782 1954 684 1880 0.736873 -0.676031<0 250.267> 974 1780 968 1696 0.690318 0.723506<0 226.544> 1141.81 -42 1286.26 -42 0.121869 0.992546<393.467 1425.18>
LayerCount: 2
Fore
SplineSet
284 1344 m 1,0,-1
 10 1388 l 1,1,-1
 36 1482 l 1,2,3
 240 1519 240 1519 391.5 1528.5 c 128,-1,4
 543 1538 543 1538 654.5 1538 c 128,-1,5
 766 1538 766 1538 798 1536 c 1,6,-1
 776 1442 l 1,7,-1
 530 1408 l 1,8,-1
 472 922 l 2,9,10
 472 919 472 919 469 892 c 128,-1,11
 466 865 466 865 458 800 c 128,-1,12
 450 735 450 735 448 699.5 c 128,-1,13
 446 664 446 664 446 603 c 128,-1,14
 446 542 446 542 450 500.5 c 128,-1,15
 454 459 454 459 467 408.5 c 0,16,17
 493.875311721 304.099750623 493.875311721 304.099750623 584 232 c 1,18,19
 676 152 676 152 803 152 c 0,20,21
 1043.57894737 152 1043.57894737 152 1152 358 c 1,22,23
 1202 457 1202 457 1228 660 c 2,24,-1
 1320 1372 l 1,25,-1
 1042 1384 l 1,26,-1
 1064 1480 l 1,27,28
 1325 1536 1325 1536 1608 1536 c 0,29,30
 1628 1536 1628 1536 1756 1532 c 1,31,-1
 1732 1438 l 1,32,-1
 1476 1354 l 1,33,-1
 1370 640 l 2,34,35
 1316.93417231 283.700871249 1316.93417231 283.700871249 1180 141.5 c 0,36,37
 1115 74 1115 74 998.5 16 c 128,-1,38
 882 -42 882 -42 726 -42 c 2,39,-1
 716 -42 l 1,40,41
 479.339622642 -31.3396226415 479.339622642 -31.3396226415 346 102 c 0,42,43
 196 252 196 252 196 526 c 0,44,45
 196 590 196 590 228 868 c 2,46,-1
 284 1344 l 1,0,-1
902 1680 m 1,47,-1
 684 1880 l 1,48,-1
 782 1954 l 1,49,-1
 962 1780 l 1,50,-1
 974 1780 l 1,51,-1
 1124 1950 l 1,52,-1
 1176 1914 l 1,53,-1
 968 1696 l 1,54,-1
 902 1680 l 1,47,-1
EndSplineSet
EndChar

StartChar: Ucircumflex
Encoding: 219 219 97
Width: 1764
VWidth: 0
Flags: HW
HStem: -42 194<636.094 963.096> 1388 94<36 99.2742 1064 1291.09> 1408 130<530 633.725> 1442 94<672.275 776 1690.3 1732>
VStem: 196 250<350.303 972.125>
DStem2: 116.266 -42 354.967 -42 0.121869 0.992546<675.191 1396.11> 1141.81 -42 1286.26 -42 0.121869 0.992546<393.467 1425.18>
LayerCount: 2
Fore
SplineSet
284 1344 m 1,0,-1
 10 1388 l 1,1,-1
 36 1482 l 1,2,3
 240 1519 240 1519 391.5 1528.5 c 128,-1,4
 543 1538 543 1538 654.5 1538 c 128,-1,5
 766 1538 766 1538 798 1536 c 1,6,-1
 776 1442 l 1,7,-1
 530 1408 l 1,8,-1
 472 922 l 2,9,10
 472 919 472 919 469 892 c 128,-1,11
 466 865 466 865 458 800 c 128,-1,12
 450 735 450 735 448 699.5 c 128,-1,13
 446 664 446 664 446 603 c 128,-1,14
 446 542 446 542 450 500.5 c 128,-1,15
 454 459 454 459 467 408.5 c 0,16,17
 493.875311721 304.099750623 493.875311721 304.099750623 584 232 c 1,18,19
 676 152 676 152 803 152 c 0,20,21
 1043.57894737 152 1043.57894737 152 1152 358 c 1,22,23
 1202 457 1202 457 1228 660 c 2,24,-1
 1320 1372 l 1,25,-1
 1042 1384 l 1,26,-1
 1064 1480 l 1,27,28
 1325 1536 1325 1536 1608 1536 c 0,29,30
 1628 1536 1628 1536 1756 1532 c 1,31,-1
 1732 1438 l 1,32,-1
 1476 1354 l 1,33,-1
 1370 640 l 2,34,35
 1316.93417231 283.700871249 1316.93417231 283.700871249 1180 141.5 c 0,36,37
 1115 74 1115 74 998.5 16 c 128,-1,38
 882 -42 882 -42 726 -42 c 2,39,-1
 716 -42 l 1,40,41
 479.339622642 -31.3396226415 479.339622642 -31.3396226415 346 102 c 0,42,43
 196 252 196 252 196 526 c 0,44,45
 196 590 196 590 228 868 c 2,46,-1
 284 1344 l 1,0,-1
956 1950 m 1,47,-1
 1172 1726 l 1,48,-1
 1112 1682 l 1,49,-1
 914 1814 l 1,50,-1
 902 1814 l 1,51,-1
 732 1680 l 1,52,-1
 686 1716 l 1,53,-1
 890 1934 l 1,54,-1
 956 1950 l 1,47,-1
EndSplineSet
EndChar

StartChar: Udieresis
Encoding: 220 220 98
Width: 1764
VWidth: 0
Flags: HW
HStem: -42 194<636.094 963.096> 1388 94<36 99.2742 1064 1291.09> 1408 130<530 633.725> 1442 94<672.275 776 1690.3 1732> 1712 192<680.648 853.259 1004.65 1178.67>
VStem: 196 250<350.303 972.125> 664 206<1729 1886.53> 988 208<1730.33 1885.94>
DStem2: 116.266 -42 354.967 -42 0.121869 0.992546<675.191 1396.11> 1141.81 -42 1286.26 -42 0.121869 0.992546<393.467 1425.18>
LayerCount: 2
Fore
SplineSet
284 1344 m 1,0,-1
 10 1388 l 1,1,-1
 36 1482 l 1,2,3
 240 1519 240 1519 391.5 1528.5 c 128,-1,4
 543 1538 543 1538 654.5 1538 c 128,-1,5
 766 1538 766 1538 798 1536 c 1,6,-1
 776 1442 l 1,7,-1
 530 1408 l 1,8,-1
 472 922 l 2,9,10
 472 919 472 919 469 892 c 128,-1,11
 466 865 466 865 458 800 c 128,-1,12
 450 735 450 735 448 699.5 c 128,-1,13
 446 664 446 664 446 603 c 128,-1,14
 446 542 446 542 450 500.5 c 128,-1,15
 454 459 454 459 467 408.5 c 0,16,17
 493.875311721 304.099750623 493.875311721 304.099750623 584 232 c 1,18,19
 676 152 676 152 803 152 c 0,20,21
 1043.57894737 152 1043.57894737 152 1152 358 c 1,22,23
 1202 457 1202 457 1228 660 c 2,24,-1
 1320 1372 l 1,25,-1
 1042 1384 l 1,26,-1
 1064 1480 l 1,27,28
 1325 1536 1325 1536 1608 1536 c 0,29,30
 1628 1536 1628 1536 1756 1532 c 1,31,-1
 1732 1438 l 1,32,-1
 1476 1354 l 1,33,-1
 1370 640 l 2,34,35
 1316.93417231 283.700871249 1316.93417231 283.700871249 1180 141.5 c 0,36,37
 1115 74 1115 74 998.5 16 c 128,-1,38
 882 -42 882 -42 726 -42 c 2,39,-1
 716 -42 l 1,40,41
 479.339622642 -31.3396226415 479.339622642 -31.3396226415 346 102 c 0,42,43
 196 252 196 252 196 526 c 0,44,45
 196 590 196 590 228 868 c 2,46,-1
 284 1344 l 1,0,-1
1164.5 1877 m 128,-1,48
 1196 1850 1196 1850 1196 1809 c 128,-1,49
 1196 1768 1196 1768 1164.5 1740 c 128,-1,50
 1133 1712 1133 1712 1090.5 1712 c 128,-1,51
 1048 1712 1048 1712 1018 1740 c 128,-1,52
 988 1768 988 1768 988 1809.5 c 128,-1,53
 988 1851 988 1851 1018 1877.5 c 128,-1,54
 1048 1904 1048 1904 1090.5 1904 c 128,-1,47
 1133 1904 1133 1904 1164.5 1877 c 128,-1,48
839.5 1877 m 128,-1,56
 870 1850 870 1850 870 1808.5 c 128,-1,57
 870 1767 870 1767 839.5 1739.5 c 128,-1,58
 809 1712 809 1712 766.5 1712 c 128,-1,59
 724 1712 724 1712 694 1740 c 128,-1,60
 664 1768 664 1768 664 1809.5 c 128,-1,61
 664 1851 664 1851 694 1877.5 c 128,-1,62
 724 1904 724 1904 766.5 1904 c 128,-1,55
 809 1904 809 1904 839.5 1877 c 128,-1,56
EndSplineSet
EndChar

StartChar: Udieresisacute
Encoding: 471 471 99
Width: 1764
VWidth: 0
Flags: HW
HStem: -42 194<636.094 963.096> 1388 94<36 99.2742 1064 1291.09> 1408 130<530 633.725> 1442 94<672.275 776 1690.3 1732> 1712 192<680.648 853.259 1004.65 1178.67>
VStem: 196 250<350.303 972.125> 664 206<1729 1886.53> 988 208<1730.33 1885.94>
DStem2: 116.266 -42 354.967 -42 0.121869 0.992546<675.191 1396.11> 1141.81 -42 1286.26 -42 0.121869 0.992546<393.467 1425.18>
LayerCount: 2
Fore
SplineSet
1202 2334 m 1,0,-1
 980 1950 l 1,1,-1
 918 1988 l 1,2,-1
 1066 2382 l 1,3,-1
 1202 2334 l 1,0,-1
284 1344 m 1,4,-1
 10 1388 l 1,5,-1
 36 1482 l 1,6,7
 240 1519 240 1519 391.5 1528.5 c 128,-1,8
 543 1538 543 1538 654.5 1538 c 128,-1,9
 766 1538 766 1538 798 1536 c 1,10,-1
 776 1442 l 1,11,-1
 530 1408 l 1,12,-1
 472 922 l 2,13,14
 472 919 472 919 469 892 c 128,-1,15
 466 865 466 865 458 800 c 128,-1,16
 450 735 450 735 448 699.5 c 128,-1,17
 446 664 446 664 446 603 c 128,-1,18
 446 542 446 542 450 500.5 c 128,-1,19
 454 459 454 459 467 408.5 c 0,20,21
 493.875311721 304.099750623 493.875311721 304.099750623 584 232 c 1,22,23
 676 152 676 152 803 152 c 0,24,25
 1043.57894737 152 1043.57894737 152 1152 358 c 1,26,27
 1202 457 1202 457 1228 660 c 2,28,-1
 1320 1372 l 1,29,-1
 1042 1384 l 1,30,-1
 1064 1480 l 1,31,32
 1325 1536 1325 1536 1608 1536 c 0,33,34
 1628 1536 1628 1536 1756 1532 c 1,35,-1
 1732 1438 l 1,36,-1
 1476 1354 l 1,37,-1
 1370 640 l 2,38,39
 1316.93417231 283.700871249 1316.93417231 283.700871249 1180 141.5 c 0,40,41
 1115 74 1115 74 998.5 16 c 128,-1,42
 882 -42 882 -42 726 -42 c 2,43,-1
 716 -42 l 1,44,45
 479.339622642 -31.3396226415 479.339622642 -31.3396226415 346 102 c 0,46,47
 196 252 196 252 196 526 c 0,48,49
 196 590 196 590 228 868 c 2,50,-1
 284 1344 l 1,4,-1
1164.5 1877 m 128,-1,52
 1196 1850 1196 1850 1196 1809 c 128,-1,53
 1196 1768 1196 1768 1164.5 1740 c 128,-1,54
 1133 1712 1133 1712 1090.5 1712 c 128,-1,55
 1048 1712 1048 1712 1018 1740 c 128,-1,56
 988 1768 988 1768 988 1809.5 c 128,-1,57
 988 1851 988 1851 1018 1877.5 c 128,-1,58
 1048 1904 1048 1904 1090.5 1904 c 128,-1,51
 1133 1904 1133 1904 1164.5 1877 c 128,-1,52
839.5 1877 m 128,-1,60
 870 1850 870 1850 870 1808.5 c 128,-1,61
 870 1767 870 1767 839.5 1739.5 c 128,-1,62
 809 1712 809 1712 766.5 1712 c 128,-1,63
 724 1712 724 1712 694 1740 c 128,-1,64
 664 1768 664 1768 664 1809.5 c 128,-1,65
 664 1851 664 1851 694 1877.5 c 128,-1,66
 724 1904 724 1904 766.5 1904 c 128,-1,59
 809 1904 809 1904 839.5 1877 c 128,-1,60
EndSplineSet
EndChar

StartChar: Udieresiscaron
Encoding: 473 473 100
Width: 1764
VWidth: 0
Flags: HW
HStem: -42 194<636.094 963.096> 1388 94<36 99.2742 1064 1291.09> 1408 130<530 633.725> 1442 94<672.275 776 1690.3 1732> 1712 192<680.648 853.259 1004.65 1178.67>
VStem: 196 250<350.303 972.125> 664 206<1729 1886.53> 988 208<1730.33 1885.94>
DStem2: 116.266 -42 354.967 -42 0.121869 0.992546<675.191 1396.11> 782 2222 684 2148 0.736873 -0.676031<0 250.267> 974 2048 968 1964 0.690318 0.723506<0 226.544> 1141.81 -42 1286.26 -42 0.121869 0.992546<393.467 1425.18>
LayerCount: 2
Fore
SplineSet
902 1948 m 1,0,-1
 684 2148 l 1,1,-1
 782 2222 l 1,2,-1
 962 2048 l 1,3,-1
 974 2048 l 1,4,-1
 1124 2218 l 1,5,-1
 1176 2182 l 1,6,-1
 968 1964 l 1,7,-1
 902 1948 l 1,0,-1
284 1344 m 1,8,-1
 10 1388 l 1,9,-1
 36 1482 l 1,10,11
 240 1519 240 1519 391.5 1528.5 c 128,-1,12
 543 1538 543 1538 654.5 1538 c 128,-1,13
 766 1538 766 1538 798 1536 c 1,14,-1
 776 1442 l 1,15,-1
 530 1408 l 1,16,-1
 472 922 l 2,17,18
 472 919 472 919 469 892 c 128,-1,19
 466 865 466 865 458 800 c 128,-1,20
 450 735 450 735 448 699.5 c 128,-1,21
 446 664 446 664 446 603 c 128,-1,22
 446 542 446 542 450 500.5 c 128,-1,23
 454 459 454 459 467 408.5 c 0,24,25
 493.875311721 304.099750623 493.875311721 304.099750623 584 232 c 1,26,27
 676 152 676 152 803 152 c 0,28,29
 1043.57894737 152 1043.57894737 152 1152 358 c 1,30,31
 1202 457 1202 457 1228 660 c 2,32,-1
 1320 1372 l 1,33,-1
 1042 1384 l 1,34,-1
 1064 1480 l 1,35,36
 1325 1536 1325 1536 1608 1536 c 0,37,38
 1628 1536 1628 1536 1756 1532 c 1,39,-1
 1732 1438 l 1,40,-1
 1476 1354 l 1,41,-1
 1370 640 l 2,42,43
 1316.93417231 283.700871249 1316.93417231 283.700871249 1180 141.5 c 0,44,45
 1115 74 1115 74 998.5 16 c 128,-1,46
 882 -42 882 -42 726 -42 c 2,47,-1
 716 -42 l 1,48,49
 479.339622642 -31.3396226415 479.339622642 -31.3396226415 346 102 c 0,50,51
 196 252 196 252 196 526 c 0,52,53
 196 590 196 590 228 868 c 2,54,-1
 284 1344 l 1,8,-1
1164.5 1877 m 128,-1,56
 1196 1850 1196 1850 1196 1809 c 128,-1,57
 1196 1768 1196 1768 1164.5 1740 c 128,-1,58
 1133 1712 1133 1712 1090.5 1712 c 128,-1,59
 1048 1712 1048 1712 1018 1740 c 128,-1,60
 988 1768 988 1768 988 1809.5 c 128,-1,61
 988 1851 988 1851 1018 1877.5 c 128,-1,62
 1048 1904 1048 1904 1090.5 1904 c 128,-1,55
 1133 1904 1133 1904 1164.5 1877 c 128,-1,56
839.5 1877 m 128,-1,64
 870 1850 870 1850 870 1808.5 c 128,-1,65
 870 1767 870 1767 839.5 1739.5 c 128,-1,66
 809 1712 809 1712 766.5 1712 c 128,-1,67
 724 1712 724 1712 694 1740 c 128,-1,68
 664 1768 664 1768 664 1809.5 c 128,-1,69
 664 1851 664 1851 694 1877.5 c 128,-1,70
 724 1904 724 1904 766.5 1904 c 128,-1,63
 809 1904 809 1904 839.5 1877 c 128,-1,64
EndSplineSet
EndChar

StartChar: Udieresisgrave
Encoding: 475 475 101
Width: 1764
VWidth: 0
Flags: HW
HStem: -42 194<636.094 963.096> 1388 94<36 99.2742 1064 1291.09> 1408 130<530 633.725> 1442 94<672.275 776 1690.3 1732> 1712 192<680.648 853.259 1004.65 1178.67>
VStem: 196 250<350.303 972.125> 664 206<1729 1886.53> 988 208<1730.33 1885.94>
DStem2: 116.266 -42 354.967 -42 0.121869 0.992546<675.191 1396.11> 1141.81 -42 1286.26 -42 0.121869 0.992546<393.467 1425.18>
LayerCount: 2
Fore
SplineSet
682 2346 m 1,0,-1
 822 2392 l 1,1,-1
 982 1988 l 1,2,-1
 912 1946 l 1,3,-1
 682 2346 l 1,0,-1
284 1344 m 1,4,-1
 10 1388 l 1,5,-1
 36 1482 l 1,6,7
 240 1519 240 1519 391.5 1528.5 c 128,-1,8
 543 1538 543 1538 654.5 1538 c 128,-1,9
 766 1538 766 1538 798 1536 c 1,10,-1
 776 1442 l 1,11,-1
 530 1408 l 1,12,-1
 472 922 l 2,13,14
 472 919 472 919 469 892 c 128,-1,15
 466 865 466 865 458 800 c 128,-1,16
 450 735 450 735 448 699.5 c 128,-1,17
 446 664 446 664 446 603 c 128,-1,18
 446 542 446 542 450 500.5 c 128,-1,19
 454 459 454 459 467 408.5 c 0,20,21
 493.875311721 304.099750623 493.875311721 304.099750623 584 232 c 1,22,23
 676 152 676 152 803 152 c 0,24,25
 1043.57894737 152 1043.57894737 152 1152 358 c 1,26,27
 1202 457 1202 457 1228 660 c 2,28,-1
 1320 1372 l 1,29,-1
 1042 1384 l 1,30,-1
 1064 1480 l 1,31,32
 1325 1536 1325 1536 1608 1536 c 0,33,34
 1628 1536 1628 1536 1756 1532 c 1,35,-1
 1732 1438 l 1,36,-1
 1476 1354 l 1,37,-1
 1370 640 l 2,38,39
 1316.93417231 283.700871249 1316.93417231 283.700871249 1180 141.5 c 0,40,41
 1115 74 1115 74 998.5 16 c 128,-1,42
 882 -42 882 -42 726 -42 c 2,43,-1
 716 -42 l 1,44,45
 479.339622642 -31.3396226415 479.339622642 -31.3396226415 346 102 c 0,46,47
 196 252 196 252 196 526 c 0,48,49
 196 590 196 590 228 868 c 2,50,-1
 284 1344 l 1,4,-1
1164.5 1877 m 128,-1,52
 1196 1850 1196 1850 1196 1809 c 128,-1,53
 1196 1768 1196 1768 1164.5 1740 c 128,-1,54
 1133 1712 1133 1712 1090.5 1712 c 128,-1,55
 1048 1712 1048 1712 1018 1740 c 128,-1,56
 988 1768 988 1768 988 1809.5 c 128,-1,57
 988 1851 988 1851 1018 1877.5 c 128,-1,58
 1048 1904 1048 1904 1090.5 1904 c 128,-1,51
 1133 1904 1133 1904 1164.5 1877 c 128,-1,52
839.5 1877 m 128,-1,60
 870 1850 870 1850 870 1808.5 c 128,-1,61
 870 1767 870 1767 839.5 1739.5 c 128,-1,62
 809 1712 809 1712 766.5 1712 c 128,-1,63
 724 1712 724 1712 694 1740 c 128,-1,64
 664 1768 664 1768 664 1809.5 c 128,-1,65
 664 1851 664 1851 694 1877.5 c 128,-1,66
 724 1904 724 1904 766.5 1904 c 128,-1,59
 809 1904 809 1904 839.5 1877 c 128,-1,60
EndSplineSet
EndChar

StartChar: Udieresismacron
Encoding: 469 469 102
Width: 1764
VWidth: 0
Flags: HW
HStem: -42 194<636.094 963.096> 1388 94<36 99.2742 1064 1291.09> 1408 130<530 633.725> 1442 94<672.275 776 1690.3 1732> 1712 192<680.648 853.259 1004.65 1178.67> 1974 122<680 1198>
VStem: 196 250<350.303 972.125> 664 206<1729 1886.53> 988 208<1730.33 1885.94>
DStem2: 116.266 -42 354.967 -42 0.121869 0.992546<675.191 1396.11> 1141.81 -42 1286.26 -42 0.121869 0.992546<393.467 1425.18>
LayerCount: 2
Fore
SplineSet
680 2096 m 1,0,-1
 1214 2096 l 1,1,-1
 1198 1974 l 1,2,-1
 664 1974 l 1,3,-1
 680 2096 l 1,0,-1
284 1344 m 1,4,-1
 10 1388 l 1,5,-1
 36 1482 l 1,6,7
 240 1519 240 1519 391.5 1528.5 c 128,-1,8
 543 1538 543 1538 654.5 1538 c 128,-1,9
 766 1538 766 1538 798 1536 c 1,10,-1
 776 1442 l 1,11,-1
 530 1408 l 1,12,-1
 472 922 l 2,13,14
 472 919 472 919 469 892 c 128,-1,15
 466 865 466 865 458 800 c 128,-1,16
 450 735 450 735 448 699.5 c 128,-1,17
 446 664 446 664 446 603 c 128,-1,18
 446 542 446 542 450 500.5 c 128,-1,19
 454 459 454 459 467 408.5 c 0,20,21
 493.875311721 304.099750623 493.875311721 304.099750623 584 232 c 1,22,23
 676 152 676 152 803 152 c 0,24,25
 1043.57894737 152 1043.57894737 152 1152 358 c 1,26,27
 1202 457 1202 457 1228 660 c 2,28,-1
 1320 1372 l 1,29,-1
 1042 1384 l 1,30,-1
 1064 1480 l 1,31,32
 1325 1536 1325 1536 1608 1536 c 0,33,34
 1628 1536 1628 1536 1756 1532 c 1,35,-1
 1732 1438 l 1,36,-1
 1476 1354 l 1,37,-1
 1370 640 l 2,38,39
 1316.93417231 283.700871249 1316.93417231 283.700871249 1180 141.5 c 0,40,41
 1115 74 1115 74 998.5 16 c 128,-1,42
 882 -42 882 -42 726 -42 c 2,43,-1
 716 -42 l 1,44,45
 479.339622642 -31.3396226415 479.339622642 -31.3396226415 346 102 c 0,46,47
 196 252 196 252 196 526 c 0,48,49
 196 590 196 590 228 868 c 2,50,-1
 284 1344 l 1,4,-1
1164.5 1877 m 128,-1,52
 1196 1850 1196 1850 1196 1809 c 128,-1,53
 1196 1768 1196 1768 1164.5 1740 c 128,-1,54
 1133 1712 1133 1712 1090.5 1712 c 128,-1,55
 1048 1712 1048 1712 1018 1740 c 128,-1,56
 988 1768 988 1768 988 1809.5 c 128,-1,57
 988 1851 988 1851 1018 1877.5 c 128,-1,58
 1048 1904 1048 1904 1090.5 1904 c 128,-1,51
 1133 1904 1133 1904 1164.5 1877 c 128,-1,52
839.5 1877 m 128,-1,60
 870 1850 870 1850 870 1808.5 c 128,-1,61
 870 1767 870 1767 839.5 1739.5 c 128,-1,62
 809 1712 809 1712 766.5 1712 c 128,-1,63
 724 1712 724 1712 694 1740 c 128,-1,64
 664 1768 664 1768 664 1809.5 c 128,-1,65
 664 1851 664 1851 694 1877.5 c 128,-1,66
 724 1904 724 1904 766.5 1904 c 128,-1,59
 809 1904 809 1904 839.5 1877 c 128,-1,60
EndSplineSet
EndChar

StartChar: Ugrave
Encoding: 217 217 103
Width: 1764
VWidth: 0
Flags: HW
HStem: -42 194<636.094 963.096> 1388 94<36 99.2742 1064 1291.09> 1408 130<530 633.725> 1442 94<672.275 776 1690.3 1732>
VStem: 196 250<350.303 972.125>
DStem2: 116.266 -42 354.967 -42 0.121869 0.992546<675.191 1396.11> 1141.81 -42 1286.26 -42 0.121869 0.992546<393.467 1425.18>
LayerCount: 2
Fore
SplineSet
284 1344 m 1,0,-1
 10 1388 l 1,1,-1
 36 1482 l 1,2,3
 240 1519 240 1519 391.5 1528.5 c 128,-1,4
 543 1538 543 1538 654.5 1538 c 128,-1,5
 766 1538 766 1538 798 1536 c 1,6,-1
 776 1442 l 1,7,-1
 530 1408 l 1,8,-1
 472 922 l 2,9,10
 472 919 472 919 469 892 c 128,-1,11
 466 865 466 865 458 800 c 128,-1,12
 450 735 450 735 448 699.5 c 128,-1,13
 446 664 446 664 446 603 c 128,-1,14
 446 542 446 542 450 500.5 c 128,-1,15
 454 459 454 459 467 408.5 c 0,16,17
 493.875311721 304.099750623 493.875311721 304.099750623 584 232 c 1,18,19
 676 152 676 152 803 152 c 0,20,21
 1043.57894737 152 1043.57894737 152 1152 358 c 1,22,23
 1202 457 1202 457 1228 660 c 2,24,-1
 1320 1372 l 1,25,-1
 1042 1384 l 1,26,-1
 1064 1480 l 1,27,28
 1325 1536 1325 1536 1608 1536 c 0,29,30
 1628 1536 1628 1536 1756 1532 c 1,31,-1
 1732 1438 l 1,32,-1
 1476 1354 l 1,33,-1
 1370 640 l 2,34,35
 1316.93417231 283.700871249 1316.93417231 283.700871249 1180 141.5 c 0,36,37
 1115 74 1115 74 998.5 16 c 128,-1,38
 882 -42 882 -42 726 -42 c 2,39,-1
 716 -42 l 1,40,41
 479.339622642 -31.3396226415 479.339622642 -31.3396226415 346 102 c 0,42,43
 196 252 196 252 196 526 c 0,44,45
 196 590 196 590 228 868 c 2,46,-1
 284 1344 l 1,0,-1
682 2046 m 1,47,-1
 822 2092 l 1,48,-1
 982 1688 l 1,49,-1
 912 1646 l 1,50,-1
 682 2046 l 1,47,-1
EndSplineSet
EndChar

StartChar: Uhungarumlaut
Encoding: 368 368 104
Width: 1764
VWidth: 0
Flags: HW
HStem: -42 194<636.094 963.096> 1388 94<36 99.2742 1064 1291.09> 1408 130<530 633.725> 1442 94<672.275 776 1690.3 1732>
VStem: 196 250<350.303 972.125>
DStem2: 116.266 -42 354.967 -42 0.121869 0.992546<675.191 1396.11> 1141.81 -42 1286.26 -42 0.121869 0.992546<393.467 1425.18>
LayerCount: 2
Fore
SplineSet
284 1344 m 1,0,-1
 10 1388 l 1,1,-1
 36 1482 l 1,2,3
 240 1519 240 1519 391.5 1528.5 c 128,-1,4
 543 1538 543 1538 654.5 1538 c 128,-1,5
 766 1538 766 1538 798 1536 c 1,6,-1
 776 1442 l 1,7,-1
 530 1408 l 1,8,-1
 472 922 l 2,9,10
 472 919 472 919 469 892 c 128,-1,11
 466 865 466 865 458 800 c 128,-1,12
 450 735 450 735 448 699.5 c 128,-1,13
 446 664 446 664 446 603 c 128,-1,14
 446 542 446 542 450 500.5 c 128,-1,15
 454 459 454 459 467 408.5 c 0,16,17
 493.875311721 304.099750623 493.875311721 304.099750623 584 232 c 1,18,19
 676 152 676 152 803 152 c 0,20,21
 1043.57894737 152 1043.57894737 152 1152 358 c 1,22,23
 1202 457 1202 457 1228 660 c 2,24,-1
 1320 1372 l 1,25,-1
 1042 1384 l 1,26,-1
 1064 1480 l 1,27,28
 1325 1536 1325 1536 1608 1536 c 0,29,30
 1628 1536 1628 1536 1756 1532 c 1,31,-1
 1732 1438 l 1,32,-1
 1476 1354 l 1,33,-1
 1370 640 l 2,34,35
 1316.93417231 283.700871249 1316.93417231 283.700871249 1180 141.5 c 0,36,37
 1115 74 1115 74 998.5 16 c 128,-1,38
 882 -42 882 -42 726 -42 c 2,39,-1
 716 -42 l 1,40,41
 479.339622642 -31.3396226415 479.339622642 -31.3396226415 346 102 c 0,42,43
 196 252 196 252 196 526 c 0,44,45
 196 590 196 590 228 868 c 2,46,-1
 284 1344 l 1,0,-1
1432 1884 m 1,47,-1
 1080 1682 l 1,48,-1
 1046 1742 l 1,49,-1
 1344 1984 l 1,50,-1
 1432 1884 l 1,47,-1
1188 1890 m 1,51,-1
 824 1682 l 1,52,-1
 790 1742 l 1,53,-1
 1098 1994 l 1,54,-1
 1188 1890 l 1,51,-1
EndSplineSet
EndChar

StartChar: Umacron
Encoding: 362 362 105
Width: 1764
VWidth: 0
Flags: HW
HStem: -42 194<636.094 963.096> 1388 94<36 99.2742 1064 1291.09> 1408 130<530 633.725> 1442 94<672.275 776 1690.3 1732> 1706 122<680 1198>
VStem: 196 250<350.303 972.125>
DStem2: 116.266 -42 354.967 -42 0.121869 0.992546<675.191 1396.11> 1141.81 -42 1286.26 -42 0.121869 0.992546<393.467 1425.18>
LayerCount: 2
Fore
SplineSet
284 1344 m 1,0,-1
 10 1388 l 1,1,-1
 36 1482 l 1,2,3
 240 1519 240 1519 391.5 1528.5 c 128,-1,4
 543 1538 543 1538 654.5 1538 c 128,-1,5
 766 1538 766 1538 798 1536 c 1,6,-1
 776 1442 l 1,7,-1
 530 1408 l 1,8,-1
 472 922 l 2,9,10
 472 919 472 919 469 892 c 128,-1,11
 466 865 466 865 458 800 c 128,-1,12
 450 735 450 735 448 699.5 c 128,-1,13
 446 664 446 664 446 603 c 128,-1,14
 446 542 446 542 450 500.5 c 128,-1,15
 454 459 454 459 467 408.5 c 0,16,17
 493.875311721 304.099750623 493.875311721 304.099750623 584 232 c 1,18,19
 676 152 676 152 803 152 c 0,20,21
 1043.57894737 152 1043.57894737 152 1152 358 c 1,22,23
 1202 457 1202 457 1228 660 c 2,24,-1
 1320 1372 l 1,25,-1
 1042 1384 l 1,26,-1
 1064 1480 l 1,27,28
 1325 1536 1325 1536 1608 1536 c 0,29,30
 1628 1536 1628 1536 1756 1532 c 1,31,-1
 1732 1438 l 1,32,-1
 1476 1354 l 1,33,-1
 1370 640 l 2,34,35
 1316.93417231 283.700871249 1316.93417231 283.700871249 1180 141.5 c 0,36,37
 1115 74 1115 74 998.5 16 c 128,-1,38
 882 -42 882 -42 726 -42 c 2,39,-1
 716 -42 l 1,40,41
 479.339622642 -31.3396226415 479.339622642 -31.3396226415 346 102 c 0,42,43
 196 252 196 252 196 526 c 0,44,45
 196 590 196 590 228 868 c 2,46,-1
 284 1344 l 1,0,-1
680 1828 m 1,47,-1
 1214 1828 l 1,48,-1
 1198 1706 l 1,49,-1
 664 1706 l 1,50,-1
 680 1828 l 1,47,-1
EndSplineSet
EndChar

StartChar: Uogonek
Encoding: 370 370 106
Width: 1764
VWidth: 0
Flags: HW
HStem: -452 62<922.787 933.711> -42 194<636.094 738> 1388 94<36 99.2742 1064 1291.09> 1408 130<530 633.725> 1442 94<672.275 776 1690.3 1732>
VStem: 196 250<350.303 972.125> 636 180<-299.306 -111.359>
DStem2: 65.9244 -452 304.626 -452 0.121869 0.992546<1088.27 1809.19> 1091.46 -452 1235.92 -452 0.121869 0.992546<806.33 1838.26>
LayerCount: 2
Fore
SplineSet
966 -390 m 1,0,-1
 924 -452 l 1,1,2
 797 -439 797 -439 716.5 -377.5 c 128,-1,3
 636 -316 636 -316 636 -231.5 c 128,-1,4
 636 -147 636 -147 738 -42 c 1,5,-1
 716 -42 l 1,6,7
 479.339622642 -31.3396226415 479.339622642 -31.3396226415 346 102 c 0,8,9
 196 252 196 252 196 526 c 0,10,11
 196 590 196 590 228 868 c 2,12,-1
 284 1344 l 1,13,-1
 10 1388 l 1,14,-1
 36 1482 l 1,15,16
 240 1519 240 1519 391.5 1528.5 c 128,-1,17
 543 1538 543 1538 654.5 1538 c 128,-1,18
 766 1538 766 1538 798 1536 c 1,19,-1
 776 1442 l 1,20,-1
 530 1408 l 1,21,-1
 472 922 l 2,22,23
 472 919 472 919 469 892 c 128,-1,24
 466 865 466 865 458 800 c 128,-1,25
 450 735 450 735 448 699.5 c 128,-1,26
 446 664 446 664 446 603 c 128,-1,27
 446 542 446 542 450 500.5 c 128,-1,28
 454 459 454 459 467 408.5 c 0,29,30
 493.875311721 304.099750623 493.875311721 304.099750623 584 232 c 1,31,32
 676 152 676 152 803 152 c 0,33,34
 1043.57894737 152 1043.57894737 152 1152 358 c 1,35,36
 1202 457 1202 457 1228 660 c 2,37,-1
 1320 1372 l 1,38,-1
 1042 1384 l 1,39,-1
 1064 1480 l 1,40,41
 1325 1536 1325 1536 1608 1536 c 0,42,43
 1628 1536 1628 1536 1756 1532 c 1,44,-1
 1732 1438 l 1,45,-1
 1476 1354 l 1,46,-1
 1370 640 l 2,47,48
 1316.93417231 283.700871249 1316.93417231 283.700871249 1180 141.5 c 0,49,50
 1115 74 1115 74 1036 34 c 128,-1,51
 957 -6 957 -6 862 -28 c 1,52,53
 816 -114 816 -114 816 -164 c 0,54,55
 816 -303 816 -303 966 -390 c 1,0,-1
EndSplineSet
EndChar

StartChar: Uring
Encoding: 366 366 107
Width: 1764
VWidth: 0
Flags: HW
HStem: -42 194<636.094 963.096> 1388 94<36 99.2742 1064 1291.09> 1408 130<530 633.725> 1442 94<672.275 776 1690.3 1732> 1686 58<867.65 1009.14> 2036 58<858.486 992.704>
VStem: 196 250<350.303 972.125> 734 86<1777.86 2009.91> 1040 86<1767.6 2002.2>
DStem2: 116.266 -42 354.967 -42 0.121869 0.992546<675.191 1396.11> 1141.81 -42 1286.26 -42 0.121869 0.992546<393.467 1425.18>
LayerCount: 2
Fore
SplineSet
284 1344 m 1,0,-1
 10 1388 l 1,1,-1
 36 1482 l 1,2,3
 240 1519 240 1519 391.5 1528.5 c 128,-1,4
 543 1538 543 1538 654.5 1538 c 128,-1,5
 766 1538 766 1538 798 1536 c 1,6,-1
 776 1442 l 1,7,-1
 530 1408 l 1,8,-1
 472 922 l 2,9,10
 472 919 472 919 469 892 c 128,-1,11
 466 865 466 865 458 800 c 128,-1,12
 450 735 450 735 448 699.5 c 128,-1,13
 446 664 446 664 446 603 c 128,-1,14
 446 542 446 542 450 500.5 c 128,-1,15
 454 459 454 459 467 408.5 c 0,16,17
 493.875311721 304.099750623 493.875311721 304.099750623 584 232 c 1,18,19
 676 152 676 152 803 152 c 0,20,21
 1043.57894737 152 1043.57894737 152 1152 358 c 1,22,23
 1202 457 1202 457 1228 660 c 2,24,-1
 1320 1372 l 1,25,-1
 1042 1384 l 1,26,-1
 1064 1480 l 1,27,28
 1325 1536 1325 1536 1608 1536 c 0,29,30
 1628 1536 1628 1536 1756 1532 c 1,31,-1
 1732 1438 l 1,32,-1
 1476 1354 l 1,33,-1
 1370 640 l 2,34,35
 1316.93417231 283.700871249 1316.93417231 283.700871249 1180 141.5 c 0,36,37
 1115 74 1115 74 998.5 16 c 128,-1,38
 882 -42 882 -42 726 -42 c 2,39,-1
 716 -42 l 1,40,41
 479.339622642 -31.3396226415 479.339622642 -31.3396226415 346 102 c 0,42,43
 196 252 196 252 196 526 c 0,44,45
 196 590 196 590 228 868 c 2,46,-1
 284 1344 l 1,0,-1
848 1997 m 128,-1,48
 820 1958 820 1958 820 1897 c 128,-1,49
 820 1836 820 1836 852 1790 c 128,-1,50
 884 1744 884 1744 936 1744 c 0,51,52
 1040 1744 1040 1744 1040 1882 c 0,53,54
 1040 1946 1040 1946 1008 1991 c 128,-1,55
 976 2036 976 2036 926 2036 c 128,-1,47
 876 2036 876 2036 848 1997 c 128,-1,48
1074.5 2039 m 128,-1,57
 1126 1984 1126 1984 1126 1897.5 c 128,-1,58
 1126 1811 1126 1811 1068 1748.5 c 128,-1,59
 1010 1686 1010 1686 924 1686 c 128,-1,60
 838 1686 838 1686 786 1740.5 c 128,-1,61
 734 1795 734 1795 734 1882.5 c 128,-1,62
 734 1970 734 1970 794 2032 c 128,-1,63
 854 2094 854 2094 938.5 2094 c 128,-1,56
 1023 2094 1023 2094 1074.5 2039 c 128,-1,57
EndSplineSet
EndChar

StartChar: V
Encoding: 86 86 108
Width: 1334
VWidth: 0
Flags: HW
HStem: -32 21G<538.228 636.737> 1386 94<34 88.5613> 1542 20G<452 519.547 1047 1107>
VStem: 1076 248<985.867 1268.9>
DStem2: 516 1540 284 1336 0.185329 -0.982676<157.47 1328.34>
LayerCount: 2
Fore
SplineSet
888 1484 m 1,0,1
 966 1562 966 1562 1070 1562 c 0,2,3
 1220 1562 1220 1562 1292 1422 c 0,4,5
 1324 1361 1324 1361 1324 1266 c 0,6,7
 1324 1258 1324 1258 1320 1190 c 1,8,9
 1297 956 1297 956 1171 676.5 c 128,-1,10
 1045 397 1045 397 872 176 c 1,11,12
 782 66 782 66 722 6 c 1,13,-1
 542 -32 l 1,14,-1
 284 1336 l 1,15,-1
 10 1386 l 1,16,-1
 34 1480 l 1,17,18
 284 1536 284 1536 516 1540 c 1,19,-1
 748 232 l 1,20,-1
 758 232 l 1,21,22
 825 303 825 303 892 404 c 1,23,24
 1027 618 1027 618 1068 884 c 0,25,26
 1076 935 1076 935 1076 1010 c 0,27,28
 1076 1173 1076 1173 1016 1308 c 1,29,30
 962 1419 962 1419 888 1484 c 1,0,1
EndSplineSet
EndChar

StartChar: W
Encoding: 87 87 109
Width: 1910
VWidth: 0
Flags: HW
HStem: -32 19G<390.333 504.632 1031.1 1124.63> 1386 94<44 86.841> 1520 28G<469 535.314 1679 1766>
VStem: 1010 184<1061.48 1236> 1620 280<1017.56 1387.32>
DStem2: 534 1540 278 1336 0.0830455 -0.996546<182.036 1250.5>
LayerCount: 2
Fore
SplineSet
1032 -34 m 1,0,-1
 996 768 l 1,1,-1
 984 768 l 1,2,3
 875 460 875 460 724 196 c 0,4,5
 685 128 685 128 606 6 c 1,6,-1
 392 -32 l 1,7,-1
 278 1336 l 1,8,-1
 10 1386 l 1,9,-1
 44 1480 l 1,10,11
 302 1536 302 1536 534 1540 c 1,12,-1
 616 292 l 1,13,-1
 628 292 l 1,14,15
 814 560 814 560 928 930 c 0,16,17
 972 1074 972 1074 1010 1236 c 1,18,-1
 1194 1278 l 1,19,-1
 1258 242 l 1,20,-1
 1268 242 l 1,21,22
 1519.43133325 507.881409879 1519.43133325 507.881409879 1596 876 c 1,23,24
 1620 999 1620 999 1620 1098 c 0,25,26
 1620 1298 1620 1298 1536 1492 c 1,27,28
 1616 1548 1616 1548 1710 1548 c 2,29,-1
 1718 1548 l 1,30,31
 1865 1539 1865 1539 1892 1396 c 0,32,33
 1900 1359 1900 1359 1900 1286 c 128,-1,34
 1900 1213 1900 1213 1876 1102 c 1,35,36
 1831 880 1831 880 1690 640 c 1,37,38
 1564 414 1564 414 1382 200 c 1,39,40
 1338 144 1338 144 1208 4 c 1,41,-1
 1032 -34 l 1,0,-1
EndSplineSet
EndChar

StartChar: Wacute
Encoding: 7810 7810 110
Width: 1910
VWidth: 0
Flags: HW
HStem: -32 19G<390.333 504.632 1031.1 1124.63> 1386 96<44 86.841> 1520 30G<469 535.314 1679 1711>
VStem: 1010 184<1061.48 1236> 1618 282<1020.78 1394.51>
DStem2: 534 1540 278 1336 0.0830455 -0.996546<182.036 1250.5>
LayerCount: 2
Fore
SplineSet
1618 1092 m 0,0,1
 1618 1303.77272727 1618 1303.77272727 1536 1492 c 1,2,3
 1618 1550 1618 1550 1710 1550 c 0,4,5
 1714 1550 1714 1550 1718 1548 c 1,6,7
 1865 1539 1865 1539 1892 1396 c 0,8,9
 1900 1359 1900 1359 1900 1286 c 128,-1,10
 1900 1213 1900 1213 1876 1102 c 1,11,12
 1834 899 1834 899 1698.5 657.5 c 128,-1,13
 1563 416 1563 416 1382 200 c 1,14,15
 1338 144 1338 144 1208 4 c 1,16,-1
 1032 -34 l 1,17,-1
 996 768 l 1,18,-1
 984 768 l 1,19,20
 875 460 875 460 724 196 c 1,21,-1
 606 6 l 1,22,-1
 392 -32 l 1,23,-1
 278 1336 l 1,24,-1
 10 1386 l 1,25,-1
 44 1482 l 1,26,27
 273 1536 273 1536 534 1540 c 1,28,-1
 616 292 l 1,29,-1
 628 292 l 1,30,31
 802 543 802 543 928 930 c 1,32,33
 972 1074 972 1074 1010 1236 c 1,34,-1
 1194 1278 l 1,35,-1
 1258 242 l 1,36,-1
 1268 242 l 1,37,38
 1519.43133325 507.881409879 1519.43133325 507.881409879 1596 876 c 1,39,40
 1618 995 1618 995 1618 1092 c 0,0,1
1430 2054 m 1,41,-1
 1208 1670 l 1,42,-1
 1146 1708 l 1,43,-1
 1294 2102 l 1,44,-1
 1430 2054 l 1,41,-1
EndSplineSet
EndChar

StartChar: Wcircumflex
Encoding: 372 372 111
Width: 1910
VWidth: 0
Flags: HW
HStem: -32 19G<390.333 504.632 1031.1 1124.63> 1386 96<44 86.841> 1520 30G<469 535.314 1679 1711>
VStem: 1010 184<1061.48 1236> 1618 282<1020.78 1394.51>
DStem2: 534 1540 278 1336 0.0830455 -0.996546<182.036 1250.5>
LayerCount: 2
Fore
SplineSet
1618 1092 m 0,0,1
 1618 1303.77272727 1618 1303.77272727 1536 1492 c 1,2,3
 1618 1550 1618 1550 1710 1550 c 0,4,5
 1714 1550 1714 1550 1718 1548 c 1,6,7
 1865 1539 1865 1539 1892 1396 c 0,8,9
 1900 1359 1900 1359 1900 1286 c 128,-1,10
 1900 1213 1900 1213 1876 1102 c 1,11,12
 1834 899 1834 899 1698.5 657.5 c 128,-1,13
 1563 416 1563 416 1382 200 c 1,14,15
 1338 144 1338 144 1208 4 c 1,16,-1
 1032 -34 l 1,17,-1
 996 768 l 1,18,-1
 984 768 l 1,19,20
 875 460 875 460 724 196 c 1,21,-1
 606 6 l 1,22,-1
 392 -32 l 1,23,-1
 278 1336 l 1,24,-1
 10 1386 l 1,25,-1
 44 1482 l 1,26,27
 273 1536 273 1536 534 1540 c 1,28,-1
 616 292 l 1,29,-1
 628 292 l 1,30,31
 802 543 802 543 928 930 c 1,32,33
 972 1074 972 1074 1010 1236 c 1,34,-1
 1194 1278 l 1,35,-1
 1258 242 l 1,36,-1
 1268 242 l 1,37,38
 1519.43133325 507.881409879 1519.43133325 507.881409879 1596 876 c 1,39,40
 1618 995 1618 995 1618 1092 c 0,0,1
1184 1950 m 1,41,-1
 1400 1726 l 1,42,-1
 1340 1682 l 1,43,-1
 1142 1814 l 1,44,-1
 1130 1814 l 1,45,-1
 960 1680 l 1,46,-1
 914 1716 l 1,47,-1
 1118 1934 l 1,48,-1
 1184 1950 l 1,41,-1
EndSplineSet
EndChar

StartChar: Wdieresis
Encoding: 7812 7812 112
Width: 1910
VWidth: 0
Flags: HW
HStem: -32 19G<390.333 504.632 1031.1 1124.63> 1386 96<44 86.841> 1520 30G<469 535.314 1679 1711> 1712 192<908.648 1081.26 1232.65 1406.67>
VStem: 892 206<1729 1886.53> 1010 184<1061.48 1236> 1216 208<1730.33 1885.94> 1618 282<1020.78 1394.51>
DStem2: 534 1540 278 1336 0.0830455 -0.996546<182.036 1250.5>
LayerCount: 2
Fore
SplineSet
1618 1092 m 0,0,1
 1618 1303.77272727 1618 1303.77272727 1536 1492 c 1,2,3
 1618 1550 1618 1550 1710 1550 c 0,4,5
 1714 1550 1714 1550 1718 1548 c 1,6,7
 1865 1539 1865 1539 1892 1396 c 0,8,9
 1900 1359 1900 1359 1900 1286 c 128,-1,10
 1900 1213 1900 1213 1876 1102 c 1,11,12
 1834 899 1834 899 1698.5 657.5 c 128,-1,13
 1563 416 1563 416 1382 200 c 1,14,15
 1338 144 1338 144 1208 4 c 1,16,-1
 1032 -34 l 1,17,-1
 996 768 l 1,18,-1
 984 768 l 1,19,20
 875 460 875 460 724 196 c 1,21,-1
 606 6 l 1,22,-1
 392 -32 l 1,23,-1
 278 1336 l 1,24,-1
 10 1386 l 1,25,-1
 44 1482 l 1,26,27
 273 1536 273 1536 534 1540 c 1,28,-1
 616 292 l 1,29,-1
 628 292 l 1,30,31
 802 543 802 543 928 930 c 1,32,33
 972 1074 972 1074 1010 1236 c 1,34,-1
 1194 1278 l 1,35,-1
 1258 242 l 1,36,-1
 1268 242 l 1,37,38
 1519.43133325 507.881409879 1519.43133325 507.881409879 1596 876 c 1,39,40
 1618 995 1618 995 1618 1092 c 0,0,1
1392.5 1877 m 128,-1,42
 1424 1850 1424 1850 1424 1809 c 128,-1,43
 1424 1768 1424 1768 1392.5 1740 c 128,-1,44
 1361 1712 1361 1712 1318.5 1712 c 128,-1,45
 1276 1712 1276 1712 1246 1740 c 128,-1,46
 1216 1768 1216 1768 1216 1809.5 c 128,-1,47
 1216 1851 1216 1851 1246 1877.5 c 128,-1,48
 1276 1904 1276 1904 1318.5 1904 c 128,-1,41
 1361 1904 1361 1904 1392.5 1877 c 128,-1,42
1067.5 1877 m 128,-1,50
 1098 1850 1098 1850 1098 1808.5 c 128,-1,51
 1098 1767 1098 1767 1067.5 1739.5 c 128,-1,52
 1037 1712 1037 1712 994.5 1712 c 128,-1,53
 952 1712 952 1712 922 1740 c 128,-1,54
 892 1768 892 1768 892 1809.5 c 128,-1,55
 892 1851 892 1851 922 1877.5 c 128,-1,56
 952 1904 952 1904 994.5 1904 c 128,-1,49
 1037 1904 1037 1904 1067.5 1877 c 128,-1,50
EndSplineSet
EndChar

StartChar: Wgrave
Encoding: 7808 7808 113
Width: 1910
VWidth: 0
Flags: HW
HStem: -32 19G<390.333 504.632 1031.1 1124.63> 1386 96<44 86.841> 1520 30G<469 535.314 1679 1711>
VStem: 1010 184<1061.48 1236> 1618 282<1020.78 1394.51>
DStem2: 534 1540 278 1336 0.0830455 -0.996546<182.036 1250.5>
LayerCount: 2
Fore
SplineSet
1618 1092 m 0,0,1
 1618 1303.77272727 1618 1303.77272727 1536 1492 c 1,2,3
 1618 1550 1618 1550 1710 1550 c 0,4,5
 1714 1550 1714 1550 1718 1548 c 1,6,7
 1865 1539 1865 1539 1892 1396 c 0,8,9
 1900 1359 1900 1359 1900 1286 c 128,-1,10
 1900 1213 1900 1213 1876 1102 c 1,11,12
 1834 899 1834 899 1698.5 657.5 c 128,-1,13
 1563 416 1563 416 1382 200 c 1,14,15
 1338 144 1338 144 1208 4 c 1,16,-1
 1032 -34 l 1,17,-1
 996 768 l 1,18,-1
 984 768 l 1,19,20
 875 460 875 460 724 196 c 1,21,-1
 606 6 l 1,22,-1
 392 -32 l 1,23,-1
 278 1336 l 1,24,-1
 10 1386 l 1,25,-1
 44 1482 l 1,26,27
 273 1536 273 1536 534 1540 c 1,28,-1
 616 292 l 1,29,-1
 628 292 l 1,30,31
 802 543 802 543 928 930 c 1,32,33
 972 1074 972 1074 1010 1236 c 1,34,-1
 1194 1278 l 1,35,-1
 1258 242 l 1,36,-1
 1268 242 l 1,37,38
 1519.43133325 507.881409879 1519.43133325 507.881409879 1596 876 c 1,39,40
 1618 995 1618 995 1618 1092 c 0,0,1
910 2046 m 1,41,-1
 1050 2092 l 1,42,-1
 1210 1688 l 1,43,-1
 1140 1646 l 1,44,-1
 910 2046 l 1,41,-1
EndSplineSet
EndChar

StartChar: X
Encoding: 88 88 114
Width: 1610
VWidth: 0
Flags: HW
HStem: -18 218<1149 1323.01> 1272 276<1416 1540.19> 1386 94<140 185.368>
DStem2: 668 1392 416 1324 0.414427 -0.910082<-42.5501 538.772 693.191 1320.59>
LayerCount: 2
Fore
SplineSet
416 1324 m 1,0,-1
 116 1386 l 1,1,-1
 140 1480 l 1,2,3
 331.663143989 1523.02642008 331.663143989 1523.02642008 424.331571995 1529.51321004 c 128,-1,4
 517 1536 517 1536 602 1540 c 1,5,-1
 892 902 l 1,6,7
 919 977 919 977 944 1024 c 1,8,9
 996 1138 996 1138 1082.5 1279.5 c 128,-1,10
 1169 1421 1169 1421 1235.5 1474 c 0,11,12
 1328.3490566 1548 1328.3490566 1548 1421.6745283 1548 c 128,-1,13
 1515 1548 1515 1548 1564 1476 c 1,14,15
 1593 1428 1593 1428 1596.5 1409 c 128,-1,16
 1600 1390 1600 1390 1600 1348.5 c 128,-1,17
 1600 1307 1600 1307 1572 1260 c 1,18,19
 1521 1272 1521 1272 1472 1272 c 1,20,-1
 1416 1268 l 1,21,22
 1195 1239 1195 1239 1036 986 c 1,23,24
 986 900 986 900 944 790 c 1,25,-1
 1102 442 l 2,26,27
 1175 283 1175 283 1230 228 c 0,28,29
 1258 200 1258 200 1293 200 c 128,-1,30
 1328 200 1328 200 1356 228 c 1,31,32
 1412 272 1412 272 1476 368 c 1,33,-1
 1536 326 l 1,34,35
 1514 242 1514 242 1480 188 c 0,36,37
 1392 46 1392 46 1264 -2 c 1,38,39
 1216 -18 1216 -18 1176 -18 c 0,40,41
 1086 -18 1086 -18 1020 48 c 0,42,43
 987 81 987 81 970.5 109 c 128,-1,44
 954 137 954 137 892 272 c 1,45,-1
 720 654 l 1,46,47
 656 480 656 480 532 260 c 1,48,49
 440 102 440 102 360 44 c 1,50,51
 287.407407407 -12 287.407407407 -12 206 -12 c 1,52,-1
 176 -10 l 1,53,54
 111 0 111 0 67 48.5 c 0,55,56
 10 111.329545455 10 111.329545455 10 175.164772727 c 128,-1,57
 10 239 10 239 30 282 c 1,58,59
 66 278 66 278 108 278 c 1,60,-1
 186 282 l 1,61,62
 430 309 430 309 564 552 c 0,63,64
 605 627 605 627 666 770 c 1,65,-1
 416 1324 l 1,0,-1
EndSplineSet
EndChar

StartChar: Y
Encoding: 89 89 115
Width: 1336
VWidth: 0
Flags: HW
HStem: 0 102<122 180.277 791.443 872> 1344 200<1116.26 1274.17> 1540 20G<188 327>
VStem: 456 180<820 995.245>
DStem2: 376.354 0 619.792 0 0.121869 0.992546<162.659 699.713>
LayerCount: 2
Fore
SplineSet
752 840 m 1,0,1
 698 661 698 661 672 444 c 2,2,-1
 636 132 l 1,3,-1
 900 100 l 1,4,-1
 872 0 l 1,5,-1
 98 0 l 1,6,-1
 122 102 l 1,7,-1
 396 160 l 1,8,-1
 444 522 l 2,9,10
 456 609 456 609 456 703.5 c 0,11,12
 456 925.756097561 456 925.756097561 372 1104 c 1,13,14
 259.846689895 1336.93379791 259.846689895 1336.93379791 10 1372 c 1,15,16
 28 1463 28 1463 91.5 1509 c 128,-1,17
 155 1555 155 1555 236 1560 c 1,18,-1
 250 1560 l 2,19,20
 450 1560 450 1560 550 1342 c 0,21,22
 617 1195 617 1195 632 1004 c 1,23,24
 636 888 636 888 636 868 c 2,25,-1
 636 820 l 1,26,-1
 656 820 l 1,27,28
 700 1005 700 1005 782 1190 c 1,29,30
 935.674418605 1544 935.674418605 1544 1154 1544 c 2,31,-1
 1176 1544 l 1,32,33
 1244 1538 1244 1538 1285 1489 c 128,-1,34
 1326 1440 1326 1440 1326 1382 c 0,35,36
 1326 1360 1326 1360 1322 1344 c 1,37,38
 1251 1342 1251 1342 1157 1314 c 128,-1,39
 1063 1286 1063 1286 988 1230 c 1,40,41
 901 1160 901 1160 851.5 1074.5 c 128,-1,42
 802 989 802 989 752 840 c 1,0,1
EndSplineSet
EndChar

StartChar: Yacute
Encoding: 221 221 116
Width: 1336
VWidth: 0
Flags: HW
HStem: 0 102<122 180.277 791.443 872> 1344 202<1115.71 1271.4> 1542 20G<242 326>
VStem: 456 180<820 995.201>
DStem2: 376.354 0 619.792 0 0.121869 0.992546<162.659 697.82>
LayerCount: 2
Fore
SplineSet
752 840 m 1,0,1
 698 661 698 661 672 444 c 2,2,-1
 636 132 l 1,3,-1
 900 100 l 1,4,-1
 872 0 l 1,5,-1
 98 0 l 1,6,-1
 122 102 l 1,7,-1
 396 160 l 1,8,-1
 444 522 l 2,9,10
 456 609 456 609 456 703.5 c 0,11,12
 456 925.756097561 456 925.756097561 372 1104 c 1,13,14
 259.846689895 1336.93379791 259.846689895 1336.93379791 10 1372 c 1,15,16
 28 1463 28 1463 91.5 1509 c 128,-1,17
 155 1555 155 1555 236 1560 c 0,18,19
 240 1560 240 1560 244 1562 c 1,20,-1
 250 1562 l 2,21,22
 449 1562 449 1562 550 1342 c 0,23,24
 636 1153.31343284 636 1153.31343284 636 868 c 2,25,-1
 636 820 l 1,26,-1
 656 820 l 1,27,28
 700 1005 700 1005 770.5 1162 c 128,-1,29
 841 1319 841 1319 901.5 1400 c 128,-1,30
 962 1481 962 1481 1029.5 1513.5 c 128,-1,31
 1097 1546 1097 1546 1152 1546 c 2,32,-1
 1164 1546 l 1,33,34
 1170 1544 1170 1544 1176 1544 c 0,35,36
 1244 1538 1244 1538 1285 1489.5 c 128,-1,37
 1326 1441 1326 1441 1326 1384 c 0,38,39
 1326 1360 1326 1360 1322 1344 c 1,40,41
 1251 1342 1251 1342 1157 1314 c 128,-1,42
 1063 1286 1063 1286 988 1230 c 1,43,44
 901 1160 901 1160 851.5 1074.5 c 128,-1,45
 802 989 802 989 752 840 c 1,0,1
998 2054 m 1,46,-1
 776 1670 l 1,47,-1
 714 1708 l 1,48,-1
 862 2102 l 1,49,-1
 998 2054 l 1,46,-1
EndSplineSet
EndChar

StartChar: Ycircumflex
Encoding: 374 374 117
Width: 1336
VWidth: 0
Flags: HW
HStem: 0 102<122 180.277 791.443 872> 1344 202<1115.71 1271.4> 1542 20G<242 326>
VStem: 456 180<820 995.201>
DStem2: 376.354 0 619.792 0 0.121869 0.992546<162.659 697.82>
LayerCount: 2
Fore
SplineSet
752 840 m 1,0,1
 698 661 698 661 672 444 c 2,2,-1
 636 132 l 1,3,-1
 900 100 l 1,4,-1
 872 0 l 1,5,-1
 98 0 l 1,6,-1
 122 102 l 1,7,-1
 396 160 l 1,8,-1
 444 522 l 2,9,10
 456 609 456 609 456 703.5 c 0,11,12
 456 925.756097561 456 925.756097561 372 1104 c 1,13,14
 259.846689895 1336.93379791 259.846689895 1336.93379791 10 1372 c 1,15,16
 28 1463 28 1463 91.5 1509 c 128,-1,17
 155 1555 155 1555 236 1560 c 0,18,19
 240 1560 240 1560 244 1562 c 1,20,-1
 250 1562 l 2,21,22
 449 1562 449 1562 550 1342 c 0,23,24
 636 1153.31343284 636 1153.31343284 636 868 c 2,25,-1
 636 820 l 1,26,-1
 656 820 l 1,27,28
 700 1005 700 1005 770.5 1162 c 128,-1,29
 841 1319 841 1319 901.5 1400 c 128,-1,30
 962 1481 962 1481 1029.5 1513.5 c 128,-1,31
 1097 1546 1097 1546 1152 1546 c 2,32,-1
 1164 1546 l 1,33,34
 1170 1544 1170 1544 1176 1544 c 0,35,36
 1244 1538 1244 1538 1285 1489.5 c 128,-1,37
 1326 1441 1326 1441 1326 1384 c 0,38,39
 1326 1360 1326 1360 1322 1344 c 1,40,41
 1251 1342 1251 1342 1157 1314 c 128,-1,42
 1063 1286 1063 1286 988 1230 c 1,43,44
 901 1160 901 1160 851.5 1074.5 c 128,-1,45
 802 989 802 989 752 840 c 1,0,1
752 1950 m 1,46,-1
 968 1726 l 1,47,-1
 908 1682 l 1,48,-1
 710 1814 l 1,49,-1
 698 1814 l 1,50,-1
 528 1680 l 1,51,-1
 482 1716 l 1,52,-1
 686 1934 l 1,53,-1
 752 1950 l 1,46,-1
EndSplineSet
EndChar

StartChar: Ydieresis
Encoding: 376 376 118
Width: 1336
VWidth: 0
Flags: HW
HStem: 0 102<122 180.277 791.443 872> 1344 202<1115.71 1271.4> 1542 20G<242 326> 1712 192<476.648 649.259 800.648 974.67>
VStem: 456 180<820 995.201> 460 206<1729 1886.53> 784 208<1730.33 1885.94>
DStem2: 376.354 0 619.792 0 0.121869 0.992546<162.659 697.82>
LayerCount: 2
Fore
SplineSet
752 840 m 1,0,1
 698 661 698 661 672 444 c 2,2,-1
 636 132 l 1,3,-1
 900 100 l 1,4,-1
 872 0 l 1,5,-1
 98 0 l 1,6,-1
 122 102 l 1,7,-1
 396 160 l 1,8,-1
 444 522 l 2,9,10
 456 609 456 609 456 703.5 c 0,11,12
 456 925.756097561 456 925.756097561 372 1104 c 1,13,14
 259.846689895 1336.93379791 259.846689895 1336.93379791 10 1372 c 1,15,16
 28 1463 28 1463 91.5 1509 c 128,-1,17
 155 1555 155 1555 236 1560 c 0,18,19
 240 1560 240 1560 244 1562 c 1,20,-1
 250 1562 l 2,21,22
 449 1562 449 1562 550 1342 c 0,23,24
 636 1153.31343284 636 1153.31343284 636 868 c 2,25,-1
 636 820 l 1,26,-1
 656 820 l 1,27,28
 700 1005 700 1005 770.5 1162 c 128,-1,29
 841 1319 841 1319 901.5 1400 c 128,-1,30
 962 1481 962 1481 1029.5 1513.5 c 128,-1,31
 1097 1546 1097 1546 1152 1546 c 2,32,-1
 1164 1546 l 1,33,34
 1170 1544 1170 1544 1176 1544 c 0,35,36
 1244 1538 1244 1538 1285 1489.5 c 128,-1,37
 1326 1441 1326 1441 1326 1384 c 0,38,39
 1326 1360 1326 1360 1322 1344 c 1,40,41
 1251 1342 1251 1342 1157 1314 c 128,-1,42
 1063 1286 1063 1286 988 1230 c 1,43,44
 901 1160 901 1160 851.5 1074.5 c 128,-1,45
 802 989 802 989 752 840 c 1,0,1
960.5 1877 m 128,-1,47
 992 1850 992 1850 992 1809 c 128,-1,48
 992 1768 992 1768 960.5 1740 c 128,-1,49
 929 1712 929 1712 886.5 1712 c 128,-1,50
 844 1712 844 1712 814 1740 c 128,-1,51
 784 1768 784 1768 784 1809.5 c 128,-1,52
 784 1851 784 1851 814 1877.5 c 128,-1,53
 844 1904 844 1904 886.5 1904 c 128,-1,46
 929 1904 929 1904 960.5 1877 c 128,-1,47
635.5 1877 m 128,-1,55
 666 1850 666 1850 666 1808.5 c 128,-1,56
 666 1767 666 1767 635.5 1739.5 c 128,-1,57
 605 1712 605 1712 562.5 1712 c 128,-1,58
 520 1712 520 1712 490 1740 c 128,-1,59
 460 1768 460 1768 460 1809.5 c 128,-1,60
 460 1851 460 1851 490 1877.5 c 128,-1,61
 520 1904 520 1904 562.5 1904 c 128,-1,54
 605 1904 605 1904 635.5 1877 c 128,-1,55
EndSplineSet
EndChar

StartChar: Ygrave
Encoding: 7922 7922 119
Width: 1336
VWidth: 0
Flags: HW
HStem: 0 102<122 180.277 791.443 872> 1344 202<1115.71 1271.4> 1542 20G<242 326>
VStem: 456 180<820 995.201>
DStem2: 376.354 0 619.792 0 0.121869 0.992546<162.659 697.82>
LayerCount: 2
Fore
SplineSet
752 840 m 1,0,1
 698 661 698 661 672 444 c 2,2,-1
 636 132 l 1,3,-1
 900 100 l 1,4,-1
 872 0 l 1,5,-1
 98 0 l 1,6,-1
 122 102 l 1,7,-1
 396 160 l 1,8,-1
 444 522 l 2,9,10
 456 609 456 609 456 703.5 c 0,11,12
 456 925.756097561 456 925.756097561 372 1104 c 1,13,14
 259.846689895 1336.93379791 259.846689895 1336.93379791 10 1372 c 1,15,16
 28 1463 28 1463 91.5 1509 c 128,-1,17
 155 1555 155 1555 236 1560 c 0,18,19
 240 1560 240 1560 244 1562 c 1,20,-1
 250 1562 l 2,21,22
 449 1562 449 1562 550 1342 c 0,23,24
 636 1153.31343284 636 1153.31343284 636 868 c 2,25,-1
 636 820 l 1,26,-1
 656 820 l 1,27,28
 700 1005 700 1005 770.5 1162 c 128,-1,29
 841 1319 841 1319 901.5 1400 c 128,-1,30
 962 1481 962 1481 1029.5 1513.5 c 128,-1,31
 1097 1546 1097 1546 1152 1546 c 2,32,-1
 1164 1546 l 1,33,34
 1170 1544 1170 1544 1176 1544 c 0,35,36
 1244 1538 1244 1538 1285 1489.5 c 128,-1,37
 1326 1441 1326 1441 1326 1384 c 0,38,39
 1326 1360 1326 1360 1322 1344 c 1,40,41
 1251 1342 1251 1342 1157 1314 c 128,-1,42
 1063 1286 1063 1286 988 1230 c 1,43,44
 901 1160 901 1160 851.5 1074.5 c 128,-1,45
 802 989 802 989 752 840 c 1,0,1
478 2046 m 1,46,-1
 618 2092 l 1,47,-1
 778 1688 l 1,48,-1
 708 1646 l 1,49,-1
 478 2046 l 1,46,-1
EndSplineSet
EndChar

StartChar: Z
Encoding: 90 90 120
Width: 1350
VWidth: 0
Flags: HW
HStem: 0 116<284 917.976> 1404 138<400 864.486> 1424 118<583.514 1048>
VStem: 1122 114<394.458 544>
DStem2: 16 128 284 116 0.617613 0.786482<156.082 1656.66>
LayerCount: 2
Fore
SplineSet
200 1542 m 1,0,-1
 1340 1542 l 1,1,-1
 1330 1448 l 1,2,-1
 284 116 l 1,3,-1
 544 128 l 1,4,5
 823 144 823 144 996 172 c 1,6,7
 1088.19047619 390.952380952 1088.19047619 390.952380952 1122 560 c 1,8,-1
 1236 544 l 1,9,10
 1236 522 1236 522 1238 506 c 1,11,-1
 1238 468 l 1,12,13
 1235.94415584 215.131168831 1235.94415584 215.131168831 1200 52 c 1,14,-1
 1188 0 l 1,15,-1
 10 0 l 1,16,-1
 16 128 l 1,17,-1
 1048 1424 l 1,18,-1
 400 1404 l 1,19,-1
 306 1080 l 1,20,-1
 180 1112 l 1,21,-1
 200 1542 l 1,0,-1
EndSplineSet
EndChar

StartChar: Zacute
Encoding: 377 377 121
Width: 1350
VWidth: 0
Flags: HW
HStem: 0 116<284 918.174> 1404 136<400 864.486> 1424 116<583.514 1048>
VStem: 1122 116<394.458 544>
DStem2: 16 128 284 116 0.617613 0.786482<156.082 1656.66>
LayerCount: 2
Fore
SplineSet
200 1540 m 1,0,-1
 1340 1540 l 1,1,-1
 1330 1448 l 1,2,-1
 284 116 l 1,3,-1
 544 128 l 1,4,5
 822 143 822 143 996 172 c 1,6,7
 1088.19047619 390.952380952 1088.19047619 390.952380952 1122 560 c 1,8,-1
 1238 544 l 1,9,-1
 1238 468 l 1,10,11
 1235.94415584 215.131168831 1235.94415584 215.131168831 1200 52 c 1,12,-1
 1188 0 l 1,13,-1
 10 0 l 1,14,-1
 16 128 l 1,15,-1
 1048 1424 l 1,16,-1
 400 1404 l 1,17,-1
 308 1080 l 1,18,-1
 180 1112 l 1,19,-1
 200 1540 l 1,0,-1
948 2054 m 1,20,-1
 726 1670 l 1,21,-1
 664 1708 l 1,22,-1
 812 2102 l 1,23,-1
 948 2054 l 1,20,-1
EndSplineSet
EndChar

StartChar: Zcaron
Encoding: 381 381 122
Width: 1350
VWidth: 0
Flags: HW
HStem: 0 116<284 918.174> 1404 136<400 864.486> 1424 116<583.514 1048>
VStem: 1122 116<394.458 544>
DStem2: 16 128 284 116 0.617613 0.786482<156.082 1656.66> 528 1954 430 1880 0.736873 -0.676031<0 250.267> 720 1780 714 1696 0.690318 0.723506<0 226.544>
LayerCount: 2
Fore
SplineSet
200 1540 m 1,0,-1
 1340 1540 l 1,1,-1
 1330 1448 l 1,2,-1
 284 116 l 1,3,-1
 544 128 l 1,4,5
 822 143 822 143 996 172 c 1,6,7
 1088.19047619 390.952380952 1088.19047619 390.952380952 1122 560 c 1,8,-1
 1238 544 l 1,9,-1
 1238 468 l 1,10,11
 1235.94415584 215.131168831 1235.94415584 215.131168831 1200 52 c 1,12,-1
 1188 0 l 1,13,-1
 10 0 l 1,14,-1
 16 128 l 1,15,-1
 1048 1424 l 1,16,-1
 400 1404 l 1,17,-1
 308 1080 l 1,18,-1
 180 1112 l 1,19,-1
 200 1540 l 1,0,-1
648 1680 m 1,20,-1
 430 1880 l 1,21,-1
 528 1954 l 1,22,-1
 708 1780 l 1,23,-1
 720 1780 l 1,24,-1
 870 1950 l 1,25,-1
 922 1914 l 1,26,-1
 714 1696 l 1,27,-1
 648 1680 l 1,20,-1
EndSplineSet
EndChar

StartChar: Zdotaccent
Encoding: 379 379 123
Width: 1350
VWidth: 0
Flags: HW
HStem: 0 116<284 918.174> 1404 136<400 864.486> 1424 116<583.514 1048> 1678 286<572.75 778>
VStem: 530 292<1722.25 1922.95> 1122 116<394.458 544>
DStem2: 16 128 284 116 0.617613 0.786482<156.082 1656.66>
LayerCount: 2
Fore
SplineSet
200 1540 m 1,0,-1
 1340 1540 l 1,1,-1
 1330 1448 l 1,2,-1
 284 116 l 1,3,-1
 544 128 l 1,4,5
 822 143 822 143 996 172 c 1,6,7
 1088.19047619 390.952380952 1088.19047619 390.952380952 1122 560 c 1,8,-1
 1238 544 l 1,9,-1
 1238 468 l 1,10,11
 1235.94415584 215.131168831 1235.94415584 215.131168831 1200 52 c 1,12,-1
 1188 0 l 1,13,-1
 10 0 l 1,14,-1
 16 128 l 1,15,-1
 1048 1424 l 1,16,-1
 400 1404 l 1,17,-1
 308 1080 l 1,18,-1
 180 1112 l 1,19,-1
 200 1540 l 1,0,-1
778.5 1924 m 128,-1,21
 822 1884 822 1884 822 1824.5 c 128,-1,22
 822 1765 822 1765 778 1721.5 c 128,-1,23
 734 1678 734 1678 674 1678 c 128,-1,24
 614 1678 614 1678 572 1722 c 128,-1,25
 530 1766 530 1766 530 1826 c 128,-1,26
 530 1886 530 1886 572.5 1925 c 128,-1,27
 615 1964 615 1964 675 1964 c 128,-1,20
 735 1964 735 1964 778.5 1924 c 128,-1,21
EndSplineSet
EndChar

StartChar: a
Encoding: 97 97 124
Width: 1040
VWidth: 0
Flags: HW
HStem: -38 182<631 835.531> -26 190<120 321.018> 952 154<380.224 581.118>
VStem: 10 190<190.168 541.935> 544 194<79 459.614>
DStem2: 652 816 784 606 0.179604 0.983739<-372.67 49.7903 202.683 307.09>
LayerCount: 2
Fore
SplineSet
726 1134 m 1,0,-1
 872 1088 l 1,1,-1
 784 606 l 1,2,-1
 746 312 l 1,3,4
 738 240 738 240 738 208.5 c 0,5,6
 738 144 738 144 792 144 c 0,7,8
 825 144 825 144 882 205 c 128,-1,9
 939 266 939 266 982 340 c 1,10,-1
 1032 296 l 1,11,12
 965 123 965 123 882.5 42.5 c 128,-1,13
 800 -38 800 -38 672 -38 c 0,14,15
 611 -38 611 -38 577.5 7 c 128,-1,16
 544 52 544 52 544 140 c 128,-1,17
 544 228 544 228 588 354 c 1,18,-1
 572 354 l 1,19,20
 507 197 507 197 401.5 85.5 c 128,-1,21
 296 -26 296 -26 193.5 -26 c 128,-1,22
 91 -26 91 -26 50.5 49.5 c 128,-1,23
 10 125 10 125 10 278.5 c 128,-1,24
 10 432 10 432 81 625 c 128,-1,25
 152 818 152 818 270.5 962 c 128,-1,26
 389 1106 389 1106 505.5 1106 c 128,-1,27
 622 1106 622 1106 684 1014 c 1,28,-1
 696 1014 l 1,29,-1
 712 1124 l 1,30,-1
 726 1134 l 1,0,-1
200 356 m 0,31,32
 200 246 200 246 215.5 205 c 128,-1,33
 231 164 231 164 280 164 c 0,34,35
 370 164 370 164 486 352.5 c 128,-1,36
 602 541 602 541 652 816 c 1,37,38
 634 868 634 868 579 910 c 128,-1,39
 524 952 524 952 465 952 c 128,-1,40
 406 952 406 952 350.5 893 c 128,-1,41
 295 834 295 834 264 736 c 1,42,43
 200 544 200 544 200 356 c 0,31,32
EndSplineSet
EndChar

StartChar: aacute
Encoding: 225 225 125
Width: 1040
VWidth: 0
Flags: HW
HStem: -38 182<631 835.531> -26 192<120 321.018> 952 154<380.224 581.118>
VStem: 10 192<190.168 541.935> 544 194<79 459.614>
DStem2: 652 816 784 606 0.179604 0.983739<-372.67 49.7903 202.683 307.09>
LayerCount: 2
Fore
SplineSet
726 1134 m 1,0,-1
 872 1088 l 1,1,-1
 784 606 l 1,2,-1
 746 312 l 1,3,4
 738 240 738 240 738 208.5 c 0,5,6
 738 144 738 144 792 144 c 0,7,8
 825 144 825 144 882 205 c 128,-1,9
 939 266 939 266 982 340 c 1,10,-1
 1032 296 l 1,11,12
 965 123 965 123 882.5 42.5 c 128,-1,13
 800 -38 800 -38 672 -38 c 0,14,15
 611 -38 611 -38 577.5 7 c 128,-1,16
 544 52 544 52 544 140 c 128,-1,17
 544 228 544 228 588 354 c 1,18,-1
 572 354 l 1,19,20
 507 197 507 197 401.5 85.5 c 128,-1,21
 296 -26 296 -26 193.5 -26 c 128,-1,22
 91 -26 91 -26 50.5 49.5 c 128,-1,23
 10 125 10 125 10 278.5 c 128,-1,24
 10 432 10 432 81 625 c 128,-1,25
 152 818 152 818 270.5 962 c 128,-1,26
 389 1106 389 1106 505.5 1106 c 128,-1,27
 622 1106 622 1106 684 1014 c 1,28,-1
 696 1014 l 1,29,-1
 712 1124 l 1,30,-1
 726 1134 l 1,0,-1
264 736 m 0,31,32
 202 541 202 541 202 390.5 c 128,-1,33
 202 240 202 240 216.5 203 c 128,-1,34
 231 166 231 166 280 166 c 0,35,36
 369 166 369 166 486 352 c 1,37,38
 602 541 602 541 652 816 c 1,39,40
 634 868 634 868 579 910 c 128,-1,41
 524 952 524 952 465 952 c 128,-1,42
 406 952 406 952 350.5 893 c 128,-1,43
 295 834 295 834 264 736 c 0,31,32
872 1618 m 1,44,-1
 650 1234 l 1,45,-1
 588 1272 l 1,46,-1
 736 1666 l 1,47,-1
 872 1618 l 1,44,-1
EndSplineSet
EndChar

StartChar: abreve
Encoding: 259 259 126
Width: 1040
VWidth: 0
Flags: HW
HStem: -38 182<631 835.531> -26 192<120 321.018> 952 154<380.224 581.118> 1264 132<479.131 720.738>
VStem: 10 192<190.168 541.935> 368 66<1451.71 1489.73> 544 194<79 459.614>
DStem2: 652 816 784 606 0.179604 0.983739<-372.67 49.7903 202.683 307.09>
LayerCount: 2
Fore
SplineSet
726 1134 m 1,0,-1
 872 1088 l 1,1,-1
 784 606 l 1,2,-1
 746 312 l 1,3,4
 738 240 738 240 738 208.5 c 0,5,6
 738 144 738 144 792 144 c 0,7,8
 825 144 825 144 882 205 c 128,-1,9
 939 266 939 266 982 340 c 1,10,-1
 1032 296 l 1,11,12
 965 123 965 123 882.5 42.5 c 128,-1,13
 800 -38 800 -38 672 -38 c 0,14,15
 611 -38 611 -38 577.5 7 c 128,-1,16
 544 52 544 52 544 140 c 128,-1,17
 544 228 544 228 588 354 c 1,18,-1
 572 354 l 1,19,20
 507 197 507 197 401.5 85.5 c 128,-1,21
 296 -26 296 -26 193.5 -26 c 128,-1,22
 91 -26 91 -26 50.5 49.5 c 128,-1,23
 10 125 10 125 10 278.5 c 128,-1,24
 10 432 10 432 81 625 c 128,-1,25
 152 818 152 818 270.5 962 c 128,-1,26
 389 1106 389 1106 505.5 1106 c 128,-1,27
 622 1106 622 1106 684 1014 c 1,28,-1
 696 1014 l 1,29,-1
 712 1124 l 1,30,-1
 726 1134 l 1,0,-1
264 736 m 0,31,32
 202 541 202 541 202 390.5 c 128,-1,33
 202 240 202 240 216.5 203 c 128,-1,34
 231 166 231 166 280 166 c 0,35,36
 369 166 369 166 486 352 c 1,37,38
 602 541 602 541 652 816 c 1,39,40
 634 868 634 868 579 910 c 128,-1,41
 524 952 524 952 465 952 c 128,-1,42
 406 952 406 952 350.5 893 c 128,-1,43
 295 834 295 834 264 736 c 0,31,32
368 1480 m 1,44,-1
 424 1518 l 1,45,-1
 434 1498 l 1,46,47
 454 1454 454 1454 499 1425 c 128,-1,48
 544 1396 544 1396 598 1396 c 0,49,50
 708 1396 708 1396 770 1500 c 2,51,-1
 782 1520 l 1,52,-1
 832 1486 l 1,53,-1
 824 1462 l 2,54,55
 794 1373 794 1373 736 1318.5 c 128,-1,56
 678 1264 678 1264 595.5 1264 c 128,-1,57
 513 1264 513 1264 454 1318 c 128,-1,58
 395 1372 395 1372 374 1456 c 2,59,-1
 368 1480 l 1,44,-1
EndSplineSet
EndChar

StartChar: acaron
Encoding: 462 462 127
Width: 1040
VWidth: 0
Flags: HW
HStem: -38 182<631 835.531> -26 192<120 321.018> 952 154<380.224 581.118>
VStem: 10 192<190.168 541.935> 544 194<79 459.614>
DStem2: 452 1518 354 1444 0.736873 -0.676031<0 250.267> 644 1344 638 1260 0.690318 0.723506<0 226.544> 652 816 784 606 0.179604 0.983739<-372.67 49.7903 202.683 307.09>
LayerCount: 2
Fore
SplineSet
726 1134 m 1,0,-1
 872 1088 l 1,1,-1
 784 606 l 1,2,-1
 746 312 l 1,3,4
 738 240 738 240 738 208.5 c 0,5,6
 738 144 738 144 792 144 c 0,7,8
 825 144 825 144 882 205 c 128,-1,9
 939 266 939 266 982 340 c 1,10,-1
 1032 296 l 1,11,12
 965 123 965 123 882.5 42.5 c 128,-1,13
 800 -38 800 -38 672 -38 c 0,14,15
 611 -38 611 -38 577.5 7 c 128,-1,16
 544 52 544 52 544 140 c 128,-1,17
 544 228 544 228 588 354 c 1,18,-1
 572 354 l 1,19,20
 507 197 507 197 401.5 85.5 c 128,-1,21
 296 -26 296 -26 193.5 -26 c 128,-1,22
 91 -26 91 -26 50.5 49.5 c 128,-1,23
 10 125 10 125 10 278.5 c 128,-1,24
 10 432 10 432 81 625 c 128,-1,25
 152 818 152 818 270.5 962 c 128,-1,26
 389 1106 389 1106 505.5 1106 c 128,-1,27
 622 1106 622 1106 684 1014 c 1,28,-1
 696 1014 l 1,29,-1
 712 1124 l 1,30,-1
 726 1134 l 1,0,-1
264 736 m 0,31,32
 202 541 202 541 202 390.5 c 128,-1,33
 202 240 202 240 216.5 203 c 128,-1,34
 231 166 231 166 280 166 c 0,35,36
 369 166 369 166 486 352 c 1,37,38
 602 541 602 541 652 816 c 1,39,40
 634 868 634 868 579 910 c 128,-1,41
 524 952 524 952 465 952 c 128,-1,42
 406 952 406 952 350.5 893 c 128,-1,43
 295 834 295 834 264 736 c 0,31,32
572 1244 m 1,44,-1
 354 1444 l 1,45,-1
 452 1518 l 1,46,-1
 632 1344 l 1,47,-1
 644 1344 l 1,48,-1
 794 1514 l 1,49,-1
 846 1478 l 1,50,-1
 638 1260 l 1,51,-1
 572 1244 l 1,44,-1
EndSplineSet
EndChar

StartChar: acircumflex
Encoding: 226 226 128
Width: 1040
VWidth: 0
Flags: HW
HStem: -38 182<631 835.531> -26 192<120 321.018> 952 154<380.224 581.118>
VStem: 10 192<190.168 541.935> 544 194<79 459.614>
DStem2: 652 816 784 606 0.179604 0.983739<-372.67 49.7903 202.683 307.09>
LayerCount: 2
Fore
SplineSet
726 1134 m 1,0,-1
 872 1088 l 1,1,-1
 784 606 l 1,2,-1
 746 312 l 1,3,4
 738 240 738 240 738 208.5 c 0,5,6
 738 144 738 144 792 144 c 0,7,8
 825 144 825 144 882 205 c 128,-1,9
 939 266 939 266 982 340 c 1,10,-1
 1032 296 l 1,11,12
 965 123 965 123 882.5 42.5 c 128,-1,13
 800 -38 800 -38 672 -38 c 0,14,15
 611 -38 611 -38 577.5 7 c 128,-1,16
 544 52 544 52 544 140 c 128,-1,17
 544 228 544 228 588 354 c 1,18,-1
 572 354 l 1,19,20
 507 197 507 197 401.5 85.5 c 128,-1,21
 296 -26 296 -26 193.5 -26 c 128,-1,22
 91 -26 91 -26 50.5 49.5 c 128,-1,23
 10 125 10 125 10 278.5 c 128,-1,24
 10 432 10 432 81 625 c 128,-1,25
 152 818 152 818 270.5 962 c 128,-1,26
 389 1106 389 1106 505.5 1106 c 128,-1,27
 622 1106 622 1106 684 1014 c 1,28,-1
 696 1014 l 1,29,-1
 712 1124 l 1,30,-1
 726 1134 l 1,0,-1
264 736 m 0,31,32
 202 541 202 541 202 390.5 c 128,-1,33
 202 240 202 240 216.5 203 c 128,-1,34
 231 166 231 166 280 166 c 0,35,36
 369 166 369 166 486 352 c 1,37,38
 602 541 602 541 652 816 c 1,39,40
 634 868 634 868 579 910 c 128,-1,41
 524 952 524 952 465 952 c 128,-1,42
 406 952 406 952 350.5 893 c 128,-1,43
 295 834 295 834 264 736 c 0,31,32
626 1514 m 1,44,-1
 842 1290 l 1,45,-1
 782 1246 l 1,46,-1
 584 1378 l 1,47,-1
 572 1378 l 1,48,-1
 402 1244 l 1,49,-1
 356 1280 l 1,50,-1
 560 1498 l 1,51,-1
 626 1514 l 1,44,-1
EndSplineSet
EndChar

StartChar: acute
Encoding: 180 180 129
Width: 750
VWidth: 0
Flags: HW
HStem: 1634 432
VStem: 278 284
LayerCount: 2
Fore
SplineSet
562 2018 m 1,0,-1
 340 1634 l 1,1,-1
 278 1672 l 1,2,-1
 426 2066 l 1,3,-1
 562 2018 l 1,0,-1
EndSplineSet
EndChar

StartChar: adieresis
Encoding: 228 228 130
Width: 1040
VWidth: 0
Flags: HW
HStem: -38 182<631 835.531> -26 192<120 321.018> 952 154<380.224 581.118> 1276 192<350.648 523.259 674.648 848.67>
VStem: 10 192<190.168 541.935> 334 206<1293 1450.53> 544 194<79 459.614> 658 208<1294.33 1449.94>
DStem2: 652 816 784 606 0.179604 0.983739<-372.67 49.7903 202.683 307.09>
LayerCount: 2
Fore
SplineSet
726 1134 m 1,0,-1
 872 1088 l 1,1,-1
 784 606 l 1,2,-1
 746 312 l 1,3,4
 738 240 738 240 738 208.5 c 0,5,6
 738 144 738 144 792 144 c 0,7,8
 825 144 825 144 882 205 c 128,-1,9
 939 266 939 266 982 340 c 1,10,-1
 1032 296 l 1,11,12
 965 123 965 123 882.5 42.5 c 128,-1,13
 800 -38 800 -38 672 -38 c 0,14,15
 611 -38 611 -38 577.5 7 c 128,-1,16
 544 52 544 52 544 140 c 128,-1,17
 544 228 544 228 588 354 c 1,18,-1
 572 354 l 1,19,20
 507 197 507 197 401.5 85.5 c 128,-1,21
 296 -26 296 -26 193.5 -26 c 128,-1,22
 91 -26 91 -26 50.5 49.5 c 128,-1,23
 10 125 10 125 10 278.5 c 128,-1,24
 10 432 10 432 81 625 c 128,-1,25
 152 818 152 818 270.5 962 c 128,-1,26
 389 1106 389 1106 505.5 1106 c 128,-1,27
 622 1106 622 1106 684 1014 c 1,28,-1
 696 1014 l 1,29,-1
 712 1124 l 1,30,-1
 726 1134 l 1,0,-1
264 736 m 0,31,32
 202 541 202 541 202 390.5 c 128,-1,33
 202 240 202 240 216.5 203 c 128,-1,34
 231 166 231 166 280 166 c 0,35,36
 369 166 369 166 486 352 c 1,37,38
 602 541 602 541 652 816 c 1,39,40
 634 868 634 868 579 910 c 128,-1,41
 524 952 524 952 465 952 c 128,-1,42
 406 952 406 952 350.5 893 c 128,-1,43
 295 834 295 834 264 736 c 0,31,32
834.5 1441 m 128,-1,45
 866 1414 866 1414 866 1373 c 128,-1,46
 866 1332 866 1332 834.5 1304 c 128,-1,47
 803 1276 803 1276 760.5 1276 c 128,-1,48
 718 1276 718 1276 688 1304 c 128,-1,49
 658 1332 658 1332 658 1373.5 c 128,-1,50
 658 1415 658 1415 688 1441.5 c 128,-1,51
 718 1468 718 1468 760.5 1468 c 128,-1,44
 803 1468 803 1468 834.5 1441 c 128,-1,45
509.5 1441 m 128,-1,53
 540 1414 540 1414 540 1372.5 c 128,-1,54
 540 1331 540 1331 509.5 1303.5 c 128,-1,55
 479 1276 479 1276 436.5 1276 c 128,-1,56
 394 1276 394 1276 364 1304 c 128,-1,57
 334 1332 334 1332 334 1373.5 c 128,-1,58
 334 1415 334 1415 364 1441.5 c 128,-1,59
 394 1468 394 1468 436.5 1468 c 128,-1,52
 479 1468 479 1468 509.5 1441 c 128,-1,53
EndSplineSet
EndChar

StartChar: ae
Encoding: 230 230 131
Width: 1400
VWidth: 0
Flags: HW
HStem: -38 168<845.795 1059.73> -26 192<177 363.664> 952 154<430.674 629.691> 978 130<939.896 1167.2>
VStem: 58 192<190.997 543.216> 1120 188<735.579 963.509>
LayerCount: 2
Fore
SplineSet
1102 1108 m 0,0,1
 1197 1108 1197 1108 1252.5 1050.5 c 128,-1,2
 1308 993 1308 993 1308 888 c 128,-1,3
 1308 783 1308 783 1223 672 c 128,-1,4
 1138 561 1138 561 1016.5 486 c 128,-1,5
 895 411 895 411 782 376 c 1,6,7
 783 245 783 245 830.5 187.5 c 128,-1,8
 878 130 878 130 965.5 130 c 0,9,10
 1127.27272727 130 1127.27272727 130 1238 304 c 1,11,-1
 1282 264 l 1,12,13
 1242 143 1242 143 1132 52.5 c 128,-1,14
 1022 -38 1022 -38 890.5 -38 c 128,-1,15
 759 -38 759 -38 678.5 48.5 c 128,-1,16
 598 135 598 135 588 290 c 1,17,18
 510 148 510 148 419 61 c 128,-1,19
 328 -26 328 -26 236 -26 c 0,20,21
 58 -26 58 -26 58 270 c 0,22,23
 58 432 58 432 129 625 c 128,-1,24
 200 818 200 818 320 962 c 128,-1,25
 440 1106 440 1106 566 1106 c 0,26,27
 631 1106 631 1106 685 1047 c 128,-1,28
 739 988 739 988 762 898 c 1,29,30
 915 1108 915 1108 1102 1108 c 0,0,1
326.5 776 m 128,-1,32
 293 700 293 700 271.5 593 c 128,-1,33
 250 486 250 486 250 363 c 128,-1,34
 250 240 250 240 264.5 203 c 128,-1,35
 279 166 279 166 328 166 c 0,36,37
 417 166 417 166 534 352 c 1,38,39
 650 541 650 541 700 816 c 1,40,41
 682 868 682 868 627 910 c 128,-1,42
 572 952 572 952 518 952 c 128,-1,43
 464 952 464 952 412 902 c 128,-1,31
 360 852 360 852 326.5 776 c 128,-1,32
1029 632.5 m 128,-1,45
 1120 741 1120 741 1120 859.5 c 128,-1,46
 1120 978 1120 978 1022 978 c 0,47,48
 817 978 817 978 784 466 c 1,49,44
 938 524 938 524 1029 632.5 c 128,-1,45
EndSplineSet
EndChar

StartChar: agrave
Encoding: 224 224 132
Width: 1040
VWidth: 0
Flags: HW
HStem: -38 182<631 835.531> -26 192<120 321.018> 952 154<380.224 581.118>
VStem: 10 192<190.168 541.935> 544 194<79 459.614>
DStem2: 652 816 784 606 0.179604 0.983739<-372.67 49.7903 202.683 307.09>
LayerCount: 2
Fore
SplineSet
726 1134 m 1,0,-1
 872 1088 l 1,1,-1
 784 606 l 1,2,-1
 746 312 l 1,3,4
 738 240 738 240 738 208.5 c 0,5,6
 738 144 738 144 792 144 c 0,7,8
 825 144 825 144 882 205 c 128,-1,9
 939 266 939 266 982 340 c 1,10,-1
 1032 296 l 1,11,12
 965 123 965 123 882.5 42.5 c 128,-1,13
 800 -38 800 -38 672 -38 c 0,14,15
 611 -38 611 -38 577.5 7 c 128,-1,16
 544 52 544 52 544 140 c 128,-1,17
 544 228 544 228 588 354 c 1,18,-1
 572 354 l 1,19,20
 507 197 507 197 401.5 85.5 c 128,-1,21
 296 -26 296 -26 193.5 -26 c 128,-1,22
 91 -26 91 -26 50.5 49.5 c 128,-1,23
 10 125 10 125 10 278.5 c 128,-1,24
 10 432 10 432 81 625 c 128,-1,25
 152 818 152 818 270.5 962 c 128,-1,26
 389 1106 389 1106 505.5 1106 c 128,-1,27
 622 1106 622 1106 684 1014 c 1,28,-1
 696 1014 l 1,29,-1
 712 1124 l 1,30,-1
 726 1134 l 1,0,-1
264 736 m 0,31,32
 202 541 202 541 202 390.5 c 128,-1,33
 202 240 202 240 216.5 203 c 128,-1,34
 231 166 231 166 280 166 c 0,35,36
 369 166 369 166 486 352 c 1,37,38
 602 541 602 541 652 816 c 1,39,40
 634 868 634 868 579 910 c 128,-1,41
 524 952 524 952 465 952 c 128,-1,42
 406 952 406 952 350.5 893 c 128,-1,43
 295 834 295 834 264 736 c 0,31,32
352 1610 m 1,44,-1
 492 1656 l 1,45,-1
 652 1252 l 1,46,-1
 582 1210 l 1,47,-1
 352 1610 l 1,44,-1
EndSplineSet
EndChar

StartChar: amacron
Encoding: 257 257 133
Width: 1040
VWidth: 0
Flags: HW
HStem: -38 182<631 835.531> -26 192<120 321.018> 952 154<380.224 581.118> 1270 122<350 868>
VStem: 10 192<190.168 541.935> 544 194<79 459.614>
DStem2: 652 816 784 606 0.179604 0.983739<-372.67 49.7903 202.683 307.09>
LayerCount: 2
Fore
SplineSet
726 1134 m 1,0,-1
 872 1088 l 1,1,-1
 784 606 l 1,2,-1
 746 312 l 1,3,4
 738 240 738 240 738 208.5 c 0,5,6
 738 144 738 144 792 144 c 0,7,8
 825 144 825 144 882 205 c 128,-1,9
 939 266 939 266 982 340 c 1,10,-1
 1032 296 l 1,11,12
 965 123 965 123 882.5 42.5 c 128,-1,13
 800 -38 800 -38 672 -38 c 0,14,15
 611 -38 611 -38 577.5 7 c 128,-1,16
 544 52 544 52 544 140 c 128,-1,17
 544 228 544 228 588 354 c 1,18,-1
 572 354 l 1,19,20
 507 197 507 197 401.5 85.5 c 128,-1,21
 296 -26 296 -26 193.5 -26 c 128,-1,22
 91 -26 91 -26 50.5 49.5 c 128,-1,23
 10 125 10 125 10 278.5 c 128,-1,24
 10 432 10 432 81 625 c 128,-1,25
 152 818 152 818 270.5 962 c 128,-1,26
 389 1106 389 1106 505.5 1106 c 128,-1,27
 622 1106 622 1106 684 1014 c 1,28,-1
 696 1014 l 1,29,-1
 712 1124 l 1,30,-1
 726 1134 l 1,0,-1
264 736 m 0,31,32
 202 541 202 541 202 390.5 c 128,-1,33
 202 240 202 240 216.5 203 c 128,-1,34
 231 166 231 166 280 166 c 0,35,36
 369 166 369 166 486 352 c 1,37,38
 602 541 602 541 652 816 c 1,39,40
 634 868 634 868 579 910 c 128,-1,41
 524 952 524 952 465 952 c 128,-1,42
 406 952 406 952 350.5 893 c 128,-1,43
 295 834 295 834 264 736 c 0,31,32
350 1392 m 1,44,-1
 884 1392 l 1,45,-1
 868 1270 l 1,46,-1
 334 1270 l 1,47,-1
 350 1392 l 1,44,-1
EndSplineSet
EndChar

